SplineFontDB: 3.2
FontName: telugu5eng
FullName: telugu5eng
FamilyName: telugu5eng
Weight: Regular
Copyright: Copyright 2019 The Baloo 2 Project Authors (https://github.com/EkType/Baloo2)
Version: 1.700
ItalicAngle: 0
UnderlinePosition: -125
UnderlineWidth: 50
Ascent: 800
Descent: 200
InvalidEm: 0
sfntRevision: 0x0001b333
LayerCount: 2
Layer: 0 1 "Back" 1
Layer: 1 1 "Fore" 0
XUID: [1021 467 -1121320856 14220135]
StyleMap: 0x0040
FSType: 0
OS2Version: 4
OS2_WeightWidthSlopeOnly: 0
OS2_UseTypoMetrics: 1
CreationTime: 1584606762
ModificationTime: 1645694521
PfmFamily: 81
TTFWeight: 400
TTFWidth: 5
LineGap: 0
VLineGap: 0
Panose: 0 0 0 0 0 0 0 0 0 0
OS2TypoAscent: 1177
OS2TypoAOffset: 0
OS2TypoDescent: -1119
OS2TypoDOffset: 0
OS2TypoLinegap: 0
OS2WinAscent: 1177
OS2WinAOffset: 0
OS2WinDescent: 1065
OS2WinDOffset: 0
HheadAscent: 1177
HheadAOffset: 0
HheadDescent: -1119
HheadDOffset: 0
OS2SubXSize: 650
OS2SubYSize: 600
OS2SubXOff: 0
OS2SubYOff: 75
OS2SupXSize: 650
OS2SupYSize: 600
OS2SupXOff: 0
OS2SupYOff: 350
OS2StrikeYSize: 50
OS2StrikeYPos: 276
OS2CapHeight: 602
OS2XHeight: 460
OS2Vendor: 'EKTF'
OS2CodePages: 20000193.00000000
OS2UnicodeRanges: a020007f.4000207b.00000000.00000000
Lookup: 4 0 0 "'akhn' Akhand in Telugu2 lookup 0" { "'akhn' Akhand in Telugu2 lookup 0 subtable"  } ['akhn' ('tel2' <'dflt' > ) ]
Lookup: 4 0 0 "'blwf' Below Base Forms in Telugu2 lookup 1" { "'blwf' Below Base Forms in Telugu2 lookup 1 subtable"  } ['blwf' ('tel2' <'dflt' > ) ]
Lookup: 4 0 0 "'blwf' Below Base Forms in Telugu lookup 2" { "'blwf' Below Base Forms in Telugu lookup 2 subtable"  } ['blwf' ('telu' <'dflt' > ) ]
Lookup: 4 0 0 "'psts' Post Base Substitutions lookup 3" { "'psts' Post Base Substitutions lookup 3 subtable"  } ['psts' ('DFLT' <'dflt' > 'latn' <'AZE ' 'CAT ' 'CRT ' 'KAZ ' 'MOL ' 'NLD ' 'ROM ' 'TAT ' 'TRK ' 'dflt' > 'tel2' <'dflt' > 'telu' <'dflt' > ) ]

StartChar: .notdef
Encoding: 65536 -1 0
Width: 645
Flags: W
LayerCount: 2
Fore
SplineSet
159 0 m 2,0,1
 131 0 131 0 115 16 c 128,-1,2
 99 32 99 32 99 60 c 2,3,-1
 99 589 l 2,4,5
 99 617 99 617 114.5 633 c 128,-1,6
 130 649 130 649 158 649 c 2,7,-1
 486 649 l 2,8,9
 515 649 515 649 530.5 633 c 128,-1,10
 546 617 546 617 546 589 c 2,11,-1
 546 60 l 2,12,13
 546 32 546 32 530.5 16 c 128,-1,14
 515 0 515 0 486 0 c 2,15,-1
 159 0 l 2,0,1
180 68 m 1,16,-1
 466 68 l 1,17,-1
 466 581 l 1,18,-1
 180 581 l 1,19,-1
 180 68 l 1,16,-1
EndSplineSet
EndChar

StartChar: exclam
Encoding: 33 33 4
Width: 250
Flags: W
LayerCount: 2
Fore
SplineSet
164 582 m 0,0,1
 164 552 164 552 163.5 503.5 c 128,-1,2
 163 455 163 455 161.5 398.5 c 128,-1,3
 160 342 160 342 158 286.5 c 128,-1,4
 156 231 156 231 154 187 c 1,5,6
 148 183 148 183 139.5 180 c 128,-1,7
 131 177 131 177 121 177 c 0,8,9
 107 177 107 177 98 183 c 128,-1,10
 89 189 89 189 88 202 c 0,11,12
 86 231 86 231 84 282 c 128,-1,13
 82 333 82 333 81 393.5 c 128,-1,14
 80 454 80 454 79.5 512 c 128,-1,15
 79 570 79 570 79 612 c 1,16,17
 100 625 100 625 124 625 c 0,18,19
 143 625 143 625 153.5 614.5 c 128,-1,20
 164 604 164 604 164 582 c 0,0,1
66 45 m 256,21,22
 66 69 66 69 81 85 c 128,-1,23
 96 101 96 101 122 101 c 256,24,25
 148 101 148 101 163 85 c 128,-1,26
 178 69 178 69 178 45 c 256,27,28
 178 21 178 21 163 5 c 128,-1,29
 148 -11 148 -11 122 -11 c 256,30,31
 96 -11 96 -11 81 5 c 128,-1,32
 66 21 66 21 66 45 c 256,21,22
EndSplineSet
EndChar

StartChar: quotedbl
Encoding: 34 34 5
Width: 270
Flags: W
LayerCount: 2
Fore
SplineSet
101 418 m 1,0,1
 94 415 94 415 86.5 413.5 c 128,-1,2
 79 412 79 412 70 412 c 0,3,4
 55 412 55 412 46.5 419 c 128,-1,5
 38 426 38 426 37 441 c 2,6,-1
 31 615 l 1,7,8
 49 625 49 625 70 625 c 0,9,10
 88 625 88 625 97.5 615.5 c 128,-1,11
 107 606 107 606 107 586 c 0,12,13
 107 569 107 569 106 538 c 128,-1,14
 105 507 105 507 103.5 474.5 c 128,-1,15
 102 442 102 442 101 418 c 1,0,1
234 418 m 1,16,17
 227 415 227 415 218.5 413.5 c 128,-1,18
 210 412 210 412 202 412 c 0,19,20
 186 412 186 412 178.5 419 c 128,-1,21
 171 426 171 426 170 441 c 2,22,-1
 163 615 l 1,23,24
 172 620 172 620 181.5 622.5 c 128,-1,25
 191 625 191 625 203 625 c 0,26,27
 221 625 221 625 230 615.5 c 128,-1,28
 239 606 239 606 239 585 c 0,29,30
 239 569 239 569 238 538 c 128,-1,31
 237 507 237 507 236 474.5 c 128,-1,32
 235 442 235 442 234 418 c 1,16,17
EndSplineSet
EndChar

StartChar: numbersign
Encoding: 35 35 6
Width: 667
Flags: W
LayerCount: 2
Fore
SplineSet
566 162 m 2,0,-1
 49 162 l 1,1,2
 47 168 47 168 45 175.5 c 128,-1,3
 43 183 43 183 43 191 c 0,4,5
 43 208 43 208 51.5 216 c 128,-1,6
 60 224 60 224 76 224 c 2,7,-1
 594 224 l 1,8,9
 596 218 596 218 598 210.5 c 128,-1,10
 600 203 600 203 600 194 c 0,11,12
 600 178 600 178 591.5 170 c 128,-1,13
 583 162 583 162 566 162 c 2,0,-1
596 396 m 2,14,-1
 79 396 l 1,15,16
 77 402 77 402 74.5 409 c 128,-1,17
 72 416 72 416 72 425 c 0,18,19
 72 442 72 442 81 450 c 128,-1,20
 90 458 90 458 106 458 c 2,21,-1
 624 458 l 1,22,23
 626 452 626 452 628 444.5 c 128,-1,24
 630 437 630 437 630 428 c 0,25,26
 630 412 630 412 621.5 404 c 128,-1,27
 613 396 613 396 596 396 c 2,14,-1
307 532 m 2,28,-1
 195 -3 l 1,29,30
 190 -4 190 -4 183.5 -4.5 c 128,-1,31
 177 -5 177 -5 170 -5 c 0,32,33
 154 -5 154 -5 144.5 3 c 128,-1,34
 135 11 135 11 135 27 c 0,35,36
 135 37 135 37 138 51.5 c 128,-1,37
 141 66 141 66 144 76 c 2,38,-1
 256 611 l 1,39,40
 261 612 261 612 268 612.5 c 128,-1,41
 275 613 275 613 281 613 c 0,42,43
 297 613 297 613 306.5 605.5 c 128,-1,44
 316 598 316 598 316 581 c 0,45,46
 316 571 316 571 312.5 557 c 128,-1,47
 309 543 309 543 307 532 c 2,28,-1
523 532 m 2,48,-1
 411 -3 l 1,49,50
 406 -4 406 -4 399.5 -4.5 c 128,-1,51
 393 -5 393 -5 386 -5 c 0,52,53
 370 -5 370 -5 360.5 3 c 128,-1,54
 351 11 351 11 351 27 c 0,55,56
 351 37 351 37 354 51.5 c 128,-1,57
 357 66 357 66 359 76 c 2,58,-1
 472 611 l 1,59,60
 477 612 477 612 484 612.5 c 128,-1,61
 491 613 491 613 497 613 c 0,62,63
 513 613 513 613 522.5 605.5 c 128,-1,64
 532 598 532 598 532 581 c 0,65,66
 532 571 532 571 528.5 557 c 128,-1,67
 525 543 525 543 523 532 c 2,48,-1
EndSplineSet
EndChar

StartChar: dollar
Encoding: 36 36 7
Width: 522
Flags: W
LayerCount: 2
Fore
SplineSet
221 25 m 1,0,-1
 294 25 l 1,1,-1
 294 -89 l 1,2,3
 290 -90 290 -90 281.5 -92 c 128,-1,4
 273 -94 273 -94 262 -94 c 0,5,6
 243 -94 243 -94 232 -85.5 c 128,-1,7
 221 -77 221 -77 221 -61 c 2,8,-1
 221 25 l 1,0,-1
294 568 m 1,9,-1
 221 568 l 1,10,-1
 221 697 l 1,11,12
 226 699 226 699 235 700.5 c 128,-1,13
 244 702 244 702 254 702 c 0,14,15
 274 702 274 702 284 693.5 c 128,-1,16
 294 685 294 685 294 669 c 2,17,-1
 294 568 l 1,9,-1
257 55 m 0,18,19
 324 55 324 55 358.5 85.5 c 128,-1,20
 393 116 393 116 393 164 c 0,21,22
 393 205 393 205 366.5 232 c 128,-1,23
 340 259 340 259 283 275 c 2,24,-1
 196 301 l 2,25,26
 154 314 154 314 123 334.5 c 128,-1,27
 92 355 92 355 75.5 385.5 c 128,-1,28
 59 416 59 416 59 457 c 0,29,30
 59 534 59 534 115 577.5 c 128,-1,31
 171 621 171 621 264 621 c 0,32,33
 318 621 318 621 360.5 609.5 c 128,-1,34
 403 598 403 598 427.5 580 c 128,-1,35
 452 562 452 562 452 542 c 0,36,37
 452 529 452 529 445 518.5 c 128,-1,38
 438 508 438 508 427 502 c 1,39,40
 402 522 402 522 359.5 537 c 128,-1,41
 317 552 317 552 267 552 c 0,42,43
 209 552 209 552 175 526.5 c 128,-1,44
 141 501 141 501 141 457 c 0,45,46
 141 422 141 422 165.5 400 c 128,-1,47
 190 378 190 378 245 362 c 2,48,-1
 306 344 l 2,49,50
 385 322 385 322 430.5 280 c 128,-1,51
 476 238 476 238 476 164 c 0,52,53
 476 85 476 85 418.5 36 c 128,-1,54
 361 -13 361 -13 257 -13 c 0,55,56
 196 -13 196 -13 150.5 0.5 c 128,-1,57
 105 14 105 14 79.5 34.5 c 128,-1,58
 54 55 54 55 54 75 c 0,59,60
 54 92 54 92 64.5 103.5 c 128,-1,61
 75 115 75 115 89 120 c 1,62,63
 112 98 112 98 154 76.5 c 128,-1,64
 196 55 196 55 257 55 c 0,18,19
EndSplineSet
EndChar

StartChar: percent
Encoding: 37 37 8
Width: 772
Flags: W
LayerCount: 2
Fore
SplineSet
335 474 m 256,0,1
 335 409 335 409 294 370.5 c 128,-1,2
 253 332 253 332 194 332 c 256,3,4
 135 332 135 332 94 370.5 c 128,-1,5
 53 409 53 409 53 474 c 256,6,7
 53 539 53 539 94 577.5 c 128,-1,8
 135 616 135 616 194 616 c 256,9,10
 253 616 253 616 294 577.5 c 128,-1,11
 335 539 335 539 335 474 c 256,0,1
124 474 m 256,12,13
 124 435 124 435 143.5 413.5 c 128,-1,14
 163 392 163 392 194 392 c 256,15,16
 225 392 225 392 244.5 413.5 c 128,-1,17
 264 435 264 435 264 474 c 256,18,19
 264 513 264 513 244.5 534.5 c 128,-1,20
 225 556 225 556 194 556 c 256,21,22
 163 556 163 556 143.5 534.5 c 128,-1,23
 124 513 124 513 124 474 c 256,12,13
186 65 m 2,24,-1
 554 616 l 1,25,26
 577 613 577 613 590.5 604.5 c 128,-1,27
 604 596 604 596 604 582 c 0,28,29
 604 572 604 572 600 562.5 c 128,-1,30
 596 553 596 553 588 542 c 2,31,-1
 221 -7 l 1,32,33
 199 -5 199 -5 185 5 c 128,-1,34
 171 15 171 15 171 28 c 0,35,36
 171 36 171 36 175 45 c 128,-1,37
 179 54 179 54 186 65 c 2,24,-1
719 135 m 0,38,39
 719 69 719 69 678 30.5 c 128,-1,40
 637 -8 637 -8 578 -8 c 0,41,42
 520 -8 520 -8 478.5 30.5 c 128,-1,43
 437 69 437 69 437 135 c 0,44,45
 437 200 437 200 478.5 238 c 128,-1,46
 520 276 520 276 578 276 c 0,47,48
 637 276 637 276 678 238 c 128,-1,49
 719 200 719 200 719 135 c 0,38,39
508 135 m 0,50,51
 508 95 508 95 527.5 73.5 c 128,-1,52
 547 52 547 52 578 52 c 256,53,54
 609 52 609 52 628.5 73.5 c 128,-1,55
 648 95 648 95 648 135 c 0,56,57
 648 173 648 173 628.5 194.5 c 128,-1,58
 609 216 609 216 578 216 c 256,59,60
 547 216 547 216 527.5 194.5 c 128,-1,61
 508 173 508 173 508 135 c 0,50,51
EndSplineSet
EndChar

StartChar: ampersand
Encoding: 38 38 9
Width: 637
Flags: W
LayerCount: 2
Fore
SplineSet
509 102 m 1,0,-1
 480 68 l 2,1,2
 446 31 446 31 397 8 c 128,-1,3
 348 -15 348 -15 279 -15 c 256,4,5
 210 -15 210 -15 158.5 10 c 128,-1,6
 107 35 107 35 78.5 80.5 c 128,-1,7
 50 126 50 126 50 187 c 0,8,9
 50 238 50 238 70.5 276.5 c 128,-1,10
 91 315 91 315 126 341 c 128,-1,11
 161 367 161 367 204 378 c 1,12,-1
 239 319 l 1,13,14
 212 313 212 313 187.5 296.5 c 128,-1,15
 163 280 163 280 147 252.5 c 128,-1,16
 131 225 131 225 131 186 c 0,17,18
 131 126 131 126 170.5 89.5 c 128,-1,19
 210 53 210 53 280 53 c 0,20,21
 318 53 318 53 358.5 69 c 128,-1,22
 399 85 399 85 433 124 c 1,23,-1
 455 156 l 2,24,25
 473 189 473 189 483.5 239 c 128,-1,26
 494 289 494 289 494 353 c 1,27,28
 503 357 503 357 512.5 359.5 c 128,-1,29
 522 362 522 362 531 362 c 0,30,31
 551 362 551 362 561 350.5 c 128,-1,32
 571 339 571 339 571 317 c 0,33,34
 571 261 571 261 554.5 202 c 128,-1,35
 538 143 538 143 509 102 c 1,0,-1
565 -14 m 0,36,37
 545 -14 545 -14 525 9 c 2,38,-1
 219 329 l 1,39,-1
 194 357 l 2,40,41
 163 389 163 389 148 419.5 c 128,-1,42
 133 450 133 450 133 485 c 0,43,44
 133 526 133 526 151.5 556.5 c 128,-1,45
 170 587 170 587 205.5 604 c 128,-1,46
 241 621 241 621 292 621 c 0,47,48
 345 621 345 621 372.5 606 c 128,-1,49
 400 591 400 591 400 568 c 0,50,51
 400 556 400 556 393.5 546.5 c 128,-1,52
 387 537 387 537 379 532 c 1,53,54
 363 541 363 541 341.5 547 c 128,-1,55
 320 553 320 553 297 553 c 0,56,57
 259 553 259 553 237 534.5 c 128,-1,58
 215 516 215 516 215 484 c 0,59,60
 215 453 215 453 231 429 c 128,-1,61
 247 405 247 405 277 374 c 2,62,-1
 609 29 l 1,63,64
 606 9 606 9 595 -2.5 c 128,-1,65
 584 -14 584 -14 565 -14 c 0,36,37
EndSplineSet
EndChar

StartChar: quotesingle
Encoding: 39 39 10
Width: 139
Flags: W
LayerCount: 2
Fore
SplineSet
103 418 m 1,0,1
 96 416 96 416 87.5 414 c 128,-1,2
 79 412 79 412 70 412 c 0,3,4
 55 412 55 412 46.5 419.5 c 128,-1,5
 38 427 38 427 37 441 c 2,6,-1
 31 615 l 1,7,8
 39 620 39 620 48.5 622.5 c 128,-1,9
 58 625 58 625 71 625 c 0,10,11
 90 625 90 625 99.5 615.5 c 128,-1,12
 109 606 109 606 109 585 c 0,13,14
 109 568 109 568 108 537.5 c 128,-1,15
 107 507 107 507 106 474.5 c 128,-1,16
 105 442 105 442 103 418 c 1,0,1
EndSplineSet
EndChar

StartChar: parenleft
Encoding: 40 40 11
Width: 254
Flags: W
LayerCount: 2
Fore
SplineSet
204 -116 m 0,0,1
 188 -116 188 -116 175 -104.5 c 128,-1,2
 162 -93 162 -93 148 -73 c 0,3,4
 103 -9 103 -9 79 76.5 c 128,-1,5
 55 162 55 162 55 274 c 0,6,7
 55 385 55 385 83 472.5 c 128,-1,8
 111 560 111 560 148 615 c 0,9,10
 161 635 161 635 174.5 646 c 128,-1,11
 188 657 188 657 204 657 c 0,12,13
 218 657 218 657 228.5 649 c 128,-1,14
 239 641 239 641 244 629 c 1,15,16
 190 560 190 560 160.5 470.5 c 128,-1,17
 131 381 131 381 131 274 c 256,18,19
 131 167 131 167 157.5 81 c 128,-1,20
 184 -5 184 -5 244 -87 c 1,21,22
 239 -99 239 -99 228.5 -107.5 c 128,-1,23
 218 -116 218 -116 204 -116 c 0,0,1
EndSplineSet
Substitution2: "'sinf' Scientific Inferiors lookup 94 subtable" parenleft.inferior
EndChar

StartChar: parenright
Encoding: 41 41 12
Width: 254
Flags: W
LayerCount: 2
Fore
SplineSet
50 -116 m 0,0,1
 36 -116 36 -116 25.5 -107.5 c 128,-1,2
 15 -99 15 -99 10 -87 c 1,3,4
 70 -5 70 -5 96.5 81 c 128,-1,5
 123 167 123 167 123 274 c 256,6,7
 123 381 123 381 93.5 470.5 c 128,-1,8
 64 560 64 560 10 629 c 1,9,10
 15 641 15 641 25.5 649 c 128,-1,11
 36 657 36 657 50 657 c 0,12,13
 66 657 66 657 79.5 646 c 128,-1,14
 93 635 93 635 106 615 c 0,15,16
 143 560 143 560 171 472.5 c 128,-1,17
 199 385 199 385 199 274 c 0,18,19
 199 162 199 162 175 76.5 c 128,-1,20
 151 -9 151 -9 106 -73 c 0,21,22
 93 -93 93 -93 79.5 -104.5 c 128,-1,23
 66 -116 66 -116 50 -116 c 0,0,1
EndSplineSet
Substitution2: "'sinf' Scientific Inferiors lookup 94 subtable" parenright.inferior
EndChar

StartChar: asterisk
Encoding: 42 42 13
Width: 299
Flags: W
LayerCount: 2
Fore
SplineSet
146 535 m 1,0,-1
 168 478 l 1,1,-1
 23 526 l 1,2,3
 20 537 20 537 20 547 c 0,4,5
 20 561 20 561 28.5 570 c 128,-1,6
 37 579 37 579 50 579 c 0,7,8
 55 579 55 579 60 577 c 128,-1,9
 65 575 65 575 71 573 c 2,10,-1
 146 535 l 1,0,-1
181 510 m 1,11,-1
 100 391 l 2,12,13
 96 390 96 390 93 390 c 128,-1,14
 90 390 90 390 87 390 c 0,15,16
 68 390 68 390 58.5 398.5 c 128,-1,17
 49 407 49 407 49 419 c 0,18,19
 49 427 49 427 52.5 434 c 128,-1,20
 56 441 56 441 61 446 c 2,21,-1
 113 504 l 1,22,-1
 181 510 l 1,11,-1
135 490 m 1,23,-1
 162 536 l 1,24,-1
 258 421 l 1,25,26
 256 408 256 408 245.5 399 c 128,-1,27
 235 390 235 390 223 390 c 0,28,29
 212 390 212 390 203 398.5 c 128,-1,30
 194 407 194 407 187 416 c 2,31,-1
 135 490 l 1,23,-1
124 515 m 1,32,-1
 254 588 l 1,33,34
 263 584 263 584 271 574.5 c 128,-1,35
 279 565 279 565 279 553 c 256,36,37
 279 541 279 541 272 535 c 128,-1,38
 265 529 265 529 254 524 c 2,39,-1
 170 484 l 1,40,-1
 124 515 l 1,32,-1
176 520 m 1,41,-1
 126 492 l 1,42,-1
 121 640 l 1,43,44
 126 643 126 643 134 646 c 128,-1,45
 142 649 142 649 152 649 c 0,46,47
 165 649 165 649 173.5 643 c 128,-1,48
 182 637 182 637 182 623 c 0,49,50
 182 617 182 617 180.5 596 c 128,-1,51
 179 575 179 575 177.5 552.5 c 128,-1,52
 176 530 176 530 176 520 c 1,41,-1
EndSplineSet
EndChar

StartChar: plus
Encoding: 43 43 14
Width: 548
Flags: W
LayerCount: 2
Fore
SplineSet
462 266 m 2,0,-1
 58 266 l 1,1,2
 55 273 55 273 53 280.5 c 128,-1,3
 51 288 51 288 51 298 c 0,4,5
 51 315 51 315 60.5 323.5 c 128,-1,6
 70 332 70 332 86 332 c 2,7,-1
 490 332 l 1,8,9
 492 326 492 326 494.5 318 c 128,-1,10
 497 310 497 310 497 301 c 0,11,12
 497 285 497 285 488 275.5 c 128,-1,13
 479 266 479 266 462 266 c 2,0,-1
312 488 m 2,14,-1
 312 73 l 1,15,16
 305 70 305 70 297 68 c 128,-1,17
 289 66 289 66 278 66 c 0,18,19
 258 66 258 66 248.5 75 c 128,-1,20
 239 84 239 84 239 106 c 2,21,-1
 239 521 l 1,22,23
 247 524 247 524 255.5 526 c 128,-1,24
 264 528 264 528 276 528 c 0,25,26
 295 528 295 528 303.5 519 c 128,-1,27
 312 510 312 510 312 488 c 2,14,-1
EndSplineSet
EndChar

StartChar: comma
Encoding: 44 44 15
Width: 145
Flags: W
LayerCount: 2
Fore
SplineSet
68 -94 m 0,0,1
 52 -121 52 -121 29 -121 c 0,2,3
 7 -121 7 -121 -7 -104 c 1,4,5
 2 -78 2 -78 13.5 -42.5 c 128,-1,6
 25 -7 25 -7 35 30 c 128,-1,7
 45 67 45 67 50 94 c 1,8,9
 58 98 58 98 67.5 100.5 c 128,-1,10
 77 103 77 103 88 103 c 0,11,12
 106 103 106 103 116 94.5 c 128,-1,13
 126 86 126 86 126 66 c 0,14,15
 126 44 126 44 115.5 11.5 c 128,-1,16
 105 -21 105 -21 91 -50.5 c 128,-1,17
 77 -80 77 -80 68 -94 c 0,0,1
EndSplineSet
EndChar

StartChar: hyphen
Encoding: 45 45 16
Width: 389
Flags: W
LayerCount: 2
Fore
SplineSet
300 228 m 2,0,-1
 61 228 l 1,1,2
 58 235 58 235 56 242.5 c 128,-1,3
 54 250 54 250 54 260 c 0,4,5
 54 277 54 277 63.5 285.5 c 128,-1,6
 73 294 73 294 89 294 c 2,7,-1
 328 294 l 1,8,9
 330 288 330 288 332.5 280 c 128,-1,10
 335 272 335 272 335 263 c 0,11,12
 335 247 335 247 326 237.5 c 128,-1,13
 317 228 317 228 300 228 c 2,0,-1
EndSplineSet
EndChar

StartChar: period
Encoding: 46 46 17
Width: 141
Flags: W
LayerCount: 2
Fore
SplineSet
16 42 m 0,0,1
 16 66 16 66 30.5 82 c 128,-1,2
 45 98 45 98 71 98 c 256,3,4
 97 98 97 98 111 82 c 128,-1,5
 125 66 125 66 125 42 c 0,6,7
 125 19 125 19 111 3 c 128,-1,8
 97 -13 97 -13 71 -13 c 256,9,10
 45 -13 45 -13 30.5 3 c 128,-1,11
 16 19 16 19 16 42 c 0,0,1
EndSplineSet
EndChar

StartChar: slash
Encoding: 47 47 18
Width: 305
Flags: W
LayerCount: 2
Fore
SplineSet
274 621 m 2,0,-1
 89 -105 l 1,1,2
 83 -106 83 -106 77 -106.5 c 128,-1,3
 71 -107 71 -107 63 -107 c 0,4,5
 44 -107 44 -107 34 -97.5 c 128,-1,6
 24 -88 24 -88 24 -71 c 0,7,8
 24 -60 24 -60 28 -45 c 128,-1,9
 32 -30 32 -30 34 -21 c 2,10,-1
 218 705 l 1,11,12
 225 706 225 706 231 706.5 c 128,-1,13
 237 707 237 707 244 707 c 0,14,15
 261 707 261 707 272 698.5 c 128,-1,16
 283 690 283 690 283 671 c 0,17,18
 283 660 283 660 280 646.5 c 128,-1,19
 277 633 277 633 274 621 c 2,0,-1
EndSplineSet
EndChar

StartChar: zero
Encoding: 48 48 19
Width: 583
Flags: W
LayerCount: 2
Fore
SplineSet
291 -13 m 0,0,1
 221 -13 221 -13 167.5 21.5 c 128,-1,2
 114 56 114 56 84 126.5 c 128,-1,3
 54 197 54 197 54 304 c 0,4,5
 54 419 54 419 88 488 c 128,-1,6
 122 557 122 557 176 588.5 c 128,-1,7
 230 620 230 620 291 620 c 0,8,9
 353 620 353 620 407.5 588 c 128,-1,10
 462 556 462 556 495.5 486.5 c 128,-1,11
 529 417 529 417 529 304 c 0,12,13
 529 198 529 198 499 127.5 c 128,-1,14
 469 57 469 57 415.5 22 c 128,-1,15
 362 -13 362 -13 291 -13 c 0,0,1
291 55 m 0,16,17
 365 55 365 55 406 119.5 c 128,-1,18
 447 184 447 184 447 304 c 0,19,20
 447 393 447 393 425.5 447.5 c 128,-1,21
 404 502 404 502 369 527 c 128,-1,22
 334 552 334 552 291 552 c 0,23,24
 249 552 249 552 213.5 526.5 c 128,-1,25
 178 501 178 501 157 446 c 128,-1,26
 136 391 136 391 136 304 c 0,27,28
 136 184 136 184 177 119.5 c 128,-1,29
 218 55 218 55 291 55 c 0,16,17
EndSplineSet
Substitution2: "'sinf' Scientific Inferiors lookup 94 subtable" zero.inferior
EndChar

StartChar: one
Encoding: 49 49 20
Width: 357
Flags: W
LayerCount: 2
Fore
SplineSet
254 224 m 1,0,-1
 173 224 l 1,1,-1
 173 530 l 1,2,-1
 45 470 l 1,3,4
 32 475 32 475 23.5 485 c 128,-1,5
 15 495 15 495 15 510 c 0,6,7
 15 539 15 539 51 554 c 2,8,-1
 191 615 l 1,9,-1
 210 615 l 2,10,11
 230 615 230 615 242 603 c 128,-1,12
 254 591 254 591 254 571 c 2,13,-1
 254 224 l 1,0,-1
173 264 m 1,14,-1
 254 264 l 1,15,-1
 254 -1 l 1,16,17
 248 -3 248 -3 238 -5.5 c 128,-1,18
 228 -8 228 -8 216 -8 c 0,19,20
 195 -8 195 -8 184 1 c 128,-1,21
 173 10 173 10 173 29 c 2,22,-1
 173 264 l 1,14,-1
EndSplineSet
Substitution2: "'sinf' Scientific Inferiors lookup 94 subtable" one.inferior
EndChar

StartChar: two
Encoding: 50 50 21
Width: 508
Flags: W
LayerCount: 2
Fore
SplineSet
57 545 m 0,0,1
 57 563 57 563 80 580.5 c 128,-1,2
 103 598 103 598 142 609 c 128,-1,3
 181 620 181 620 227 620 c 0,4,5
 291 620 291 620 337 598.5 c 128,-1,6
 383 577 383 577 408 538 c 128,-1,7
 433 499 433 499 433 446 c 0,8,9
 433 391 433 391 402.5 338 c 128,-1,10
 372 285 372 285 298 217 c 2,11,-1
 135 66 l 1,12,-1
 432 66 l 1,13,14
 436 62 436 62 439 53.5 c 128,-1,15
 442 45 442 45 442 34 c 0,16,17
 442 18 442 18 433.5 9 c 128,-1,18
 425 0 425 0 411 0 c 2,19,-1
 58 0 l 1,20,21
 48 7 48 7 43 17.5 c 128,-1,22
 38 28 38 28 38 40 c 0,23,24
 38 56 38 56 44 68.5 c 128,-1,25
 50 81 50 81 62 92 c 2,26,-1
 242 265 l 2,27,28
 304 323 304 323 327 362.5 c 128,-1,29
 350 402 350 402 350 445 c 0,30,31
 350 492 350 492 318 522 c 128,-1,32
 286 552 286 552 221 552 c 0,33,34
 177 552 177 552 142.5 537 c 128,-1,35
 108 522 108 522 85 505 c 1,36,37
 74 510 74 510 65.5 520 c 128,-1,38
 57 530 57 530 57 545 c 0,0,1
EndSplineSet
Substitution2: "'sinf' Scientific Inferiors lookup 94 subtable" two.inferior
EndChar

StartChar: three
Encoding: 51 51 22
Width: 506
Flags: W
LayerCount: 2
Fore
SplineSet
217 621 m 0,0,1
 312 621 312 621 370.5 579.5 c 128,-1,2
 429 538 429 538 429 455 c 0,3,4
 429 415 429 415 412.5 386.5 c 128,-1,5
 396 358 396 358 373.5 342 c 128,-1,6
 351 326 351 326 333 321 c 1,7,8
 360 313 360 313 386 293.5 c 128,-1,9
 412 274 412 274 429.5 243.5 c 128,-1,10
 447 213 447 213 447 170 c 0,11,12
 447 110 447 110 418 70 c 128,-1,13
 389 30 389 30 338 9.5 c 128,-1,14
 287 -11 287 -11 220 -11 c 0,15,16
 165 -11 165 -11 122.5 0.5 c 128,-1,17
 80 12 80 12 56 30 c 128,-1,18
 32 48 32 48 32 68 c 0,19,20
 32 82 32 82 39.5 92 c 128,-1,21
 47 102 47 102 59 109 c 1,22,23
 85 89 85 89 122.5 73 c 128,-1,24
 160 57 160 57 220 57 c 0,25,26
 286 57 286 57 327 85.5 c 128,-1,27
 368 114 368 114 368 172 c 0,28,29
 368 223 368 223 330 254 c 128,-1,30
 292 285 292 285 220 285 c 2,31,-1
 137 285 l 1,32,33
 133 290 133 290 130 299.5 c 128,-1,34
 127 309 127 309 127 319 c 0,35,36
 127 330 127 330 130 339 c 128,-1,37
 133 348 133 348 137 353 c 1,38,-1
 213 353 l 2,39,40
 287 353 287 353 318.5 380.5 c 128,-1,41
 350 408 350 408 350 453 c 0,42,43
 350 502 350 502 314 527.5 c 128,-1,44
 278 553 278 553 216 553 c 0,45,46
 168 553 168 553 131.5 538.5 c 128,-1,47
 95 524 95 524 71 507 c 1,48,49
 61 512 61 512 53 523 c 128,-1,50
 45 534 45 534 45 547 c 0,51,52
 45 565 45 565 68 582 c 128,-1,53
 91 599 91 599 130 610 c 128,-1,54
 169 621 169 621 217 621 c 0,0,1
EndSplineSet
Substitution2: "'sinf' Scientific Inferiors lookup 94 subtable" three.inferior
EndChar

StartChar: four
Encoding: 52 52 23
Width: 548
Flags: W
LayerCount: 2
Fore
SplineSet
32 223 m 2,0,-1
 323 609 l 1,1,2
 332 611 332 611 343.5 612.5 c 128,-1,3
 355 614 355 614 364 614 c 0,4,5
 378 614 378 614 390.5 610 c 128,-1,6
 403 606 403 606 411 595.5 c 128,-1,7
 419 585 419 585 419 565 c 2,8,-1
 419 215 l 1,9,-1
 519 215 l 1,10,11
 522 210 522 210 525 201.5 c 128,-1,12
 528 193 528 193 528 182 c 0,13,14
 528 166 528 166 520 157 c 128,-1,15
 512 148 512 148 497 148 c 2,16,-1
 419 148 l 1,17,-1
 419 -2 l 1,18,19
 414 -3 414 -3 404.5 -5.5 c 128,-1,20
 395 -8 395 -8 384 -8 c 0,21,22
 363 -8 363 -8 352 1 c 128,-1,23
 341 10 341 10 341 27 c 2,24,-1
 341 148 l 1,25,-1
 52 148 l 1,26,27
 42 153 42 153 34.5 166 c 128,-1,28
 27 179 27 179 27 195 c 0,29,30
 27 204 27 204 28.5 210.5 c 128,-1,31
 30 217 30 217 32 223 c 2,0,-1
342 215 m 1,32,-1
 344 530 l 1,33,-1
 342 530 l 1,34,-1
 120 215 l 1,35,-1
 342 215 l 1,32,-1
EndSplineSet
Substitution2: "'sinf' Scientific Inferiors lookup 94 subtable" four.inferior
EndChar

StartChar: five
Encoding: 53 53 24
Width: 538
Flags: W
LayerCount: 2
Fore
SplineSet
204 608 m 1,0,-1
 177 549 l 1,1,-1
 160 360 l 1,2,3
 177 369 177 369 207.5 377.5 c 128,-1,4
 238 386 238 386 272 386 c 0,5,6
 332 386 332 386 380 363.5 c 128,-1,7
 428 341 428 341 456.5 297.5 c 128,-1,8
 485 254 485 254 485 190 c 0,9,10
 485 132 485 132 458.5 86 c 128,-1,11
 432 40 432 40 381.5 13.5 c 128,-1,12
 331 -13 331 -13 258 -13 c 0,13,14
 201 -13 201 -13 158 0 c 128,-1,15
 115 13 115 13 91 32 c 128,-1,16
 67 51 67 51 67 69 c 0,17,18
 67 85 67 85 77.5 97 c 128,-1,19
 88 109 88 109 99 113 c 1,20,21
 121 94 121 94 161 74 c 128,-1,22
 201 54 201 54 258 54 c 0,23,24
 327 54 327 54 365 92.5 c 128,-1,25
 403 131 403 131 403 190 c 0,26,27
 403 251 403 251 364 285 c 128,-1,28
 325 319 325 319 262 319 c 0,29,30
 227 319 227 319 198 308 c 128,-1,31
 169 297 169 297 144 283 c 1,32,33
 117 285 117 285 100.5 299.5 c 128,-1,34
 84 314 84 314 84 337 c 0,35,36
 84 343 84 343 84.5 352.5 c 128,-1,37
 85 362 85 362 86 371 c 2,38,-1
 103 562 l 2,39,40
 105 583 105 583 116 595.5 c 128,-1,41
 127 608 127 608 148 608 c 2,42,-1
 204 608 l 1,0,-1
162 540 m 1,43,-1
 162 608 l 1,44,-1
 454 608 l 1,45,46
 457 604 457 604 460 595 c 128,-1,47
 463 586 463 586 463 576 c 0,48,49
 463 560 463 560 455 550 c 128,-1,50
 447 540 447 540 432 540 c 2,51,-1
 162 540 l 1,43,-1
EndSplineSet
Substitution2: "'sinf' Scientific Inferiors lookup 94 subtable" five.inferior
EndChar

StartChar: six
Encoding: 54 54 25
Width: 550
Flags: W
LayerCount: 2
Fore
SplineSet
455 561 m 0,0,1
 455 549 455 549 448.5 538.5 c 128,-1,2
 442 528 442 528 432 523 c 1,3,4
 410 534 410 534 382.5 542.5 c 128,-1,5
 355 551 355 551 323 551 c 0,6,7
 245 551 245 551 191.5 495 c 128,-1,8
 138 439 138 439 135 320 c 1,9,10
 155 340 155 340 196.5 362.5 c 128,-1,11
 238 385 238 385 299 385 c 0,12,13
 387 385 387 385 444 335 c 128,-1,14
 501 285 501 285 501 187 c 0,15,16
 501 125 501 125 474.5 80 c 128,-1,17
 448 35 448 35 400.5 11 c 128,-1,18
 353 -13 353 -13 288 -13 c 0,19,20
 221 -13 221 -13 168 17.5 c 128,-1,21
 115 48 115 48 84.5 113.5 c 128,-1,22
 54 179 54 179 54 285 c 0,23,24
 54 379 54 379 76.5 443.5 c 128,-1,25
 99 508 99 508 137 546.5 c 128,-1,26
 175 585 175 585 223 602.5 c 128,-1,27
 271 620 271 620 321 620 c 0,28,29
 356 620 356 620 386.5 613 c 128,-1,30
 417 606 417 606 436 593 c 128,-1,31
 455 580 455 580 455 561 c 0,0,1
288 54 m 0,32,33
 346 54 346 54 383 89.5 c 128,-1,34
 420 125 420 125 420 189 c 0,35,36
 420 254 420 254 382.5 285.5 c 128,-1,37
 345 317 345 317 290 317 c 256,38,39
 235 317 235 317 195 293.5 c 128,-1,40
 155 270 155 270 132 237 c 1,41,-1
 135 244 l 1,42,43
 135 159 135 159 175 106.5 c 128,-1,44
 215 54 215 54 288 54 c 0,32,33
EndSplineSet
Substitution2: "'sinf' Scientific Inferiors lookup 94 subtable" six.inferior
EndChar

StartChar: seven
Encoding: 55 55 26
Width: 458
Flags: W
LayerCount: 2
Fore
SplineSet
55 608 m 2,0,-1
 415 608 l 1,1,2
 426 602 426 602 432 591.5 c 128,-1,3
 438 581 438 581 438 568 c 0,4,5
 438 558 438 558 435.5 548 c 128,-1,6
 433 538 433 538 427 526 c 2,7,-1
 176 -4 l 1,8,9
 170 -5 170 -5 164.5 -5 c 128,-1,10
 159 -5 159 -5 153 -5 c 0,11,12
 134 -5 134 -5 120 4.5 c 128,-1,13
 106 14 106 14 106 31 c 0,14,15
 106 43 106 43 111 54.5 c 128,-1,16
 116 66 116 66 123 81 c 2,17,-1
 349 540 l 1,18,-1
 33 540 l 1,19,20
 30 545 30 545 27 553.5 c 128,-1,21
 24 562 24 562 24 572 c 0,22,23
 24 589 24 589 32 598.5 c 128,-1,24
 40 608 40 608 55 608 c 2,0,-1
EndSplineSet
Substitution2: "'sinf' Scientific Inferiors lookup 94 subtable" seven.inferior
EndChar

StartChar: eight
Encoding: 56 56 27
Width: 569
Flags: W
LayerCount: 2
Fore
SplineSet
285 -13 m 0,0,1
 217 -13 217 -13 166 7.5 c 128,-1,2
 115 28 115 28 87 67 c 128,-1,3
 59 106 59 106 59 161 c 0,4,5
 59 210 59 210 81.5 244.5 c 128,-1,6
 104 279 104 279 139 300 c 128,-1,7
 174 321 174 321 212 328 c 2,8,-1
 272 338 l 2,9,10
 344 352 344 352 380 379.5 c 128,-1,11
 416 407 416 407 416 453 c 0,12,13
 416 500 416 500 381 526.5 c 128,-1,14
 346 553 346 553 285 553 c 0,15,16
 226 553 226 553 190 526 c 128,-1,17
 154 499 154 499 154 454 c 0,18,19
 154 416 154 416 174.5 393 c 128,-1,20
 195 370 195 370 229.5 358.5 c 128,-1,21
 264 347 264 347 305 343 c 1,22,-1
 349 328 l 1,23,24
 390 320 390 320 427 299.5 c 128,-1,25
 464 279 464 279 487 245 c 128,-1,26
 510 211 510 211 510 160 c 0,27,28
 510 106 510 106 481.5 67 c 128,-1,29
 453 28 453 28 402.5 7.5 c 128,-1,30
 352 -13 352 -13 285 -13 c 0,0,1
285 54 m 0,31,32
 350 54 350 54 390 82 c 128,-1,33
 430 110 430 110 430 163 c 0,34,35
 430 221 430 221 381.5 255 c 128,-1,36
 333 289 333 289 252 294 c 1,37,-1
 201 309 l 2,38,39
 143 325 143 325 108.5 361 c 128,-1,40
 74 397 74 397 74 455 c 0,41,42
 74 506 74 506 100.5 543 c 128,-1,43
 127 580 127 580 174.5 600 c 128,-1,44
 222 620 222 620 285 620 c 0,45,46
 383 620 383 620 439.5 575.5 c 128,-1,47
 496 531 496 531 496 453 c 0,48,49
 496 390 496 390 453.5 354 c 128,-1,50
 411 318 411 318 350 307 c 2,51,-1
 282 293 l 2,52,53
 218 283 218 283 178.5 249.5 c 128,-1,54
 139 216 139 216 139 162 c 0,55,56
 139 111 139 111 178 82.5 c 128,-1,57
 217 54 217 54 285 54 c 0,31,32
EndSplineSet
Substitution2: "'sinf' Scientific Inferiors lookup 94 subtable" eight.inferior
EndChar

StartChar: nine
Encoding: 57 57 28
Width: 552
Flags: W
LayerCount: 2
Fore
SplineSet
82 49 m 0,0,1
 82 61 82 61 88.5 72 c 128,-1,2
 95 83 95 83 105 88 c 1,3,4
 124 77 124 77 154.5 66.5 c 128,-1,5
 185 56 185 56 227 56 c 0,6,7
 279 56 279 56 322 78 c 128,-1,8
 365 100 365 100 391 150.5 c 128,-1,9
 417 201 417 201 417 284 c 1,10,11
 408 274 408 274 387.5 259.5 c 128,-1,12
 367 245 367 245 336 234 c 128,-1,13
 305 223 305 223 264 223 c 0,14,15
 208 223 208 223 159 242.5 c 128,-1,16
 110 262 110 262 80.5 305 c 128,-1,17
 51 348 51 348 51 418 c 0,18,19
 51 481 51 481 79 526.5 c 128,-1,20
 107 572 107 572 155 596 c 128,-1,21
 203 620 203 620 262 620 c 0,22,23
 331 620 331 620 384 588.5 c 128,-1,24
 437 557 437 557 467.5 491.5 c 128,-1,25
 498 426 498 426 498 323 c 0,26,27
 498 201 498 201 464 127 c 128,-1,28
 430 53 430 53 369.5 20 c 128,-1,29
 309 -13 309 -13 228 -13 c 0,30,31
 168 -13 168 -13 125 3 c 128,-1,32
 82 19 82 19 82 49 c 0,0,1
275 290 m 0,33,34
 326 290 326 290 365.5 315.5 c 128,-1,35
 405 341 405 341 418 372 c 1,36,-1
 417 361 l 1,37,38
 417 450 417 450 376.5 501.5 c 128,-1,39
 336 553 336 553 262 553 c 0,40,41
 207 553 207 553 169.5 517.5 c 128,-1,42
 132 482 132 482 132 420 c 0,43,44
 132 351 132 351 174 320.5 c 128,-1,45
 216 290 216 290 275 290 c 0,33,34
EndSplineSet
Substitution2: "'sinf' Scientific Inferiors lookup 94 subtable" nine.inferior
EndChar

StartChar: colon
Encoding: 58 58 29
Width: 189
Flags: W
LayerCount: 2
Fore
SplineSet
40 392 m 256,0,1
 40 416 40 416 54.5 432 c 128,-1,2
 69 448 69 448 94 448 c 0,3,4
 120 448 120 448 134.5 432 c 128,-1,5
 149 416 149 416 149 392 c 256,6,7
 149 368 149 368 134.5 352.5 c 128,-1,8
 120 337 120 337 94 337 c 0,9,10
 69 337 69 337 54.5 352.5 c 128,-1,11
 40 368 40 368 40 392 c 256,0,1
40 42 m 0,12,13
 40 66 40 66 54 82 c 128,-1,14
 68 98 68 98 94 98 c 256,15,16
 120 98 120 98 134.5 82 c 128,-1,17
 149 66 149 66 149 42 c 0,18,19
 149 19 149 19 134.5 3 c 128,-1,20
 120 -13 120 -13 94 -13 c 256,21,22
 68 -13 68 -13 54 3 c 128,-1,23
 40 19 40 19 40 42 c 0,12,13
EndSplineSet
EndChar

StartChar: semicolon
Encoding: 59 59 30
Width: 202
Flags: W
LayerCount: 2
Fore
SplineSet
46 392 m 256,0,1
 46 416 46 416 60 432 c 128,-1,2
 74 448 74 448 100 448 c 256,3,4
 126 448 126 448 140.5 432 c 128,-1,5
 155 416 155 416 155 392 c 256,6,7
 155 368 155 368 140.5 352.5 c 128,-1,8
 126 337 126 337 100 337 c 256,9,10
 74 337 74 337 60 352.5 c 128,-1,11
 46 368 46 368 46 392 c 256,0,1
89 -94 m 0,12,13
 73 -121 73 -121 50 -121 c 0,14,15
 28 -121 28 -121 14 -104 c 1,16,17
 23 -78 23 -78 34.5 -42.5 c 128,-1,18
 46 -7 46 -7 56 30 c 128,-1,19
 66 67 66 67 71 94 c 1,20,21
 79 98 79 98 88.5 100.5 c 128,-1,22
 98 103 98 103 109 103 c 0,23,24
 127 103 127 103 137 94.5 c 128,-1,25
 147 86 147 86 147 66 c 0,26,27
 147 44 147 44 136.5 11.5 c 128,-1,28
 126 -21 126 -21 112 -50.5 c 128,-1,29
 98 -80 98 -80 89 -94 c 0,12,13
EndSplineSet
EndChar

StartChar: less
Encoding: 60 60 31
Width: 473
Flags: W
LayerCount: 2
Fore
SplineSet
132 301 m 1,0,-1
 440 141 l 2,1,2
 441 136 441 136 441 132 c 128,-1,3
 441 128 441 128 441 123 c 0,4,5
 441 108 441 108 431 98 c 128,-1,6
 421 88 421 88 404 88 c 0,7,8
 397 88 397 88 388 91.5 c 128,-1,9
 379 95 379 95 369 101 c 2,10,-1
 64 267 l 1,11,12
 54 282 54 282 54 300 c 0,13,14
 54 315 54 315 59 324.5 c 128,-1,15
 64 334 64 334 71 338 c 2,16,-1
 405 509 l 1,17,18
 422 503 422 503 430 493 c 128,-1,19
 438 483 438 483 438 471 c 0,20,21
 438 455 438 455 428 445 c 128,-1,22
 418 435 418 435 402 425 c 2,23,-1
 132 301 l 1,0,-1
EndSplineSet
EndChar

StartChar: equal
Encoding: 61 61 32
Width: 518
Flags: W
LayerCount: 2
Fore
SplineSet
431 363 m 2,0,-1
 58 363 l 1,1,2
 55 369 55 369 53 377 c 128,-1,3
 51 385 51 385 51 394 c 0,4,5
 51 411 51 411 60.5 419.5 c 128,-1,6
 70 428 70 428 86 428 c 2,7,-1
 460 428 l 1,8,9
 462 422 462 422 464 414.5 c 128,-1,10
 466 407 466 407 466 397 c 0,11,12
 466 381 466 381 457 372 c 128,-1,13
 448 363 448 363 431 363 c 2,0,-1
431 161 m 2,14,-1
 58 161 l 1,15,16
 55 167 55 167 53 174.5 c 128,-1,17
 51 182 51 182 51 192 c 0,18,19
 51 209 51 209 60.5 217.5 c 128,-1,20
 70 226 70 226 86 226 c 2,21,-1
 460 226 l 1,22,23
 462 220 462 220 464 212 c 128,-1,24
 466 204 466 204 466 195 c 0,25,26
 466 179 466 179 457 170 c 128,-1,27
 448 161 448 161 431 161 c 2,14,-1
EndSplineSet
EndChar

StartChar: greater
Encoding: 62 62 33
Width: 460
Flags: W
LayerCount: 2
Fore
SplineSet
331 302 m 1,0,-1
 33 459 l 2,1,2
 32 464 32 464 32 468.5 c 128,-1,3
 32 473 32 473 32 477 c 0,4,5
 32 491 32 491 42 501.5 c 128,-1,6
 52 512 52 512 68 512 c 0,7,8
 76 512 76 512 84.5 508.5 c 128,-1,9
 93 505 93 505 103 500 c 2,10,-1
 399 334 l 1,11,12
 409 319 409 319 409 300 c 0,13,14
 409 285 409 285 404.5 276 c 128,-1,15
 400 267 400 267 392 262 c 2,16,-1
 68 92 l 1,17,18
 51 97 51 97 43 107.5 c 128,-1,19
 35 118 35 118 35 130 c 0,20,21
 35 146 35 146 45 156 c 128,-1,22
 55 166 55 166 71 175 c 2,23,-1
 331 302 l 1,0,-1
EndSplineSet
EndChar

StartChar: question
Encoding: 63 63 34
Width: 459
Flags: W
LayerCount: 2
Fore
SplineSet
213 224 m 2,0,-1
 115 200 l 1,1,2
 106 209 106 209 100.5 220 c 128,-1,3
 95 231 95 231 95 244 c 0,4,5
 95 258 95 258 103 267 c 128,-1,6
 111 276 111 276 131 281 c 2,7,-1
 200 299 l 2,8,9
 266 316 266 316 301.5 349.5 c 128,-1,10
 337 383 337 383 337 437 c 0,11,12
 337 485 337 485 302.5 519.5 c 128,-1,13
 268 554 268 554 195 554 c 0,14,15
 155 554 155 554 114.5 541.5 c 128,-1,16
 74 529 74 529 50 509 c 1,17,18
 39 517 39 517 33 528 c 128,-1,19
 27 539 27 539 27 552 c 0,20,21
 27 581 27 581 75 603 c 128,-1,22
 123 625 123 625 198 625 c 0,23,24
 264 625 264 625 314 601 c 128,-1,25
 364 577 364 577 392 535 c 128,-1,26
 420 493 420 493 420 438 c 0,27,28
 420 354 420 354 368.5 302 c 128,-1,29
 317 250 317 250 213 224 c 2,0,-1
104 45 m 256,30,31
 104 69 104 69 119.5 85.5 c 128,-1,32
 135 102 135 102 160 102 c 0,33,34
 186 102 186 102 201.5 85.5 c 128,-1,35
 217 69 217 69 217 45 c 256,36,37
 217 21 217 21 201.5 5 c 128,-1,38
 186 -11 186 -11 160 -11 c 0,39,40
 135 -11 135 -11 119.5 5 c 128,-1,41
 104 21 104 21 104 45 c 256,30,31
EndSplineSet
EndChar

StartChar: at
Encoding: 64 64 35
Width: 1000
Flags: W
LayerCount: 2
Fore
SplineSet
380 200 m 0,0,1
 380 136 380 136 412.5 101 c 128,-1,2
 445 66 445 66 503 66 c 0,3,4
 538 66 538 66 566 81 c 128,-1,5
 594 96 594 96 620 127 c 1,6,-1
 632 53 l 1,7,8
 611 31 611 31 577 15.5 c 128,-1,9
 543 0 543 0 492 0 c 0,10,11
 405 0 405 0 351.5 53 c 128,-1,12
 298 106 298 106 298 200 c 0,13,14
 298 272 298 272 327 323.5 c 128,-1,15
 356 375 356 375 407.5 402 c 128,-1,16
 459 429 459 429 528 429 c 0,17,18
 563 429 563 429 596 421 c 128,-1,19
 629 413 629 413 652 401 c 0,20,21
 693 381 693 381 693 352 c 0,22,23
 693 345 693 345 692.5 337 c 128,-1,24
 692 329 692 329 691 322 c 2,25,-1
 665 60 l 1,26,-1
 586 60 l 1,27,-1
 614 344 l 1,28,29
 598 352 598 352 575 357.5 c 128,-1,30
 552 363 552 363 523 363 c 0,31,32
 459 363 459 363 419.5 320.5 c 128,-1,33
 380 278 380 278 380 200 c 0,0,1
608 37 m 1,34,35
 613 52 613 52 619.5 64.5 c 128,-1,36
 626 77 626 77 633.5 84 c 128,-1,37
 641 91 641 91 650 91 c 1,38,39
 662 81 662 81 680.5 71 c 128,-1,40
 699 61 699 61 726 61 c 0,41,42
 791 61 791 61 824 118.5 c 128,-1,43
 857 176 857 176 857 267 c 0,44,45
 857 362 857 362 815 434 c 128,-1,46
 773 506 773 506 696.5 546.5 c 128,-1,47
 620 587 620 587 516 587 c 0,48,49
 400 587 400 587 314 539 c 128,-1,50
 228 491 228 491 181 405 c 128,-1,51
 134 319 134 319 134 204 c 0,52,53
 134 95 134 95 178 14 c 128,-1,54
 222 -67 222 -67 301.5 -111.5 c 128,-1,55
 381 -156 381 -156 486 -156 c 0,56,57
 524 -156 524 -156 553 -151.5 c 128,-1,58
 582 -147 582 -147 602 -141 c 1,59,60
 608 -147 608 -147 611.5 -155 c 128,-1,61
 615 -163 615 -163 615 -172 c 0,62,63
 615 -187 615 -187 602.5 -198 c 128,-1,64
 590 -209 590 -209 560.5 -215 c 128,-1,65
 531 -221 531 -221 480 -221 c 0,66,67
 404 -221 404 -221 338.5 -202 c 128,-1,68
 273 -183 273 -183 220.5 -146.5 c 128,-1,69
 168 -110 168 -110 131 -58 c 128,-1,70
 94 -6 94 -6 74.5 60 c 128,-1,71
 55 126 55 126 55 204 c 0,72,73
 55 305 55 305 87.5 387.5 c 128,-1,74
 120 470 120 470 180.5 529 c 128,-1,75
 241 588 241 588 325.5 620 c 128,-1,76
 410 652 410 652 515 652 c 0,77,78
 613 652 613 652 691 624.5 c 128,-1,79
 769 597 769 597 823.5 546 c 128,-1,80
 878 495 878 495 907 424 c 128,-1,81
 936 353 936 353 936 266 c 0,82,83
 936 137 936 137 883 66 c 128,-1,84
 830 -5 830 -5 726 -5 c 0,85,86
 695 -5 695 -5 663.5 6 c 128,-1,87
 632 17 632 17 608 37 c 1,34,35
EndSplineSet
EndChar

StartChar: A
Encoding: 65 65 36
Width: 592
Flags: W
LayerCount: 2
Fore
SplineSet
298 545 m 1,0,-1
 294 545 l 1,1,2
 279 503 279 503 258.5 445 c 128,-1,3
 238 387 238 387 216.5 325.5 c 128,-1,4
 195 264 195 264 176 211 c 2,5,-1
 171 196 l 2,6,7
 165 178 165 178 156 151 c 128,-1,8
 147 124 147 124 137 94.5 c 128,-1,9
 127 65 127 65 118 39.5 c 128,-1,10
 109 14 109 14 104 -2 c 1,11,12
 97 -5 97 -5 89.5 -6.5 c 128,-1,13
 82 -8 82 -8 71 -8 c 0,14,15
 55 -8 55 -8 42.5 0.5 c 128,-1,16
 30 9 30 9 30 28 c 0,17,18
 30 37 30 37 33 46.5 c 128,-1,19
 36 56 36 56 40 67 c 0,20,21
 52 101 52 101 69.5 150 c 128,-1,22
 87 199 87 199 108 257 c 128,-1,23
 129 315 129 315 152 376 c 128,-1,24
 175 437 175 437 197 495 c 128,-1,25
 219 553 219 553 238 601 c 1,26,27
 246 605 246 605 262 609 c 128,-1,28
 278 613 278 613 295 613 c 0,29,30
 315 613 315 613 333.5 607 c 128,-1,31
 352 601 352 601 357 587 c 0,32,33
 381 529 381 529 408.5 455.5 c 128,-1,34
 436 382 436 382 464 302.5 c 128,-1,35
 492 223 492 223 517.5 148 c 128,-1,36
 543 73 543 73 563 12 c 1,37,38
 556 3 556 3 544.5 -2.5 c 128,-1,39
 533 -8 533 -8 519 -8 c 0,40,41
 500 -8 500 -8 490 0.5 c 128,-1,42
 480 9 480 9 473 29 c 2,43,-1
 418 192 l 1,44,-1
 410 220 l 2,45,46
 390 281 390 281 368.5 343 c 128,-1,47
 347 405 347 405 328.5 458 c 128,-1,48
 310 511 310 511 298 545 c 1,0,-1
132 162 m 1,49,-1
 158 229 l 1,50,-1
 437 229 l 1,51,-1
 453 162 l 1,52,-1
 132 162 l 1,49,-1
EndSplineSet
Substitution2: "Single Substitution lookup 96 subtable" ordfeminine
EndChar

StartChar: B
Encoding: 66 66 37
Width: 599
Flags: W
LayerCount: 2
Fore
SplineSet
420 349 m 1,0,-1
 420 283 l 1,1,-1
 145 283 l 1,2,-1
 145 349 l 1,3,-1
 420 349 l 1,0,-1
305 283 m 1,4,-1
 337 333 l 1,5,6
 405 333 405 333 450 310.5 c 128,-1,7
 495 288 495 288 517.5 251 c 128,-1,8
 540 214 540 214 540 168 c 0,9,10
 540 77 540 77 474.5 33 c 128,-1,11
 409 -11 409 -11 288 -11 c 0,12,13
 261 -11 261 -11 234 -9.5 c 128,-1,14
 207 -8 207 -8 181 -4 c 128,-1,15
 155 0 155 0 131 6 c 0,16,17
 89 18 89 18 89 52 c 2,18,-1
 89 564 l 2,19,20
 89 580 89 580 97.5 589 c 128,-1,21
 106 598 106 598 122 602 c 0,22,23
 156 612 156 612 194.5 615.5 c 128,-1,24
 233 619 233 619 277 619 c 0,25,26
 390 619 390 619 453 578.5 c 128,-1,27
 516 538 516 538 516 455 c 0,28,29
 516 413 516 413 495.5 377.5 c 128,-1,30
 475 342 475 342 429.5 320.5 c 128,-1,31
 384 299 384 299 308 299 c 1,32,-1
 299 349 l 1,33,34
 365 349 365 349 399 376.5 c 128,-1,35
 433 404 433 404 433 453 c 0,36,37
 433 503 433 503 393.5 527.5 c 128,-1,38
 354 552 354 552 277 552 c 0,39,40
 243 552 243 552 217 549.5 c 128,-1,41
 191 547 191 547 169 543 c 1,42,-1
 169 67 l 1,43,44
 193 62 193 62 224.5 59 c 128,-1,45
 256 56 256 56 288 56 c 0,46,47
 371 56 371 56 414 84 c 128,-1,48
 457 112 457 112 457 170 c 0,49,50
 457 222 457 222 418.5 252.5 c 128,-1,51
 380 283 380 283 305 283 c 1,4,-1
EndSplineSet
EndChar

StartChar: C
Encoding: 67 67 38
Width: 588
Flags: W
LayerCount: 2
Fore
SplineSet
533 541 m 0,0,1
 533 528 533 528 524.5 517.5 c 128,-1,2
 516 507 516 507 505 502 c 1,3,4
 480 520 480 520 444.5 536 c 128,-1,5
 409 552 409 552 353 552 c 0,6,7
 292 552 292 552 243.5 524 c 128,-1,8
 195 496 195 496 166.5 440.5 c 128,-1,9
 138 385 138 385 138 303 c 0,10,11
 138 180 138 180 198.5 118 c 128,-1,12
 259 56 259 56 356 56 c 0,13,14
 408 56 408 56 447 71 c 128,-1,15
 486 86 486 86 511 105 c 1,16,17
 521 101 521 101 530 90.5 c 128,-1,18
 539 80 539 80 539 66 c 0,19,20
 539 56 539 56 533.5 46.5 c 128,-1,21
 528 37 528 37 515 28 c 0,22,23
 492 12 492 12 452 -0.5 c 128,-1,24
 412 -13 412 -13 350 -13 c 0,25,26
 267 -13 267 -13 199.5 22.5 c 128,-1,27
 132 58 132 58 93 128 c 128,-1,28
 54 198 54 198 54 303 c 256,29,30
 54 408 54 408 94.5 479 c 128,-1,31
 135 550 135 550 201.5 585.5 c 128,-1,32
 268 621 268 621 347 621 c 0,33,34
 402 621 402 621 444 609 c 128,-1,35
 486 597 486 597 509.5 578.5 c 128,-1,36
 533 560 533 560 533 541 c 0,0,1
EndSplineSet
EndChar

StartChar: D
Encoding: 68 68 39
Width: 652
Flags: W
LayerCount: 2
Fore
SplineSet
515 311 m 0,0,1
 515 186 515 186 455 121.5 c 128,-1,2
 395 57 395 57 278 57 c 0,3,4
 249 57 249 57 221.5 59 c 128,-1,5
 194 61 194 61 170 67 c 1,6,-1
 170 543 l 1,7,8
 190 547 190 547 214 549 c 128,-1,9
 238 551 238 551 269 551 c 0,10,11
 337 551 337 551 392.5 526.5 c 128,-1,12
 448 502 448 502 481.5 449.5 c 128,-1,13
 515 397 515 397 515 311 c 0,0,1
598 311 m 0,14,15
 598 414 598 414 556.5 482 c 128,-1,16
 515 550 515 550 441.5 584.5 c 128,-1,17
 368 619 368 619 270 619 c 0,18,19
 231 619 231 619 192 616 c 128,-1,20
 153 613 153 613 122 603 c 0,21,22
 106 598 106 598 97.5 589.5 c 128,-1,23
 89 581 89 581 89 565 c 2,24,-1
 89 51 l 2,25,26
 89 18 89 18 131 5 c 0,27,28
 167 -6 167 -6 207.5 -8.5 c 128,-1,29
 248 -11 248 -11 279 -11 c 0,30,31
 376 -11 376 -11 447.5 24 c 128,-1,32
 519 59 519 59 558.5 130.5 c 128,-1,33
 598 202 598 202 598 311 c 0,14,15
EndSplineSet
EndChar

StartChar: E
Encoding: 69 69 40
Width: 531
Flags: W
LayerCount: 2
Fore
SplineSet
89 366 m 1,0,-1
 170 366 l 1,1,-1
 170 8 l 1,2,3
 166 7 166 7 155 3.5 c 128,-1,4
 144 0 144 0 133 0 c 0,5,6
 113 0 113 0 101 12.5 c 128,-1,7
 89 25 89 25 89 44 c 2,8,-1
 89 366 l 1,0,-1
170 248 m 1,9,-1
 89 249 l 1,10,-1
 89 564 l 2,11,12
 89 584 89 584 101 596 c 128,-1,13
 113 608 113 608 133 608 c 0,14,15
 144 608 144 608 155 605 c 128,-1,16
 166 602 166 602 170 600 c 1,17,-1
 170 248 l 1,9,-1
133 278 m 1,18,-1
 133 346 l 1,19,-1
 434 346 l 1,20,21
 437 342 437 342 440 333 c 128,-1,22
 443 324 443 324 443 314 c 0,23,24
 443 298 443 298 435 288 c 128,-1,25
 427 278 427 278 412 278 c 2,26,-1
 133 278 l 1,18,-1
133 0 m 1,27,-1
 133 68 l 1,28,-1
 470 68 l 1,29,30
 473 64 473 64 476 55.5 c 128,-1,31
 479 47 479 47 479 36 c 0,32,33
 479 20 479 20 471 10 c 128,-1,34
 463 0 463 0 448 0 c 2,35,-1
 133 0 l 1,27,-1
133 539 m 1,36,-1
 133 608 l 1,37,-1
 465 608 l 1,38,39
 468 604 468 604 471 595 c 128,-1,40
 474 586 474 586 474 576 c 0,41,42
 474 560 474 560 466 549.5 c 128,-1,43
 458 539 458 539 443 539 c 2,44,-1
 133 539 l 1,36,-1
EndSplineSet
EndChar

StartChar: F
Encoding: 70 70 41
Width: 517
Flags: W
LayerCount: 2
Fore
SplineSet
170 246 m 1,0,-1
 89 247 l 1,1,-1
 89 564 l 2,2,3
 89 584 89 584 101 596 c 128,-1,4
 113 608 113 608 133 608 c 0,5,6
 144 608 144 608 155 605 c 128,-1,7
 166 602 166 602 170 600 c 1,8,-1
 170 246 l 1,0,-1
133 262 m 1,9,-1
 133 331 l 1,10,-1
 430 331 l 1,11,12
 433 326 433 326 436 317.5 c 128,-1,13
 439 309 439 309 439 299 c 0,14,15
 439 283 439 283 431 272.5 c 128,-1,16
 423 262 423 262 408 262 c 2,17,-1
 133 262 l 1,9,-1
133 539 m 1,18,-1
 133 608 l 1,19,-1
 465 608 l 1,20,21
 468 604 468 604 471 595 c 128,-1,22
 474 586 474 586 474 576 c 0,23,24
 474 560 474 560 466 549.5 c 128,-1,25
 458 539 458 539 443 539 c 2,26,-1
 133 539 l 1,18,-1
89 356 m 1,27,-1
 171 356 l 1,28,-1
 171 1 l 1,29,30
 166 0 166 0 155.5 -2.5 c 128,-1,31
 145 -5 145 -5 134 -5 c 0,32,33
 112 -5 112 -5 100.5 4 c 128,-1,34
 89 13 89 13 89 31 c 2,35,-1
 89 356 l 1,27,-1
EndSplineSet
EndChar

StartChar: G
Encoding: 71 71 42
Width: 639
Flags: W
LayerCount: 2
Fore
SplineSet
570 287 m 2,0,-1
 570 70 l 2,1,2
 570 52 570 52 559.5 39.5 c 128,-1,3
 549 27 549 27 528 17 c 0,4,5
 503 4 503 4 459 -4.5 c 128,-1,6
 415 -13 415 -13 370 -13 c 0,7,8
 277 -13 277 -13 205.5 21 c 128,-1,9
 134 55 134 55 94 125 c 128,-1,10
 54 195 54 195 54 303 c 0,11,12
 54 410 54 410 95.5 480.5 c 128,-1,13
 137 551 137 551 206 586 c 128,-1,14
 275 621 275 621 357 621 c 0,15,16
 414 621 414 621 457 609 c 128,-1,17
 500 597 500 597 524 579 c 128,-1,18
 548 561 548 561 548 542 c 0,19,20
 548 529 548 529 540 518.5 c 128,-1,21
 532 508 532 508 521 503 c 1,22,23
 494 521 494 521 457 536.5 c 128,-1,24
 420 552 420 552 362 552 c 0,25,26
 299 552 299 552 248 524 c 128,-1,27
 197 496 197 496 167.5 440.5 c 128,-1,28
 138 385 138 385 138 303 c 0,29,30
 138 217 138 217 168.5 162.5 c 128,-1,31
 199 108 199 108 252 82 c 128,-1,32
 305 56 305 56 371 56 c 0,33,34
 407 56 407 56 439 62 c 128,-1,35
 471 68 471 68 489 77 c 1,36,-1
 489 261 l 1,37,-1
 338 261 l 1,38,39
 335 266 335 266 332 274.5 c 128,-1,40
 329 283 329 283 329 293 c 0,41,42
 329 310 329 310 337 319.5 c 128,-1,43
 345 329 345 329 360 329 c 2,44,-1
 527 329 l 2,45,46
 545 329 545 329 557.5 317.5 c 128,-1,47
 570 306 570 306 570 287 c 2,0,-1
EndSplineSet
EndChar

StartChar: H
Encoding: 72 72 43
Width: 654
Flags: W
LayerCount: 2
Fore
SplineSet
89 362 m 1,0,-1
 171 362 l 1,1,-1
 171 2 l 1,2,3
 165 0 165 0 155 -2.5 c 128,-1,4
 145 -5 145 -5 133 -5 c 0,5,6
 111 -5 111 -5 100 4 c 128,-1,7
 89 13 89 13 89 32 c 2,8,-1
 89 362 l 1,0,-1
171 295 m 1,9,-1
 89 295 l 1,10,-1
 89 606 l 1,11,12
 94 608 94 608 104.5 610.5 c 128,-1,13
 115 613 115 613 127 613 c 0,14,15
 149 613 149 613 160 604.5 c 128,-1,16
 171 596 171 596 171 576 c 2,17,-1
 171 295 l 1,9,-1
483 362 m 1,18,-1
 565 362 l 1,19,-1
 565 2 l 1,20,21
 559 0 559 0 549 -2.5 c 128,-1,22
 539 -5 539 -5 527 -5 c 0,23,24
 505 -5 505 -5 494 4 c 128,-1,25
 483 13 483 13 483 32 c 2,26,-1
 483 362 l 1,18,-1
565 295 m 1,27,-1
 483 295 l 1,28,-1
 483 606 l 1,29,30
 488 608 488 608 498.5 610.5 c 128,-1,31
 509 613 509 613 521 613 c 0,32,33
 543 613 543 613 554 604.5 c 128,-1,34
 565 596 565 596 565 576 c 2,35,-1
 565 295 l 1,27,-1
526 274 m 1,36,-1
 138 274 l 1,37,-1
 138 342 l 1,38,-1
 526 342 l 1,39,-1
 526 274 l 1,36,-1
EndSplineSet
EndChar

StartChar: I
Encoding: 73 73 44
Width: 262
Flags: W
LayerCount: 2
Fore
SplineSet
90 363 m 1,0,-1
 171 363 l 1,1,-1
 171 2 l 1,2,3
 166 0 166 0 156 -2.5 c 128,-1,4
 146 -5 146 -5 134 -5 c 0,5,6
 112 -5 112 -5 101 4 c 128,-1,7
 90 13 90 13 90 32 c 2,8,-1
 90 363 l 1,0,-1
171 296 m 1,9,-1
 90 296 l 1,10,-1
 90 606 l 1,11,12
 95 608 95 608 105.5 610.5 c 128,-1,13
 116 613 116 613 128 613 c 0,14,15
 150 613 150 613 160.5 604.5 c 128,-1,16
 171 596 171 596 171 576 c 2,17,-1
 171 296 l 1,9,-1
EndSplineSet
EndChar

StartChar: J
Encoding: 74 74 45
Width: 385
Flags: W
LayerCount: 2
Fore
SplineSet
215 289 m 1,0,-1
 296 289 l 1,1,-1
 296 148 l 2,2,3
 296 88 296 88 273.5 53 c 128,-1,4
 251 18 251 18 214 3.5 c 128,-1,5
 177 -11 177 -11 134 -11 c 0,6,7
 78 -11 78 -11 51.5 2.5 c 128,-1,8
 25 16 25 16 25 38 c 0,9,10
 25 52 25 52 31 62 c 128,-1,11
 37 72 37 72 42 77 c 1,12,13
 57 70 57 70 78.5 64 c 128,-1,14
 100 58 100 58 122 58 c 0,15,16
 167 58 167 58 191 80 c 128,-1,17
 215 102 215 102 215 152 c 2,18,-1
 215 289 l 1,0,-1
296 265 m 1,19,-1
 215 265 l 1,20,-1
 215 606 l 1,21,22
 220 608 220 608 230.5 610.5 c 128,-1,23
 241 613 241 613 252 613 c 0,24,25
 274 613 274 613 285 604.5 c 128,-1,26
 296 596 296 596 296 576 c 2,27,-1
 296 265 l 1,19,-1
EndSplineSet
EndChar

StartChar: K
Encoding: 75 75 46
Width: 566
Flags: W
LayerCount: 2
Fore
SplineSet
152 310 m 1,0,-1
 215 350 l 1,1,2
 321 248 321 248 397.5 168 c 128,-1,3
 474 88 474 88 527 40 c 1,4,5
 526 18 526 18 514 5.5 c 128,-1,6
 502 -7 502 -7 484 -7 c 0,7,8
 467 -7 467 -7 453.5 3 c 128,-1,9
 440 13 440 13 426 26 c 2,10,-1
 152 310 l 1,0,-1
226 282 m 1,11,-1
 145 300 l 1,12,-1
 446 612 l 1,13,14
 472 611 472 611 485 599 c 128,-1,15
 498 587 498 587 498 571 c 0,16,17
 498 558 498 558 491.5 546.5 c 128,-1,18
 485 535 485 535 471 523 c 2,19,-1
 226 282 l 1,11,-1
89 367 m 1,20,-1
 171 367 l 1,21,-1
 171 1 l 1,22,23
 165 -1 165 -1 155 -3.5 c 128,-1,24
 145 -6 145 -6 133 -6 c 0,25,26
 111 -6 111 -6 100 3 c 128,-1,27
 89 12 89 12 89 31 c 2,28,-1
 89 367 l 1,20,-1
171 300 m 1,29,-1
 89 300 l 1,30,-1
 89 606 l 1,31,32
 94 608 94 608 104.5 610.5 c 128,-1,33
 115 613 115 613 127 613 c 0,34,35
 149 613 149 613 160 604.5 c 128,-1,36
 171 596 171 596 171 576 c 2,37,-1
 171 300 l 1,29,-1
EndSplineSet
EndChar

StartChar: L
Encoding: 76 76 47
Width: 501
Flags: W
LayerCount: 2
Fore
SplineSet
89 355 m 1,0,-1
 171 355 l 1,1,-1
 171 8 l 1,2,-1
 133 0 l 2,3,4
 114 0 114 0 101.5 12.5 c 128,-1,5
 89 25 89 25 89 44 c 2,6,-1
 89 355 l 1,0,-1
133 0 m 1,7,-1
 133 70 l 1,8,-1
 458 70 l 1,9,10
 463 66 463 66 466 57 c 128,-1,11
 469 48 469 48 469 37 c 0,12,13
 469 20 469 20 460 10 c 128,-1,14
 451 0 451 0 436 0 c 2,15,-1
 133 0 l 1,7,-1
171 295 m 1,16,-1
 89 295 l 1,17,-1
 89 606 l 1,18,19
 94 608 94 608 104.5 610.5 c 128,-1,20
 115 613 115 613 127 613 c 0,21,22
 149 613 149 613 160 604.5 c 128,-1,23
 171 596 171 596 171 576 c 2,24,-1
 171 295 l 1,16,-1
EndSplineSet
EndChar

StartChar: M
Encoding: 77 77 48
Width: 780
Flags: W
LayerCount: 2
Fore
SplineSet
435 158 m 1,0,1
 428 153 428 153 416.5 149 c 128,-1,2
 405 145 405 145 391 145 c 0,3,4
 375 145 375 145 362.5 150 c 128,-1,5
 350 155 350 155 345 166 c 0,6,7
 292 278 292 278 252.5 371 c 128,-1,8
 213 464 213 464 189 525 c 1,9,-1
 185 525 l 1,10,11
 182 450 182 450 178.5 385 c 128,-1,12
 175 320 175 320 171 259.5 c 128,-1,13
 167 199 167 199 163.5 135.5 c 128,-1,14
 160 72 160 72 155 0 c 1,15,16
 149 -2 149 -2 139.5 -4 c 128,-1,17
 130 -6 130 -6 119 -6 c 0,18,19
 97 -6 97 -6 88 3.5 c 128,-1,20
 79 13 79 13 79 29 c 0,21,22
 79 41 79 41 81.5 84.5 c 128,-1,23
 84 128 84 128 87.5 191 c 128,-1,24
 91 254 91 254 96 325.5 c 128,-1,25
 101 397 101 397 106.5 466.5 c 128,-1,26
 112 536 112 536 117 592 c 1,27,28
 125 599 125 599 140 605 c 128,-1,29
 155 611 155 611 174 611 c 0,30,31
 197 611 197 611 213 602 c 128,-1,32
 229 593 229 593 238 574 c 0,33,34
 264 523 264 523 290 463 c 128,-1,35
 316 403 316 403 341 343 c 128,-1,36
 366 283 366 283 389 230 c 1,37,-1
 393 230 l 1,38,39
 437 336 437 336 480.5 434 c 128,-1,40
 524 532 524 532 554 601 c 1,41,42
 563 606 563 606 577 608.5 c 128,-1,43
 591 611 591 611 603 611 c 0,44,45
 626 611 626 611 639.5 603.5 c 128,-1,46
 653 596 653 596 657 579 c 256,47,48
 661 562 661 562 666 521 c 128,-1,49
 671 480 671 480 676 424.5 c 128,-1,50
 681 369 681 369 685.5 308 c 128,-1,51
 690 247 690 247 694 188 c 128,-1,52
 698 129 698 129 701.5 81.5 c 128,-1,53
 705 34 705 34 706 6 c 1,54,55
 697 0 697 0 687 -3 c 128,-1,56
 677 -6 677 -6 664 -6 c 0,57,58
 649 -6 649 -6 637.5 1.5 c 128,-1,59
 626 9 626 9 624 29 c 0,60,61
 618 126 618 126 612.5 220.5 c 128,-1,62
 607 315 607 315 603 394 c 128,-1,63
 599 473 599 473 596 523 c 1,64,-1
 592 523 l 1,65,66
 570 468 570 468 532 381.5 c 128,-1,67
 494 295 494 295 435 158 c 1,0,1
EndSplineSet
EndChar

StartChar: N
Encoding: 78 78 49
Width: 660
Flags: W
LayerCount: 2
Fore
SplineSet
89 539 m 1,0,-1
 157 545 l 1,1,2
 161 514 161 514 164 472 c 128,-1,3
 167 430 167 430 168.5 385.5 c 128,-1,4
 170 341 170 341 170 301 c 2,5,-1
 170 2 l 1,6,7
 165 0 165 0 154.5 -2.5 c 128,-1,8
 144 -5 144 -5 133 -5 c 0,9,10
 111 -5 111 -5 100 3.5 c 128,-1,11
 89 12 89 12 89 31 c 2,12,-1
 89 539 l 1,0,-1
571 69 m 1,13,-1
 502 63 l 1,14,15
 492 147 492 147 490.5 234.5 c 128,-1,16
 489 322 489 322 489 404 c 2,17,-1
 489 606 l 1,18,19
 495 608 495 608 505 610.5 c 128,-1,20
 515 613 515 613 527 613 c 0,21,22
 549 613 549 613 560 604.5 c 128,-1,23
 571 596 571 596 571 577 c 2,24,-1
 571 69 l 1,13,-1
571 99 m 1,25,-1
 571 103 l 1,26,-1
 571 11 l 1,27,28
 562 4 562 4 548 -1 c 128,-1,29
 534 -6 534 -6 517 -6 c 0,30,31
 493 -6 493 -6 476 3.5 c 128,-1,32
 459 13 459 13 445 38 c 2,33,-1
 255 358 l 2,34,35
 240 385 240 385 222 417.5 c 128,-1,36
 204 450 204 450 188 479.5 c 128,-1,37
 172 509 172 509 163 528 c 1,38,-1
 89 509 l 1,39,-1
 89 596 l 1,40,41
 97 604 97 604 111.5 609 c 128,-1,42
 126 614 126 614 143 614 c 0,43,44
 167 614 167 614 184 604.5 c 128,-1,45
 201 595 201 595 215 570 c 2,46,-1
 406 250 l 2,47,48
 422 223 422 223 439.5 190.5 c 128,-1,49
 457 158 457 158 472 128.5 c 128,-1,50
 487 99 487 99 496 80 c 1,51,-1
 571 99 l 1,25,-1
EndSplineSet
EndChar

StartChar: O
Encoding: 79 79 50
Width: 689
Flags: W
LayerCount: 2
Fore
SplineSet
634 304 m 256,0,1
 634 200 634 200 596 129.5 c 128,-1,2
 558 59 558 59 492.5 23 c 128,-1,3
 427 -13 427 -13 344 -13 c 0,4,5
 262 -13 262 -13 196 23 c 128,-1,6
 130 59 130 59 92 129.5 c 128,-1,7
 54 200 54 200 54 304 c 256,8,9
 54 408 54 408 93 478.5 c 128,-1,10
 132 549 132 549 197.5 585 c 128,-1,11
 263 621 263 621 344 621 c 0,12,13
 426 621 426 621 491.5 585 c 128,-1,14
 557 549 557 549 595.5 478.5 c 128,-1,15
 634 408 634 408 634 304 c 256,0,1
551 304 m 256,16,17
 551 423 551 423 494.5 487.5 c 128,-1,18
 438 552 438 552 344 552 c 0,19,20
 251 552 251 552 194.5 487.5 c 128,-1,21
 138 423 138 423 138 304 c 256,22,23
 138 185 138 185 194 120.5 c 128,-1,24
 250 56 250 56 344 56 c 0,25,26
 439 56 439 56 495 120.5 c 128,-1,27
 551 185 551 185 551 304 c 256,16,17
EndSplineSet
Substitution2: "Single Substitution lookup 96 subtable" ordmasculine
EndChar

StartChar: P
Encoding: 80 80 51
Width: 567
Flags: W
LayerCount: 2
Fore
SplineSet
89 217 m 1,0,-1
 89 564 l 2,1,2
 89 580 89 580 97.5 588.5 c 128,-1,3
 106 597 106 597 122 602 c 0,4,5
 151 611 151 611 192.5 615 c 128,-1,6
 234 619 234 619 273 619 c 0,7,8
 400 619 400 619 458.5 565.5 c 128,-1,9
 517 512 517 512 517 421 c 0,10,11
 517 359 517 359 490.5 313 c 128,-1,12
 464 267 464 267 410 242 c 128,-1,13
 356 217 356 217 272 217 c 2,14,-1
 89 217 l 1,0,-1
133 -5 m 0,15,16
 111 -5 111 -5 100 4 c 128,-1,17
 89 13 89 13 89 32 c 2,18,-1
 89 256 l 1,19,-1
 171 256 l 1,20,-1
 171 2 l 1,21,22
 165 0 165 0 155 -2.5 c 128,-1,23
 145 -5 145 -5 133 -5 c 0,15,16
170 285 m 1,24,-1
 267 285 l 2,25,26
 347 285 347 285 391 318.5 c 128,-1,27
 435 352 435 352 435 420 c 256,28,29
 435 488 435 488 392.5 519.5 c 128,-1,30
 350 551 350 551 271 551 c 0,31,32
 244 551 244 551 217.5 548.5 c 128,-1,33
 191 546 191 546 170 542 c 1,34,-1
 170 285 l 1,24,-1
EndSplineSet
EndChar

StartChar: Q
Encoding: 81 81 52
Width: 690
Flags: W
LayerCount: 2
Fore
SplineSet
330 0 m 1,0,-1
 407 24 l 1,1,2
 470 -12 470 -12 512 -33 c 128,-1,3
 554 -54 554 -54 587.5 -68 c 128,-1,4
 621 -82 621 -82 658 -96 c 1,5,6
 660 -103 660 -103 660 -107.5 c 128,-1,7
 660 -112 660 -112 660 -116 c 0,8,9
 660 -135 660 -135 648.5 -146.5 c 128,-1,10
 637 -158 637 -158 616 -158 c 0,11,12
 584 -158 584 -158 532 -130.5 c 128,-1,13
 480 -103 480 -103 415 -58 c 2,14,-1
 330 0 l 1,0,-1
634 304 m 256,15,16
 634 200 634 200 596 129.5 c 128,-1,17
 558 59 558 59 492.5 23 c 128,-1,18
 427 -13 427 -13 344 -13 c 0,19,20
 262 -13 262 -13 196 23 c 128,-1,21
 130 59 130 59 92 129.5 c 128,-1,22
 54 200 54 200 54 304 c 256,23,24
 54 408 54 408 93 478.5 c 128,-1,25
 132 549 132 549 197.5 585 c 128,-1,26
 263 621 263 621 344 621 c 0,27,28
 426 621 426 621 491.5 585 c 128,-1,29
 557 549 557 549 595.5 478.5 c 128,-1,30
 634 408 634 408 634 304 c 256,15,16
551 304 m 256,31,32
 551 423 551 423 494.5 487.5 c 128,-1,33
 438 552 438 552 344 552 c 0,34,35
 251 552 251 552 194.5 487.5 c 128,-1,36
 138 423 138 423 138 304 c 256,37,38
 138 185 138 185 194 120.5 c 128,-1,39
 250 56 250 56 344 56 c 0,40,41
 439 56 439 56 495 120.5 c 128,-1,42
 551 185 551 185 551 304 c 256,31,32
EndSplineSet
EndChar

StartChar: R
Encoding: 82 82 53
Width: 589
Flags: W
LayerCount: 2
Fore
SplineSet
170 298 m 1,0,-1
 285 298 l 2,1,2
 359 298 359 298 401 330 c 128,-1,3
 443 362 443 362 443 425 c 0,4,5
 443 487 443 487 399 519 c 128,-1,6
 355 551 355 551 273 551 c 0,7,8
 246 551 246 551 218.5 548.5 c 128,-1,9
 191 546 191 546 170 542 c 1,10,-1
 170 298 l 1,0,-1
285 230 m 2,11,-1
 89 230 l 1,12,-1
 89 564 l 2,13,14
 89 580 89 580 97.5 588.5 c 128,-1,15
 106 597 106 597 122 602 c 0,16,17
 151 611 151 611 193.5 615 c 128,-1,18
 236 619 236 619 276 619 c 0,19,20
 401 619 401 619 463 568 c 128,-1,21
 525 517 525 517 525 425 c 0,22,23
 525 366 525 366 498 322 c 128,-1,24
 471 278 471 278 418 254 c 128,-1,25
 365 230 365 230 285 230 c 2,11,-1
287 256 m 1,26,-1
 347 286 l 1,27,28
 375 251 375 251 405 213 c 128,-1,29
 435 175 435 175 463 139 c 128,-1,30
 491 103 491 103 513 74.5 c 128,-1,31
 535 46 535 46 547 30 c 1,32,33
 543 13 543 13 529.5 3 c 128,-1,34
 516 -7 516 -7 502 -7 c 0,35,36
 485 -7 485 -7 474 1.5 c 128,-1,37
 463 10 463 10 451 26 c 2,38,-1
 287 256 l 1,26,-1
89 252 m 1,39,-1
 171 252 l 1,40,-1
 171 2 l 1,41,42
 165 0 165 0 155 -2.5 c 128,-1,43
 145 -5 145 -5 133 -5 c 0,44,45
 111 -5 111 -5 100 4 c 128,-1,46
 89 13 89 13 89 32 c 2,47,-1
 89 252 l 1,39,-1
EndSplineSet
EndChar

StartChar: S
Encoding: 83 83 54
Width: 523
Flags: W
LayerCount: 2
Fore
SplineSet
257 55 m 0,0,1
 324 55 324 55 358.5 85.5 c 128,-1,2
 393 116 393 116 393 164 c 0,3,4
 393 205 393 205 366.5 232 c 128,-1,5
 340 259 340 259 283 275 c 2,6,-1
 196 301 l 2,7,8
 154 314 154 314 123 334.5 c 128,-1,9
 92 355 92 355 75.5 385.5 c 128,-1,10
 59 416 59 416 59 457 c 0,11,12
 59 534 59 534 115 577.5 c 128,-1,13
 171 621 171 621 264 621 c 0,14,15
 318 621 318 621 360.5 609.5 c 128,-1,16
 403 598 403 598 427.5 580 c 128,-1,17
 452 562 452 562 452 542 c 0,18,19
 452 529 452 529 445 518.5 c 128,-1,20
 438 508 438 508 427 502 c 1,21,22
 402 522 402 522 359.5 537 c 128,-1,23
 317 552 317 552 267 552 c 0,24,25
 209 552 209 552 175 526.5 c 128,-1,26
 141 501 141 501 141 457 c 0,27,28
 141 422 141 422 165.5 400 c 128,-1,29
 190 378 190 378 245 362 c 2,30,-1
 306 344 l 2,31,32
 385 322 385 322 430.5 280 c 128,-1,33
 476 238 476 238 476 164 c 0,34,35
 476 85 476 85 418.5 36 c 128,-1,36
 361 -13 361 -13 257 -13 c 0,37,38
 196 -13 196 -13 150.5 0.5 c 128,-1,39
 105 14 105 14 79.5 34.5 c 128,-1,40
 54 55 54 55 54 75 c 0,41,42
 54 92 54 92 64.5 103.5 c 128,-1,43
 75 115 75 115 89 120 c 1,44,45
 112 98 112 98 154 76.5 c 128,-1,46
 196 55 196 55 257 55 c 0,0,1
EndSplineSet
EndChar

StartChar: T
Encoding: 84 84 55
Width: 523
Flags: W
LayerCount: 2
Fore
SplineSet
261 539 m 1,0,-1
 256 608 l 1,1,-1
 489 608 l 1,2,3
 492 604 492 604 495 595 c 128,-1,4
 498 586 498 586 498 576 c 0,5,6
 498 560 498 560 490 549.5 c 128,-1,7
 482 539 482 539 467 539 c 2,8,-1
 261 539 l 1,0,-1
263 608 m 1,9,-1
 268 539 l 1,10,-1
 34 539 l 1,11,12
 31 544 31 544 28 553 c 128,-1,13
 25 562 25 562 25 572 c 0,14,15
 25 589 25 589 33 598.5 c 128,-1,16
 41 608 41 608 56 608 c 2,17,-1
 263 608 l 1,9,-1
221 566 m 1,18,-1
 302 566 l 1,19,-1
 302 2 l 1,20,21
 297 0 297 0 286.5 -2.5 c 128,-1,22
 276 -5 276 -5 265 -5 c 0,23,24
 243 -5 243 -5 232 4 c 128,-1,25
 221 13 221 13 221 32 c 2,26,-1
 221 566 l 1,18,-1
EndSplineSet
EndChar

StartChar: U
Encoding: 85 85 56
Width: 649
Flags: W
LayerCount: 2
Fore
SplineSet
324 -13 m 0,0,1
 249 -13 249 -13 196 14.5 c 128,-1,2
 143 42 143 42 115.5 92.5 c 128,-1,3
 88 143 88 143 88 210 c 2,4,-1
 88 292 l 1,5,-1
 169 292 l 1,6,-1
 169 217 l 2,7,8
 169 137 169 137 213.5 96.5 c 128,-1,9
 258 56 258 56 324 56 c 256,10,11
 390 56 390 56 434.5 96.5 c 128,-1,12
 479 137 479 137 479 217 c 2,13,-1
 479 292 l 1,14,-1
 561 292 l 1,15,-1
 561 210 l 2,16,17
 561 143 561 143 533.5 92.5 c 128,-1,18
 506 42 506 42 453 14.5 c 128,-1,19
 400 -13 400 -13 324 -13 c 0,0,1
169 251 m 1,20,-1
 88 251 l 1,21,-1
 88 606 l 1,22,23
 93 608 93 608 103.5 610.5 c 128,-1,24
 114 613 114 613 126 613 c 0,25,26
 148 613 148 613 158.5 604.5 c 128,-1,27
 169 596 169 596 169 576 c 2,28,-1
 169 251 l 1,20,-1
561 251 m 1,29,-1
 479 251 l 1,30,-1
 479 606 l 1,31,32
 484 608 484 608 494.5 610.5 c 128,-1,33
 505 613 505 613 517 613 c 0,34,35
 539 613 539 613 550 604.5 c 128,-1,36
 561 596 561 596 561 576 c 2,37,-1
 561 251 l 1,29,-1
EndSplineSet
EndChar

StartChar: V
Encoding: 86 86 57
Width: 583
Flags: W
LayerCount: 2
Fore
SplineSet
347 8 m 0,0,1
 342 4 342 4 328 -0.5 c 128,-1,2
 314 -5 314 -5 297 -5 c 0,3,4
 278 -5 278 -5 263 0.5 c 128,-1,5
 248 6 248 6 243 17 c 0,6,7
 227 48 227 48 205.5 100 c 128,-1,8
 184 152 184 152 159.5 216.5 c 128,-1,9
 135 281 135 281 111 348.5 c 128,-1,10
 87 416 87 416 66.5 479.5 c 128,-1,11
 46 543 46 543 31 592 c 1,12,13
 37 600 37 600 49 607 c 128,-1,14
 61 614 61 614 76 614 c 0,15,16
 95 614 95 614 104 605 c 128,-1,17
 113 596 113 596 119 578 c 0,18,19
 163 448 163 448 204.5 325 c 128,-1,20
 246 202 246 202 295 77 c 1,21,-1
 299 77 l 1,22,23
 328 153 328 153 359.5 241.5 c 128,-1,24
 391 330 391 330 420.5 424 c 128,-1,25
 450 518 450 518 473 607 c 1,26,27
 480 611 480 611 488.5 612.5 c 128,-1,28
 497 614 497 614 507 614 c 0,29,30
 525 614 525 614 536 605 c 128,-1,31
 547 596 547 596 547 578 c 0,32,33
 547 563 547 563 536 522 c 128,-1,34
 525 481 525 481 506.5 425 c 128,-1,35
 488 369 488 369 466 307 c 128,-1,36
 444 245 444 245 421 185.5 c 128,-1,37
 398 126 398 126 379 79.5 c 128,-1,38
 360 33 360 33 347 8 c 0,0,1
EndSplineSet
EndChar

StartChar: W
Encoding: 87 87 58
Width: 803
Flags: W
LayerCount: 2
Fore
SplineSet
359 457 m 1,0,1
 367 461 367 461 379 464 c 128,-1,2
 391 467 391 467 404 467 c 0,3,4
 424 467 424 467 437.5 460.5 c 128,-1,5
 451 454 451 454 455 441 c 0,6,7
 480 369 480 369 500.5 307.5 c 128,-1,8
 521 246 521 246 539.5 188.5 c 128,-1,9
 558 131 558 131 577 70 c 1,10,-1
 581 70 l 1,11,12
 600 160 600 160 618 245.5 c 128,-1,13
 636 331 636 331 653 419 c 128,-1,14
 670 507 670 507 684 607 c 1,15,16
 698 614 698 614 718 614 c 0,17,18
 737 614 737 614 748 605.5 c 128,-1,19
 759 597 759 597 759 580 c 0,20,21
 759 561 759 561 753.5 522.5 c 128,-1,22
 748 484 748 484 738.5 432.5 c 128,-1,23
 729 381 729 381 716.5 323.5 c 128,-1,24
 704 266 704 266 690 208.5 c 128,-1,25
 676 151 676 151 662 100 c 128,-1,26
 648 49 648 49 635 11 c 1,27,28
 626 6 626 6 612 1.5 c 128,-1,29
 598 -3 598 -3 580 -3 c 0,30,31
 558 -3 558 -3 543 4 c 128,-1,32
 528 11 528 11 523 23 c 0,33,34
 509 58 509 58 489 115.5 c 128,-1,35
 469 173 469 173 447.5 241.5 c 128,-1,36
 426 310 426 310 406 377 c 1,37,38
 387 311 387 311 365 240 c 128,-1,39
 343 169 343 169 322.5 108 c 128,-1,40
 302 47 302 47 286 10 c 1,41,42
 279 6 279 6 264.5 1.5 c 128,-1,43
 250 -3 250 -3 232 -3 c 0,44,45
 210 -3 210 -3 195.5 4.5 c 128,-1,46
 181 12 181 12 176 23 c 0,47,48
 166 48 166 48 151.5 98 c 128,-1,49
 137 148 137 148 121 212.5 c 128,-1,50
 105 277 105 277 89.5 346.5 c 128,-1,51
 74 416 74 416 60.5 480.5 c 128,-1,52
 47 545 47 545 39 595 c 1,53,54
 46 602 46 602 58 608 c 128,-1,55
 70 614 70 614 84 614 c 0,56,57
 102 614 102 614 112 605.5 c 128,-1,58
 122 597 122 597 126 577 c 0,59,60
 139 514 139 514 151 455 c 128,-1,61
 163 396 163 396 175.5 336 c 128,-1,62
 188 276 188 276 202 210.5 c 128,-1,63
 216 145 216 145 233 70 c 1,64,-1
 237 70 l 1,65,66
 251 115 251 115 264 156 c 128,-1,67
 277 197 277 197 291 240.5 c 128,-1,68
 305 284 305 284 321.5 336 c 128,-1,69
 338 388 338 388 359 457 c 1,0,1
EndSplineSet
EndChar

StartChar: X
Encoding: 88 88 59
Width: 591
Flags: W
LayerCount: 2
Fore
SplineSet
268 289 m 1,0,-1
 254 295 l 1,1,-1
 49 574 l 1,2,3
 54 591 54 591 66 602.5 c 128,-1,4
 78 614 78 614 97 614 c 0,5,6
 113 614 113 614 124 604.5 c 128,-1,7
 135 595 135 595 147 578 c 2,8,-1
 311 343 l 1,9,-1
 334 323 l 1,10,-1
 544 32 l 1,11,12
 540 15 540 15 528.5 4 c 128,-1,13
 517 -7 517 -7 498 -7 c 0,14,15
 482 -7 482 -7 471.5 1 c 128,-1,16
 461 9 461 9 449 27 c 2,17,-1
 268 289 l 1,0,-1
336 301 m 1,18,-1
 314 281 l 1,19,-1
 109 -5 l 2,20,21
 105 -6 105 -6 99.5 -6.5 c 128,-1,22
 94 -7 94 -7 89 -7 c 0,23,24
 69 -7 69 -7 57 3 c 128,-1,25
 45 13 45 13 45 29 c 0,26,27
 45 42 45 42 51.5 53.5 c 128,-1,28
 58 65 58 65 68 78 c 2,29,-1
 255 323 l 1,30,-1
 282 348 l 1,31,-1
 472 611 l 2,32,33
 477 612 477 612 482 612.5 c 128,-1,34
 487 613 487 613 493 613 c 0,35,36
 514 613 514 613 524.5 603 c 128,-1,37
 535 593 535 593 535 578 c 0,38,39
 535 568 535 568 529.5 557 c 128,-1,40
 524 546 524 546 516 535 c 0,41,42
 473 477 473 477 428 418.5 c 128,-1,43
 383 360 383 360 336 301 c 1,18,-1
EndSplineSet
EndChar

StartChar: Y
Encoding: 89 89 60
Width: 550
Flags: W
LayerCount: 2
Fore
SplineSet
314 218 m 1,0,-1
 243 218 l 1,1,2
 215 260 215 260 184.5 306.5 c 128,-1,3
 154 353 154 353 124.5 401 c 128,-1,4
 95 449 95 449 68.5 495.5 c 128,-1,5
 42 542 42 542 21 582 c 1,6,7
 25 593 25 593 36 603.5 c 128,-1,8
 47 614 47 614 65 614 c 0,9,10
 84 614 84 614 94.5 604 c 128,-1,11
 105 594 105 594 116 574 c 0,12,13
 129 551 129 551 145.5 522.5 c 128,-1,14
 162 494 162 494 180 462.5 c 128,-1,15
 198 431 198 431 216 400 c 128,-1,16
 234 369 234 369 249.5 342 c 128,-1,17
 265 315 265 315 277 295 c 1,18,-1
 281 295 l 1,19,20
 316 353 316 353 345 405 c 128,-1,21
 374 457 374 457 401 507 c 128,-1,22
 428 557 428 557 454 607 c 0,23,24
 460 611 460 611 469 612.5 c 128,-1,25
 478 614 478 614 485 614 c 0,26,27
 504 614 504 614 513.5 605 c 128,-1,28
 523 596 523 596 523 580 c 0,29,30
 523 570 523 570 507.5 537.5 c 128,-1,31
 492 505 492 505 464 456.5 c 128,-1,32
 436 408 436 408 398 347 c 128,-1,33
 360 286 360 286 314 218 c 1,0,-1
238 257 m 1,34,-1
 319 257 l 1,35,-1
 319 2 l 1,36,37
 314 0 314 0 303.5 -2.5 c 128,-1,38
 293 -5 293 -5 282 -5 c 0,39,40
 260 -5 260 -5 249 4 c 128,-1,41
 238 13 238 13 238 32 c 2,42,-1
 238 257 l 1,34,-1
EndSplineSet
EndChar

StartChar: Z
Encoding: 90 90 61
Width: 557
Flags: W
LayerCount: 2
Fore
SplineSet
71 88 m 2,0,-1
 451 608 l 1,1,-1
 483 608 l 1,2,3
 502 592 502 592 502 570 c 0,4,5
 502 556 502 556 496.5 545 c 128,-1,6
 491 534 491 534 481 520 c 2,7,-1
 102 0 l 1,8,-1
 69 0 l 1,9,10
 61 7 61 7 55.5 17 c 128,-1,11
 50 27 50 27 50 38 c 0,12,13
 50 52 50 52 55.5 63.5 c 128,-1,14
 61 75 61 75 71 88 c 2,0,-1
90 0 m 1,15,-1
 93 69 l 1,16,-1
 499 69 l 1,17,18
 503 64 503 64 506 55.5 c 128,-1,19
 509 47 509 47 509 36 c 0,20,21
 509 20 509 20 500.5 10 c 128,-1,22
 492 0 492 0 478 0 c 2,23,-1
 90 0 l 1,15,-1
464 608 m 1,24,-1
 462 539 l 1,25,-1
 67 539 l 1,26,27
 64 544 64 544 60.5 553 c 128,-1,28
 57 562 57 562 57 572 c 0,29,30
 57 589 57 589 65.5 598.5 c 128,-1,31
 74 608 74 608 89 608 c 2,32,-1
 464 608 l 1,24,-1
EndSplineSet
EndChar

StartChar: bracketleft
Encoding: 91 91 62
Width: 268
Flags: W
LayerCount: 2
Fore
SplineSet
69 -60 m 1,0,-1
 69 597 l 1,1,-1
 142 597 l 1,2,-1
 142 -60 l 1,3,-1
 69 -60 l 1,0,-1
69 -46 m 1,4,-1
 252 -46 l 1,5,6
 254 -53 254 -53 256 -60 c 128,-1,7
 258 -67 258 -67 258 -77 c 0,8,9
 258 -93 258 -93 249.5 -101.5 c 128,-1,10
 241 -110 241 -110 224 -110 c 2,11,-1
 110 -110 l 2,12,13
 90 -110 90 -110 79.5 -99 c 128,-1,14
 69 -88 69 -88 69 -69 c 2,15,-1
 69 -46 l 1,4,-1
110 651 m 2,16,-1
 252 651 l 1,17,18
 254 645 254 645 256 638 c 128,-1,19
 258 631 258 631 258 621 c 0,20,21
 258 605 258 605 249.5 596.5 c 128,-1,22
 241 588 241 588 224 588 c 2,23,-1
 69 588 l 1,24,-1
 69 611 l 2,25,26
 69 630 69 630 79.5 640.5 c 128,-1,27
 90 651 90 651 110 651 c 2,16,-1
EndSplineSet
EndChar

StartChar: backslash
Encoding: 92 92 63
Width: 341
Flags: W
LayerCount: 2
Fore
SplineSet
110 639 m 2,0,-1
 300 -46 l 1,1,2
 293 -53 293 -53 281 -58.5 c 128,-1,3
 269 -64 269 -64 258 -64 c 0,4,5
 245 -64 245 -64 236 -58 c 128,-1,6
 227 -52 227 -52 223 -38 c 2,7,-1
 33 647 l 1,8,9
 41 655 41 655 52.5 660 c 128,-1,10
 64 665 64 665 75 665 c 0,11,12
 88 665 88 665 97 659 c 128,-1,13
 106 653 106 653 110 639 c 2,0,-1
EndSplineSet
EndChar

StartChar: bracketright
Encoding: 93 93 64
Width: 269
Flags: W
LayerCount: 2
Fore
SplineSet
199 602 m 1,0,-1
 199 -56 l 1,1,-1
 126 -56 l 1,2,-1
 126 602 l 1,3,-1
 199 602 l 1,0,-1
199 588 m 1,4,-1
 16 588 l 1,5,6
 14 594 14 594 12 601.5 c 128,-1,7
 10 609 10 609 10 618 c 0,8,9
 10 635 10 635 19 643 c 128,-1,10
 28 651 28 651 45 651 c 2,11,-1
 158 651 l 2,12,13
 178 651 178 651 188.5 640.5 c 128,-1,14
 199 630 199 630 199 611 c 2,15,-1
 199 588 l 1,4,-1
158 -110 m 2,16,-1
 16 -110 l 1,17,18
 14 -104 14 -104 12 -96.5 c 128,-1,19
 10 -89 10 -89 10 -80 c 0,20,21
 10 -63 10 -63 19 -54.5 c 128,-1,22
 28 -46 28 -46 45 -46 c 2,23,-1
 199 -46 l 1,24,-1
 199 -69 l 2,25,26
 199 -88 199 -88 188.5 -99 c 128,-1,27
 178 -110 178 -110 158 -110 c 2,16,-1
EndSplineSet
EndChar

StartChar: asciicircum
Encoding: 94 94 65
Width: 463
Flags: W
LayerCount: 2
Fore
SplineSet
194 646 m 0,0,1
 199 650 199 650 209 652.5 c 128,-1,2
 219 655 219 655 230 655 c 0,3,4
 260 655 260 655 267 641 c 0,5,6
 281 616 281 616 300.5 578 c 128,-1,7
 320 540 320 540 340.5 497 c 128,-1,8
 361 454 361 454 379.5 413.5 c 128,-1,9
 398 373 398 373 409 343 c 1,10,11
 404 336 404 336 394 330 c 128,-1,12
 384 324 384 324 372 324 c 0,13,14
 356 324 356 324 346.5 331 c 128,-1,15
 337 338 337 338 329 357 c 2,16,-1
 232 573 l 1,17,-1
 225 573 l 1,18,19
 221 564 221 564 209 537.5 c 128,-1,20
 197 511 197 511 181 475 c 128,-1,21
 165 439 165 439 149.5 401.5 c 128,-1,22
 134 364 134 364 123 332 c 1,23,24
 116 328 116 328 107.5 325.5 c 128,-1,25
 99 323 99 323 88 323 c 0,26,27
 75 323 75 323 64.5 330 c 128,-1,28
 54 337 54 337 54 353 c 0,29,30
 54 362 54 362 66.5 391.5 c 128,-1,31
 79 421 79 421 98 460.5 c 128,-1,32
 117 500 117 500 137 539.5 c 128,-1,33
 157 579 157 579 173 608.5 c 128,-1,34
 189 638 189 638 194 646 c 0,0,1
EndSplineSet
EndChar

StartChar: underscore
Encoding: 95 95 66
Width: 465
Flags: W
LayerCount: 2
Fore
SplineSet
430 -123 m 2,0,-1
 6 -123 l 1,1,2
 4 -117 4 -117 2 -109.5 c 128,-1,3
 0 -102 0 -102 0 -92 c 0,4,5
 0 -75 0 -75 9 -66.5 c 128,-1,6
 18 -58 18 -58 35 -58 c 2,7,-1
 458 -58 l 1,8,9
 460 -64 460 -64 462.5 -72 c 128,-1,10
 465 -80 465 -80 465 -89 c 0,11,12
 465 -105 465 -105 456 -114 c 128,-1,13
 447 -123 447 -123 430 -123 c 2,0,-1
EndSplineSet
EndChar

StartChar: grave
Encoding: 96 96 67
Width: 302
Flags: W
LayerCount: 2
Fore
SplineSet
153 534 m 2,0,-1
 59 634 l 2,1,2
 58 638 58 638 57.5 641.5 c 128,-1,3
 57 645 57 645 57 647 c 0,4,5
 57 663 57 663 68 673 c 128,-1,6
 79 683 79 683 95 683 c 0,7,8
 106 683 106 683 114.5 678.5 c 128,-1,9
 123 674 123 674 130 666 c 2,10,-1
 220 553 l 1,11,12
 219 537 219 537 210 527.5 c 128,-1,13
 201 518 201 518 187 518 c 0,14,15
 176 518 176 518 168.5 522.5 c 128,-1,16
 161 527 161 527 153 534 c 2,0,-1
EndSplineSet
EndChar

StartChar: a
Encoding: 97 97 68
Width: 499
Flags: W
LayerCount: 2
Fore
SplineSet
240 -14 m 0,0,1
 146 -14 146 -14 94.5 23 c 128,-1,2
 43 60 43 60 43 130 c 0,3,4
 43 195 43 195 86.5 229.5 c 128,-1,5
 130 264 130 264 207 271 c 2,6,-1
 349 285 l 1,7,-1
 349 313 l 2,8,9
 349 363 349 363 319 386 c 128,-1,10
 289 409 289 409 238 409 c 0,11,12
 197 409 197 409 159.5 397 c 128,-1,13
 122 385 122 385 93 370 c 1,14,15
 85 377 85 377 78.5 386.5 c 128,-1,16
 72 396 72 396 72 406 c 0,17,18
 72 432 72 432 101 446 c 0,19,20
 128 460 128 460 163.5 467.5 c 128,-1,21
 199 475 199 475 239 475 c 0,22,23
 326 475 326 475 377 436 c 128,-1,24
 428 397 428 397 428 313 c 2,25,-1
 428 76 l 2,26,27
 428 54 428 54 419.5 42.5 c 128,-1,28
 411 31 411 31 394 21 c 0,29,30
 370 8 370 8 330 -3 c 128,-1,31
 290 -14 290 -14 240 -14 c 0,0,1
240 52 m 0,32,33
 282 52 282 52 309.5 60.5 c 128,-1,34
 337 69 337 69 349 77 c 1,35,-1
 349 222 l 1,36,-1
 225 209 l 2,37,38
 173 205 173 205 148 186 c 128,-1,39
 123 167 123 167 123 131 c 0,40,41
 123 94 123 94 152.5 73 c 128,-1,42
 182 52 182 52 240 52 c 0,32,33
EndSplineSet
Substitution2: "Single Substitution lookup 96 subtable" ordfeminine
EndChar

StartChar: b
Encoding: 98 98 69
Width: 549
Flags: W
LayerCount: 2
Fore
SplineSet
281 475 m 0,0,1
 343 475 343 475 392.5 448.5 c 128,-1,2
 442 422 442 422 470.5 368 c 128,-1,3
 499 314 499 314 499 231 c 0,4,5
 499 147 499 147 469.5 93 c 128,-1,6
 440 39 440 39 388 13 c 128,-1,7
 336 -13 336 -13 267 -13 c 0,8,9
 218 -13 218 -13 178.5 -1 c 128,-1,10
 139 11 139 11 114 25 c 0,11,12
 93 39 93 39 85 51 c 128,-1,13
 77 63 77 63 77 84 c 2,14,-1
 77 417 l 1,15,-1
 157 417 l 1,16,-1
 157 84 l 1,17,18
 172 73 172 73 201 63 c 128,-1,19
 230 53 230 53 267 53 c 0,20,21
 335 53 335 53 376.5 96 c 128,-1,22
 418 139 418 139 418 231 c 0,23,24
 418 324 418 324 376 366.5 c 128,-1,25
 334 409 334 409 269 409 c 0,26,27
 229 409 229 409 198 393.5 c 128,-1,28
 167 378 167 378 147 358 c 1,29,-1
 132 423 l 1,30,31
 154 440 154 440 191 457.5 c 128,-1,32
 228 475 228 475 281 475 c 0,0,1
157 401 m 1,33,-1
 77 401 l 1,34,-1
 77 648 l 1,35,36
 82 650 82 650 92.5 652.5 c 128,-1,37
 103 655 103 655 115 655 c 0,38,39
 136 655 136 655 146.5 646.5 c 128,-1,40
 157 638 157 638 157 619 c 2,41,-1
 157 401 l 1,33,-1
EndSplineSet
EndChar

StartChar: c
Encoding: 99 99 70
Width: 478
Flags: W
LayerCount: 2
Fore
SplineSet
289 408 m 0,0,1
 221 408 221 408 176 362 c 128,-1,2
 131 316 131 316 131 230 c 0,3,4
 131 145 131 145 174.5 99 c 128,-1,5
 218 53 218 53 289 53 c 0,6,7
 331 53 331 53 359 64.5 c 128,-1,8
 387 76 387 76 409 91 c 1,9,10
 420 85 420 85 427 76 c 128,-1,11
 434 67 434 67 434 54 c 0,12,13
 434 26 434 26 392.5 6.5 c 128,-1,14
 351 -13 351 -13 289 -13 c 0,15,16
 220 -13 220 -13 165.5 13.5 c 128,-1,17
 111 40 111 40 80 94 c 128,-1,18
 49 148 49 148 49 230 c 0,19,20
 49 311 49 311 81 365.5 c 128,-1,21
 113 420 113 420 167.5 447.5 c 128,-1,22
 222 475 222 475 287 475 c 0,23,24
 349 475 349 475 389.5 454 c 128,-1,25
 430 433 430 433 430 406 c 0,26,27
 430 394 430 394 423 385 c 128,-1,28
 416 376 416 376 405 371 c 1,29,30
 383 386 383 386 356.5 397 c 128,-1,31
 330 408 330 408 289 408 c 0,0,1
EndSplineSet
EndChar

StartChar: d
Encoding: 100 100 71
Width: 547
Flags: W
LayerCount: 2
Fore
SplineSet
390 79 m 1,0,-1
 390 415 l 1,1,-1
 470 416 l 1,2,-1
 470 76 l 2,3,4
 470 57 470 57 461.5 45.5 c 128,-1,5
 453 34 453 34 435 23 c 0,6,7
 415 10 415 10 378 -1.5 c 128,-1,8
 341 -13 341 -13 293 -13 c 0,9,10
 221 -13 221 -13 166 12 c 128,-1,11
 111 37 111 37 80 90.5 c 128,-1,12
 49 144 49 144 49 229 c 0,13,14
 49 316 49 316 79.5 370 c 128,-1,15
 110 424 110 424 162 449.5 c 128,-1,16
 214 475 214 475 276 475 c 0,17,18
 315 475 315 475 350 464 c 128,-1,19
 385 453 385 453 405 437 c 1,20,-1
 405 363 l 1,21,22
 386 382 386 382 355.5 395.5 c 128,-1,23
 325 409 325 409 284 409 c 256,24,25
 243 409 243 409 208 391.5 c 128,-1,26
 173 374 173 374 152 334 c 128,-1,27
 131 294 131 294 131 227 c 0,28,29
 131 136 131 136 175 94.5 c 128,-1,30
 219 53 219 53 292 53 c 0,31,32
 327 53 327 53 349.5 60.5 c 128,-1,33
 372 68 372 68 390 79 c 1,0,-1
470 396 m 1,34,-1
 390 395 l 1,35,-1
 390 648 l 1,36,37
 395 650 395 650 405.5 652.5 c 128,-1,38
 416 655 416 655 427 655 c 0,39,40
 449 655 449 655 459.5 646.5 c 128,-1,41
 470 638 470 638 470 619 c 2,42,-1
 470 396 l 1,34,-1
EndSplineSet
EndChar

StartChar: e
Encoding: 101 101 72
Width: 519
Flags: W
LayerCount: 2
Fore
SplineSet
104 180 m 1,0,-1
 100 243 l 1,1,-1
 402 284 l 1,2,3
 398 339 398 339 364 374.5 c 128,-1,4
 330 410 330 410 270 410 c 0,5,6
 208 410 208 410 167.5 365.5 c 128,-1,7
 127 321 127 321 127 238 c 2,8,-1
 127 216 l 1,9,10
 134 136 134 136 179.5 94.5 c 128,-1,11
 225 53 225 53 304 53 c 0,12,13
 346 53 346 53 380 67 c 128,-1,14
 414 81 414 81 434 97 c 1,15,16
 445 90 445 90 451.5 80.5 c 128,-1,17
 458 71 458 71 458 59 c 0,18,19
 458 40 458 40 436.5 23.5 c 128,-1,20
 415 7 415 7 379.5 -3 c 128,-1,21
 344 -13 344 -13 300 -13 c 0,22,23
 223 -13 223 -13 166.5 15 c 128,-1,24
 110 43 110 43 79.5 98.5 c 128,-1,25
 49 154 49 154 49 234 c 0,26,27
 49 291 49 291 65.5 335.5 c 128,-1,28
 82 380 82 380 111.5 411 c 128,-1,29
 141 442 141 442 182 458.5 c 128,-1,30
 223 475 223 475 271 475 c 0,31,32
 332 475 332 475 378.5 449 c 128,-1,33
 425 423 425 423 451.5 376.5 c 128,-1,34
 478 330 478 330 478 270 c 0,35,36
 478 248 478 248 468 238.5 c 128,-1,37
 458 229 458 229 440 227 c 2,38,-1
 104 180 l 1,0,-1
EndSplineSet
EndChar

StartChar: f
Encoding: 102 102 73
Width: 399
Flags: W
LayerCount: 2
Fore
SplineSet
142 371 m 1,0,-1
 142 436 l 1,1,-1
 354 436 l 1,2,3
 357 432 357 432 360 423.5 c 128,-1,4
 363 415 363 415 363 404 c 0,5,6
 363 388 363 388 355 379.5 c 128,-1,7
 347 371 347 371 332 371 c 2,8,-1
 142 371 l 1,0,-1
156 499 m 2,9,-1
 156 382 l 1,10,-1
 77 382 l 1,11,-1
 77 503 l 2,12,13
 77 562 77 562 98.5 598.5 c 128,-1,14
 120 635 120 635 160.5 652.5 c 128,-1,15
 201 670 201 670 257 670 c 0,16,17
 314 670 314 670 346.5 655 c 128,-1,18
 379 640 379 640 379 618 c 0,19,20
 379 607 379 607 374.5 598 c 128,-1,21
 370 589 370 589 362 581 c 1,22,23
 344 591 344 591 317 597.5 c 128,-1,24
 290 604 290 604 265 604 c 0,25,26
 204 604 204 604 180 579 c 128,-1,27
 156 554 156 554 156 499 c 2,9,-1
77 426 m 1,28,-1
 157 426 l 1,29,-1
 157 2 l 1,30,31
 152 0 152 0 142 -2.5 c 128,-1,32
 132 -5 132 -5 120 -5 c 0,33,34
 99 -5 99 -5 88 3.5 c 128,-1,35
 77 12 77 12 77 31 c 2,36,-1
 77 426 l 1,28,-1
EndSplineSet
EndChar

StartChar: g
Encoding: 103 103 74
Width: 537
Flags: W
LayerCount: 2
Fore
SplineSet
267 14 m 0,0,1
 209 14 209 14 160 36.5 c 128,-1,2
 111 59 111 59 81 110 c 128,-1,3
 51 161 51 161 51 245 c 0,4,5
 51 321 51 321 80.5 372 c 128,-1,6
 110 423 110 423 162 449 c 128,-1,7
 214 475 214 475 281 475 c 0,8,9
 327 475 327 475 365.5 463.5 c 128,-1,10
 404 452 404 452 430 435 c 0,11,12
 445 425 445 425 454.5 412.5 c 128,-1,13
 464 400 464 400 464 382 c 2,14,-1
 464 73 l 1,15,-1
 384 73 l 1,16,-1
 384 381 l 1,17,18
 367 392 367 392 341.5 400.5 c 128,-1,19
 316 409 316 409 281 409 c 0,20,21
 214 409 214 409 173 368 c 128,-1,22
 132 327 132 327 132 246 c 0,23,24
 132 156 132 156 173.5 118 c 128,-1,25
 215 80 215 80 276 80 c 0,26,27
 320 80 320 80 347 95 c 128,-1,28
 374 110 374 110 390 128 c 1,29,-1
 394 57 l 1,30,31
 379 41 379 41 346.5 27.5 c 128,-1,32
 314 14 314 14 267 14 c 0,0,1
384 -15 m 2,33,-1
 384 90 l 1,34,-1
 464 90 l 1,35,-1
 464 -20 l 2,36,37
 464 -86 464 -86 435.5 -126 c 128,-1,38
 407 -166 407 -166 357.5 -184 c 128,-1,39
 308 -202 308 -202 246 -202 c 0,40,41
 196 -202 196 -202 160 -191 c 128,-1,42
 124 -180 124 -180 111 -173 c 0,43,44
 81 -156 81 -156 81 -130 c 0,45,46
 81 -116 81 -116 87.5 -106.5 c 128,-1,47
 94 -97 94 -97 104 -92 c 1,48,49
 125 -108 125 -108 163.5 -121.5 c 128,-1,50
 202 -135 202 -135 246 -135 c 0,51,52
 313 -135 313 -135 348.5 -106 c 128,-1,53
 384 -77 384 -77 384 -15 c 2,33,-1
EndSplineSet
EndChar

StartChar: h
Encoding: 104 104 75
Width: 551
Flags: W
LayerCount: 2
Fore
SplineSet
476 199 m 1,0,-1
 396 199 l 1,1,-1
 396 291 l 2,2,3
 396 351 396 351 362.5 380 c 128,-1,4
 329 409 329 409 276 409 c 0,5,6
 237 409 237 409 203.5 394 c 128,-1,7
 170 379 170 379 147 358 c 1,8,-1
 132 423 l 1,9,10
 156 440 156 440 195.5 457.5 c 128,-1,11
 235 475 235 475 287 475 c 0,12,13
 370 475 370 475 423 430 c 128,-1,14
 476 385 476 385 476 293 c 2,15,-1
 476 199 l 1,0,-1
77 264 m 1,16,-1
 157 264 l 1,17,-1
 157 2 l 1,18,19
 152 0 152 0 142 -2.5 c 128,-1,20
 132 -5 132 -5 120 -5 c 0,21,22
 99 -5 99 -5 88 3.5 c 128,-1,23
 77 12 77 12 77 31 c 2,24,-1
 77 264 l 1,16,-1
396 263 m 1,25,-1
 476 262 l 1,26,-1
 476 2 l 1,27,28
 471 0 471 0 460.5 -2.5 c 128,-1,29
 450 -5 450 -5 439 -5 c 0,30,31
 417 -5 417 -5 406.5 3.5 c 128,-1,32
 396 12 396 12 396 31 c 2,33,-1
 396 263 l 1,25,-1
157 225 m 1,34,-1
 77 225 l 1,35,-1
 77 648 l 1,36,37
 82 650 82 650 92.5 652.5 c 128,-1,38
 103 655 103 655 115 655 c 0,39,40
 136 655 136 655 146.5 646.5 c 128,-1,41
 157 638 157 638 157 619 c 2,42,-1
 157 225 l 1,34,-1
EndSplineSet
EndChar

StartChar: i
Encoding: 105 105 76
Width: 241
Flags: W
LayerCount: 2
Fore
SplineSet
68 608 m 256,0,1
 68 629 68 629 83 643.5 c 128,-1,2
 98 658 98 658 120 658 c 0,3,4
 143 658 143 658 157 643.5 c 128,-1,5
 171 629 171 629 171 608 c 256,6,7
 171 587 171 587 157 572.5 c 128,-1,8
 143 558 143 558 120 558 c 0,9,10
 98 558 98 558 83 572.5 c 128,-1,11
 68 587 68 587 68 608 c 256,0,1
80 264 m 1,12,-1
 160 264 l 1,13,-1
 160 2 l 1,14,15
 155 0 155 0 145 -2.5 c 128,-1,16
 135 -5 135 -5 123 -5 c 0,17,18
 102 -5 102 -5 91 3.5 c 128,-1,19
 80 12 80 12 80 31 c 2,20,-1
 80 264 l 1,12,-1
160 225 m 1,21,-1
 80 225 l 1,22,-1
 80 460 l 1,23,24
 85 462 85 462 95.5 464.5 c 128,-1,25
 106 467 106 467 118 467 c 0,26,27
 139 467 139 467 149.5 458.5 c 128,-1,28
 160 450 160 450 160 430 c 2,29,-1
 160 225 l 1,21,-1
EndSplineSet
Substitution2: "Single Substitution lookup 92 subtable" i.loclTRK
EndChar

StartChar: j
Encoding: 106 106 77
Width: 243
Flags: W
LayerCount: 2
Fore
SplineSet
6 -146 m 1,0,1
 30 -135 30 -135 47 -123 c 128,-1,2
 64 -111 64 -111 73.5 -89.5 c 128,-1,3
 83 -68 83 -68 83 -30 c 2,4,-1
 83 303 l 1,5,-1
 163 303 l 1,6,-1
 163 -45 l 2,7,8
 163 -103 163 -103 143 -135.5 c 128,-1,9
 123 -168 123 -168 97 -181.5 c 128,-1,10
 71 -195 71 -195 52 -195 c 0,11,12
 27 -195 27 -195 17.5 -180.5 c 128,-1,13
 8 -166 8 -166 6 -146 c 1,0,1
71 608 m 256,14,15
 71 629 71 629 86 643.5 c 128,-1,16
 101 658 101 658 123 658 c 0,17,18
 146 658 146 658 160 643.5 c 128,-1,19
 174 629 174 629 174 608 c 256,20,21
 174 587 174 587 160 572.5 c 128,-1,22
 146 558 146 558 123 558 c 0,23,24
 101 558 101 558 86 572.5 c 128,-1,25
 71 587 71 587 71 608 c 256,14,15
163 214 m 1,26,-1
 83 225 l 1,27,-1
 83 460 l 1,28,29
 88 462 88 462 98.5 464.5 c 128,-1,30
 109 467 109 467 121 467 c 0,31,32
 142 467 142 467 152.5 458.5 c 128,-1,33
 163 450 163 450 163 430 c 2,34,-1
 163 214 l 1,26,-1
EndSplineSet
EndChar

StartChar: k
Encoding: 107 107 78
Width: 487
Flags: W
LayerCount: 2
Fore
SplineSet
198 211 m 1,0,-1
 148 250 l 1,1,-1
 376 471 l 1,2,3
 400 470 400 470 413.5 459.5 c 128,-1,4
 427 449 427 449 427 432 c 0,5,6
 427 418 427 418 418.5 407 c 128,-1,7
 410 396 410 396 394 383 c 2,8,-1
 198 211 l 1,0,-1
146 237 m 1,9,-1
 202 270 l 1,10,-1
 456 42 l 1,11,12
 454 20 454 20 442.5 7 c 128,-1,13
 431 -6 431 -6 412 -6 c 0,14,15
 397 -6 397 -6 384.5 2 c 128,-1,16
 372 10 372 10 359 23 c 2,17,-1
 146 237 l 1,9,-1
77 268 m 1,18,-1
 157 256 l 1,19,-1
 157 2 l 1,20,21
 152 0 152 0 142 -2.5 c 128,-1,22
 132 -5 132 -5 120 -5 c 0,23,24
 99 -5 99 -5 88 3.5 c 128,-1,25
 77 12 77 12 77 31 c 2,26,-1
 77 268 l 1,18,-1
157 217 m 1,27,-1
 77 229 l 1,28,-1
 77 648 l 1,29,30
 82 650 82 650 92.5 652.5 c 128,-1,31
 103 655 103 655 115 655 c 0,32,33
 136 655 136 655 146.5 646.5 c 128,-1,34
 157 638 157 638 157 619 c 2,35,-1
 157 217 l 1,27,-1
EndSplineSet
EndChar

StartChar: l
Encoding: 108 108 79
Width: 246
Flags: W
LayerCount: 2
Fore
SplineSet
83 264 m 1,0,-1
 163 252 l 1,1,-1
 163 2 l 1,2,3
 158 0 158 0 148 -2.5 c 128,-1,4
 138 -5 138 -5 126 -5 c 0,5,6
 105 -5 105 -5 94 3.5 c 128,-1,7
 83 12 83 12 83 31 c 2,8,-1
 83 264 l 1,0,-1
163 214 m 1,9,-1
 83 225 l 1,10,-1
 83 648 l 1,11,12
 88 650 88 650 98.5 652.5 c 128,-1,13
 109 655 109 655 120 655 c 0,14,15
 142 655 142 655 152.5 646.5 c 128,-1,16
 163 638 163 638 163 619 c 2,17,-1
 163 214 l 1,9,-1
EndSplineSet
EndChar

StartChar: m
Encoding: 109 109 80
Width: 816
Flags: W
LayerCount: 2
Fore
SplineSet
448 320 m 2,0,-1
 448 205 l 1,1,-1
 368 205 l 1,2,-1
 368 314 l 2,3,4
 368 363 368 363 339.5 386 c 128,-1,5
 311 409 311 409 264 409 c 0,6,7
 233 409 233 409 204 399 c 128,-1,8
 175 389 175 389 155 376 c 1,9,-1
 155 205 l 1,10,-1
 75 205 l 1,11,-1
 75 372 l 2,12,13
 75 392 75 392 83.5 406 c 128,-1,14
 92 420 92 420 113 433 c 0,15,16
 140 450 140 450 181.5 462.5 c 128,-1,17
 223 475 223 475 265 475 c 0,18,19
 316 475 316 475 355 459.5 c 128,-1,20
 394 444 394 444 413 417 c 0,21,22
 419 411 419 411 423 406 c 128,-1,23
 427 401 427 401 431 393 c 0,24,25
 438 381 438 381 443 362 c 128,-1,26
 448 343 448 343 448 320 c 2,0,-1
741 318 m 2,27,-1
 741 205 l 1,28,-1
 661 205 l 1,29,-1
 661 314 l 2,30,31
 661 363 661 363 633 386 c 128,-1,32
 605 409 605 409 558 409 c 0,33,34
 523 409 523 409 490.5 394.5 c 128,-1,35
 458 380 458 380 432 353 c 1,36,-1
 400 411 l 1,37,38
 426 437 426 437 468 456 c 128,-1,39
 510 475 510 475 564 475 c 256,40,41
 618 475 618 475 657.5 458 c 128,-1,42
 697 441 697 441 719 406 c 128,-1,43
 741 371 741 371 741 318 c 2,27,-1
75 258 m 1,44,-1
 155 258 l 1,45,-1
 155 2 l 1,46,47
 150 0 150 0 140 -2.5 c 128,-1,48
 130 -5 130 -5 118 -5 c 0,49,50
 97 -5 97 -5 86 3.5 c 128,-1,51
 75 12 75 12 75 31 c 2,52,-1
 75 258 l 1,44,-1
368 258 m 1,53,-1
 448 258 l 1,54,-1
 448 2 l 1,55,56
 443 0 443 0 432.5 -2.5 c 128,-1,57
 422 -5 422 -5 411 -5 c 0,58,59
 389 -5 389 -5 378.5 3.5 c 128,-1,60
 368 12 368 12 368 31 c 2,61,-1
 368 258 l 1,53,-1
661 258 m 1,62,-1
 741 258 l 1,63,-1
 741 2 l 1,64,65
 736 0 736 0 725.5 -2.5 c 128,-1,66
 715 -5 715 -5 704 -5 c 0,67,68
 682 -5 682 -5 671.5 3.5 c 128,-1,69
 661 12 661 12 661 31 c 2,70,-1
 661 258 l 1,62,-1
EndSplineSet
EndChar

StartChar: n
Encoding: 110 110 81
Width: 550
Flags: W
LayerCount: 2
Fore
SplineSet
475 305 m 2,0,-1
 475 203 l 1,1,-1
 395 203 l 1,2,-1
 395 301 l 2,3,4
 395 357 395 357 363.5 383 c 128,-1,5
 332 409 332 409 279 409 c 0,6,7
 239 409 239 409 208 399 c 128,-1,8
 177 389 177 389 155 376 c 1,9,-1
 155 203 l 1,10,-1
 75 203 l 1,11,-1
 75 372 l 2,12,13
 75 393 75 393 83.5 406.5 c 128,-1,14
 92 420 92 420 113 433 c 0,15,16
 139 448 139 448 182 461.5 c 128,-1,17
 225 475 225 475 279 475 c 0,18,19
 370 475 370 475 422.5 433.5 c 128,-1,20
 475 392 475 392 475 305 c 2,0,-1
75 258 m 1,21,-1
 155 258 l 1,22,-1
 155 2 l 1,23,24
 150 0 150 0 140 -2.5 c 128,-1,25
 130 -5 130 -5 118 -5 c 0,26,27
 97 -5 97 -5 86 3.5 c 128,-1,28
 75 12 75 12 75 31 c 2,29,-1
 75 258 l 1,21,-1
395 258 m 1,30,-1
 475 258 l 1,31,-1
 475 2 l 1,32,33
 470 0 470 0 459.5 -2.5 c 128,-1,34
 449 -5 449 -5 438 -5 c 0,35,36
 416 -5 416 -5 405.5 3.5 c 128,-1,37
 395 12 395 12 395 31 c 2,38,-1
 395 258 l 1,30,-1
EndSplineSet
EndChar

StartChar: o
Encoding: 111 111 82
Width: 553
Flags: W
LayerCount: 2
Fore
SplineSet
504 231 m 0,0,1
 504 157 504 157 476 102 c 128,-1,2
 448 47 448 47 397 17 c 128,-1,3
 346 -13 346 -13 277 -13 c 256,4,5
 208 -13 208 -13 156.5 17 c 128,-1,6
 105 47 105 47 77 102 c 128,-1,7
 49 157 49 157 49 231 c 0,8,9
 49 306 49 306 77.5 360.5 c 128,-1,10
 106 415 106 415 157.5 445 c 128,-1,11
 209 475 209 475 277 475 c 256,12,13
 345 475 345 475 396 445 c 128,-1,14
 447 415 447 415 475.5 360.5 c 128,-1,15
 504 306 504 306 504 231 c 0,0,1
277 409 m 0,16,17
 210 409 210 409 170.5 361.5 c 128,-1,18
 131 314 131 314 131 231 c 0,19,20
 131 147 131 147 169.5 100 c 128,-1,21
 208 53 208 53 277 53 c 0,22,23
 345 53 345 53 383.5 100.5 c 128,-1,24
 422 148 422 148 422 231 c 256,25,26
 422 314 422 314 383.5 361.5 c 128,-1,27
 345 409 345 409 277 409 c 0,16,17
EndSplineSet
Substitution2: "Single Substitution lookup 96 subtable" ordmasculine
EndChar

StartChar: p
Encoding: 112 112 83
Width: 546
Flags: W
LayerCount: 2
Fore
SplineSet
272 -13 m 0,0,1
 229 -13 229 -13 191.5 -0.5 c 128,-1,2
 154 12 154 12 137 27 c 1,3,-1
 137 101 l 1,4,5
 157 82 157 82 187.5 67.5 c 128,-1,6
 218 53 218 53 261 53 c 0,7,8
 331 53 331 53 373.5 95.5 c 128,-1,9
 416 138 416 138 416 232 c 0,10,11
 416 298 416 298 394.5 336.5 c 128,-1,12
 373 375 373 375 337.5 392 c 128,-1,13
 302 409 302 409 261 409 c 0,14,15
 225 409 225 409 200 400 c 128,-1,16
 175 391 175 391 155 380 c 1,17,-1
 155 48 l 1,18,-1
 75 48 l 1,19,-1
 75 378 l 2,20,21
 75 398 75 398 82 410 c 128,-1,22
 89 422 89 422 111 435 c 0,23,24
 138 450 138 450 175.5 462.5 c 128,-1,25
 213 475 213 475 261 475 c 0,26,27
 327 475 327 475 380.5 449.5 c 128,-1,28
 434 424 434 424 465.5 370.5 c 128,-1,29
 497 317 497 317 497 232 c 0,30,31
 497 150 497 150 468.5 95.5 c 128,-1,32
 440 41 440 41 389 14 c 128,-1,33
 338 -13 338 -13 272 -13 c 0,0,1
118 -187 m 0,34,35
 97 -187 97 -187 86 -178 c 128,-1,36
 75 -169 75 -169 75 -150 c 2,37,-1
 75 77 l 1,38,-1
 155 75 l 1,39,-1
 155 -180 l 1,40,41
 150 -182 150 -182 140 -184.5 c 128,-1,42
 130 -187 130 -187 118 -187 c 0,34,35
EndSplineSet
EndChar

StartChar: q
Encoding: 113 113 84
Width: 546
Flags: W
LayerCount: 2
Fore
SplineSet
471 63 m 1,0,-1
 391 64 l 1,1,-1
 391 381 l 1,2,3
 374 392 374 392 348.5 400.5 c 128,-1,4
 323 409 323 409 288 409 c 0,5,6
 245 409 245 409 209.5 391 c 128,-1,7
 174 373 174 373 152.5 333 c 128,-1,8
 131 293 131 293 131 228 c 0,9,10
 131 136 131 136 174 94.5 c 128,-1,11
 217 53 217 53 287 53 c 0,12,13
 323 53 323 53 353 65.5 c 128,-1,14
 383 78 383 78 400 95 c 1,15,-1
 400 22 l 1,16,17
 380 8 380 8 349.5 -2.5 c 128,-1,18
 319 -13 319 -13 275 -13 c 0,19,20
 210 -13 210 -13 158.5 12 c 128,-1,21
 107 37 107 37 78 90.5 c 128,-1,22
 49 144 49 144 49 228 c 256,23,24
 49 312 49 312 80.5 367 c 128,-1,25
 112 422 112 422 165.5 448.5 c 128,-1,26
 219 475 219 475 286 475 c 0,27,28
 334 475 334 475 373 463 c 128,-1,29
 412 451 412 451 438 435 c 0,30,31
 453 426 453 426 462 413 c 128,-1,32
 471 400 471 400 471 382 c 2,33,-1
 471 63 l 1,0,-1
391 78 m 1,34,-1
 471 80 l 1,35,-1
 471 -183 l 1,36,37
 466 -185 466 -185 455.5 -187.5 c 128,-1,38
 445 -190 445 -190 434 -190 c 0,39,40
 412 -190 412 -190 401.5 -181 c 128,-1,41
 391 -172 391 -172 391 -153 c 2,42,-1
 391 78 l 1,34,-1
EndSplineSet
EndChar

StartChar: r
Encoding: 114 114 85
Width: 382
Flags: W
LayerCount: 2
Fore
SplineSet
155 376 m 1,0,-1
 155 218 l 1,1,-1
 75 218 l 1,2,-1
 75 370 l 2,3,4
 75 393 75 393 83.5 406.5 c 128,-1,5
 92 420 92 420 112 433 c 0,6,7
 138 450 138 450 183 462.5 c 128,-1,8
 228 475 228 475 283 475 c 0,9,10
 363 475 363 475 363 435 c 0,11,12
 363 425 363 425 360 416.5 c 128,-1,13
 357 408 357 408 352 402 c 1,14,15
 342 404 342 404 326 406 c 128,-1,16
 310 408 310 408 294 408 c 0,17,18
 248 408 248 408 213 398.5 c 128,-1,19
 178 389 178 389 155 376 c 1,0,-1
75 264 m 1,20,-1
 155 252 l 1,21,-1
 155 2 l 1,22,23
 150 0 150 0 140 -2.5 c 128,-1,24
 130 -5 130 -5 118 -5 c 0,25,26
 97 -5 97 -5 86 3.5 c 128,-1,27
 75 12 75 12 75 31 c 2,28,-1
 75 264 l 1,20,-1
EndSplineSet
EndChar

StartChar: s
Encoding: 115 115 86
Width: 447
Flags: W
LayerCount: 2
Fore
SplineSet
401 123 m 0,0,1
 401 59 401 59 354 23 c 128,-1,2
 307 -13 307 -13 218 -13 c 0,3,4
 142 -13 142 -13 94 10.5 c 128,-1,5
 46 34 46 34 46 62 c 0,6,7
 46 74 46 74 52.5 85.5 c 128,-1,8
 59 97 59 97 72 104 c 1,9,10
 99 85 99 85 135 69 c 128,-1,11
 171 53 171 53 217 53 c 0,12,13
 321 53 321 53 321 123 c 0,14,15
 321 152 321 152 303.5 170.5 c 128,-1,16
 286 189 286 189 252 197 c 2,17,-1
 169 219 l 2,18,19
 108 234 108 234 80 265.5 c 128,-1,20
 52 297 52 297 52 344 c 0,21,22
 52 397 52 397 95 436 c 128,-1,23
 138 475 138 475 226 475 c 0,24,25
 273 475 273 475 308 465.5 c 128,-1,26
 343 456 343 456 362.5 440.5 c 128,-1,27
 382 425 382 425 382 407 c 0,28,29
 382 394 382 394 375.5 384 c 128,-1,30
 369 374 369 374 358 369 c 1,31,32
 346 377 346 377 327.5 386.5 c 128,-1,33
 309 396 309 396 284 402.5 c 128,-1,34
 259 409 259 409 229 409 c 0,35,36
 185 409 185 409 158 392 c 128,-1,37
 131 375 131 375 131 344 c 0,38,39
 131 322 131 322 146.5 305.5 c 128,-1,40
 162 289 162 289 196 281 c 2,41,-1
 265 264 l 2,42,43
 333 248 333 248 367 213.5 c 128,-1,44
 401 179 401 179 401 123 c 0,0,1
EndSplineSet
EndChar

StartChar: t
Encoding: 116 116 87
Width: 372
Flags: W
LayerCount: 2
Fore
SplineSet
76 264 m 1,0,-1
 156 264 l 1,1,-1
 156 126 l 2,2,3
 156 86 156 86 179 69.5 c 128,-1,4
 202 53 202 53 242 53 c 0,5,6
 259 53 259 53 280 59 c 128,-1,7
 301 65 301 65 315 73 c 1,8,9
 321 67 321 67 326 58 c 128,-1,10
 331 49 331 49 331 37 c 0,11,12
 331 15 331 15 305 1 c 128,-1,13
 279 -13 279 -13 233 -13 c 0,14,15
 163 -13 163 -13 119.5 18 c 128,-1,16
 76 49 76 49 76 121 c 2,17,-1
 76 264 l 1,0,-1
117 386 m 1,18,-1
 117 452 l 1,19,-1
 320 452 l 1,20,21
 323 448 323 448 326 439 c 128,-1,22
 329 430 329 430 329 420 c 0,23,24
 329 404 329 404 321 395 c 128,-1,25
 313 386 313 386 299 386 c 2,26,-1
 117 386 l 1,18,-1
156 234 m 1,27,-1
 76 234 l 1,28,-1
 76 596 l 1,29,30
 81 598 81 598 91.5 600.5 c 128,-1,31
 102 603 102 603 114 603 c 0,32,33
 135 603 135 603 145.5 594.5 c 128,-1,34
 156 586 156 586 156 567 c 2,35,-1
 156 234 l 1,27,-1
EndSplineSet
EndChar

StartChar: u
Encoding: 117 117 88
Width: 550
Flags: W
LayerCount: 2
Fore
SplineSet
75 169 m 2,0,-1
 75 260 l 1,1,-1
 155 260 l 1,2,-1
 155 173 l 2,3,4
 155 109 155 109 189 81 c 128,-1,5
 223 53 223 53 283 53 c 0,6,7
 323 53 323 53 351 61.5 c 128,-1,8
 379 70 379 70 395 79 c 1,9,-1
 395 260 l 1,10,-1
 475 260 l 1,11,-1
 475 82 l 2,12,13
 475 61 475 61 469.5 48.5 c 128,-1,14
 464 36 464 36 443 24 c 0,15,16
 421 11 421 11 380 -1 c 128,-1,17
 339 -13 339 -13 282 -13 c 0,18,19
 216 -13 216 -13 169.5 6.5 c 128,-1,20
 123 26 123 26 99 66.5 c 128,-1,21
 75 107 75 107 75 169 c 2,0,-1
475 208 m 1,22,-1
 395 208 l 1,23,-1
 395 460 l 1,24,25
 400 462 400 462 410.5 464.5 c 128,-1,26
 421 467 421 467 432 467 c 0,27,28
 454 467 454 467 464.5 458.5 c 128,-1,29
 475 450 475 450 475 430 c 2,30,-1
 475 208 l 1,22,-1
155 208 m 1,31,-1
 75 208 l 1,32,-1
 75 460 l 1,33,34
 80 462 80 462 90.5 464.5 c 128,-1,35
 101 467 101 467 113 467 c 0,36,37
 134 467 134 467 144.5 458.5 c 128,-1,38
 155 450 155 450 155 430 c 2,39,-1
 155 208 l 1,31,-1
EndSplineSet
EndChar

StartChar: v
Encoding: 118 118 89
Width: 495
Flags: W
LayerCount: 2
Fore
SplineSet
421 471 m 0,0,1
 438 471 438 471 448.5 462 c 128,-1,2
 459 453 459 453 459 436 c 0,3,4
 459 423 459 423 448 387 c 128,-1,5
 437 351 437 351 419 301 c 128,-1,6
 401 251 401 251 379.5 196.5 c 128,-1,7
 358 142 358 142 335.5 91.5 c 128,-1,8
 313 41 313 41 294 4 c 0,9,10
 289 0 289 0 276.5 -3 c 128,-1,11
 264 -6 264 -6 250 -6 c 0,12,13
 233 -6 233 -6 220 -0.5 c 128,-1,14
 207 5 207 5 202 15 c 0,15,16
 191 35 191 35 173.5 73.5 c 128,-1,17
 156 112 156 112 136 161 c 128,-1,18
 116 210 116 210 95.5 262.5 c 128,-1,19
 75 315 75 315 58 363.5 c 128,-1,20
 41 412 41 412 30 449 c 1,21,22
 37 459 37 459 49 465 c 128,-1,23
 61 471 61 471 73 471 c 0,24,25
 91 471 91 471 101 462 c 128,-1,26
 111 453 111 453 118 432 c 2,27,-1
 180 253 l 2,28,29
 188 230 188 230 201 196 c 128,-1,30
 214 162 214 162 227 128 c 128,-1,31
 240 94 240 94 248 71 c 1,32,-1
 252 71 l 1,33,34
 292 172 292 172 327 270.5 c 128,-1,35
 362 369 362 369 387 463 c 1,36,37
 400 471 400 471 421 471 c 0,0,1
EndSplineSet
EndChar

StartChar: w
Encoding: 119 119 90
Width: 729
Flags: W
LayerCount: 2
Fore
SplineSet
366 344 m 1,0,1
 348 281 348 281 327.5 218 c 128,-1,2
 307 155 307 155 288 100 c 128,-1,3
 269 45 269 45 253 5 c 1,4,5
 245 0 245 0 235 -3 c 128,-1,6
 225 -6 225 -6 208 -6 c 0,7,8
 192 -6 192 -6 178.5 -0.5 c 128,-1,9
 165 5 165 5 160 17 c 0,10,11
 150 37 150 37 137.5 75 c 128,-1,12
 125 113 125 113 111.5 162 c 128,-1,13
 98 211 98 211 84 263.5 c 128,-1,14
 70 316 70 316 58.5 365 c 128,-1,15
 47 414 47 414 39 452 c 1,16,17
 46 459 46 459 56.5 465 c 128,-1,18
 67 471 67 471 82 471 c 0,19,20
 101 471 101 471 110.5 460.5 c 128,-1,21
 120 450 120 450 124 427 c 0,22,23
 133 385 133 385 144.5 332 c 128,-1,24
 156 279 156 279 168.5 227 c 128,-1,25
 181 175 181 175 191.5 133.5 c 128,-1,26
 202 92 202 92 207 72 c 1,27,-1
 211 72 l 1,28,29
 219 96 219 96 236 150.5 c 128,-1,30
 253 205 253 205 276.5 275 c 128,-1,31
 300 345 300 345 324 417 c 1,32,33
 332 422 332 422 343 424.5 c 128,-1,34
 354 427 354 427 367 427 c 0,35,36
 385 427 385 427 397 420.5 c 128,-1,37
 409 414 409 414 413 401 c 0,38,39
 437 332 437 332 458 265.5 c 128,-1,40
 479 199 479 199 495 147.5 c 128,-1,41
 511 96 511 96 518 71 c 1,42,-1
 523 71 l 1,43,44
 546 160 546 160 573 262 c 128,-1,45
 600 364 600 364 617 462 c 1,46,47
 631 471 631 471 651 471 c 0,48,49
 668 471 668 471 678 463 c 128,-1,50
 688 455 688 455 688 438 c 0,51,52
 688 427 688 427 681.5 396 c 128,-1,53
 675 365 675 365 664 323 c 128,-1,54
 653 281 653 281 639.5 233.5 c 128,-1,55
 626 186 626 186 612 141.5 c 128,-1,56
 598 97 598 97 585.5 61 c 128,-1,57
 573 25 573 25 564 5 c 0,58,59
 559 1 559 1 547.5 -2.5 c 128,-1,60
 536 -6 536 -6 521 -6 c 0,61,62
 480 -6 480 -6 473 13 c 0,63,64
 459 49 459 49 441 102.5 c 128,-1,65
 423 156 423 156 404 218.5 c 128,-1,66
 385 281 385 281 366 344 c 1,0,1
EndSplineSet
EndChar

StartChar: x
Encoding: 120 120 91
Width: 482
Flags: W
LayerCount: 2
Fore
SplineSet
214 261 m 1,0,-1
 229 268 l 1,1,2
 270 321 270 321 306 367 c 128,-1,3
 342 413 342 413 380 468 c 0,4,5
 384 469 384 469 386 469 c 128,-1,6
 388 469 388 469 391 469 c 0,7,8
 412 469 412 469 424 459.5 c 128,-1,9
 436 450 436 450 436 434 c 0,10,11
 436 423 436 423 431.5 413 c 128,-1,12
 427 403 427 403 417 390 c 0,13,14
 383 348 383 348 347.5 305 c 128,-1,15
 312 262 312 262 278 221 c 1,16,-1
 252 199 l 1,17,18
 215 150 215 150 176 97.5 c 128,-1,19
 137 45 137 45 101 -5 c 0,20,21
 100 -5 100 -5 94.5 -5 c 128,-1,22
 89 -5 89 -5 87 -5 c 0,23,24
 64 -5 64 -5 52.5 5 c 128,-1,25
 41 15 41 15 41 30 c 0,26,27
 41 38 41 38 44.5 47 c 128,-1,28
 48 56 48 56 61 72 c 0,29,30
 97 120 97 120 137 166.5 c 128,-1,31
 177 213 177 213 214 261 c 1,0,-1
263 259 m 1,32,-1
 281 247 l 1,33,34
 322 193 322 193 363.5 140.5 c 128,-1,35
 405 88 405 88 446 35 c 1,36,37
 444 16 444 16 433 5 c 128,-1,38
 422 -6 422 -6 404 -6 c 0,39,40
 388 -6 388 -6 377 2.5 c 128,-1,41
 366 11 366 11 352 29 c 0,42,43
 322 71 322 71 288.5 118 c 128,-1,44
 255 165 255 165 225 206 c 1,45,-1
 202 227 l 1,46,47
 158 280 158 280 120 328 c 128,-1,48
 82 376 82 376 42 427 c 1,49,50
 46 447 46 447 57 458 c 128,-1,51
 68 469 68 469 84 469 c 0,52,53
 101 469 101 469 111 460.5 c 128,-1,54
 121 452 121 452 131 438 c 0,55,56
 161 398 161 398 194 350.5 c 128,-1,57
 227 303 227 303 263 259 c 1,32,-1
EndSplineSet
EndChar

StartChar: y
Encoding: 121 121 92
Width: 489
Flags: W
LayerCount: 2
Fore
SplineSet
169 103 m 0,0,1
 152 135 152 135 128 189.5 c 128,-1,2
 104 244 104 244 78.5 311.5 c 128,-1,3
 53 379 53 379 30 449 c 1,4,5
 37 459 37 459 48.5 465 c 128,-1,6
 60 471 60 471 73 471 c 0,7,8
 90 471 90 471 101 462 c 128,-1,9
 112 453 112 453 119 432 c 0,10,11
 149 348 149 348 182 265 c 128,-1,12
 215 182 215 182 255 93 c 1,13,-1
 259 93 l 1,14,15
 280 135 280 135 303 198 c 128,-1,16
 326 261 326 261 347 331 c 128,-1,17
 368 401 368 401 382 463 c 1,18,19
 389 466 389 466 397.5 468.5 c 128,-1,20
 406 471 406 471 416 471 c 0,21,22
 433 471 433 471 444 462.5 c 128,-1,23
 455 454 455 454 455 437 c 0,24,25
 455 421 455 421 446 383.5 c 128,-1,26
 437 346 437 346 421.5 296.5 c 128,-1,27
 406 247 406 247 385.5 191.5 c 128,-1,28
 365 136 365 136 341.5 82.5 c 128,-1,29
 318 29 318 29 294 -14 c 0,30,31
 248 -99 248 -99 210 -144.5 c 128,-1,32
 172 -190 172 -190 140 -190 c 0,33,34
 117 -190 117 -190 104.5 -178 c 128,-1,35
 92 -166 92 -166 89 -150 c 1,36,37
 111 -131 111 -131 138.5 -99.5 c 128,-1,38
 166 -68 166 -68 191.5 -31.5 c 128,-1,39
 217 5 217 5 233 38 c 1,40,41
 216 43 216 43 201.5 56 c 128,-1,42
 187 69 187 69 169 103 c 0,0,1
EndSplineSet
EndChar

StartChar: z
Encoding: 122 122 93
Width: 469
Flags: W
LayerCount: 2
Fore
SplineSet
93 0 m 1,0,-1
 61 0 l 1,1,2
 54 6 54 6 49.5 15.5 c 128,-1,3
 45 25 45 25 45 35 c 0,4,5
 45 47 45 47 50.5 57.5 c 128,-1,6
 56 68 56 68 63 78 c 2,7,-1
 370 462 l 1,8,-1
 401 462 l 1,9,10
 409 455 409 455 413.5 446 c 128,-1,11
 418 437 418 437 418 426 c 256,12,13
 418 415 418 415 413 405 c 128,-1,14
 408 395 408 395 399 384 c 2,15,-1
 93 0 l 1,0,-1
390 462 m 1,16,-1
 390 396 l 1,17,-1
 60 396 l 1,18,19
 57 401 57 401 54 410 c 128,-1,20
 51 419 51 419 51 429 c 0,21,22
 51 446 51 446 59 454 c 128,-1,23
 67 462 67 462 81 462 c 2,24,-1
 390 462 l 1,16,-1
67 0 m 1,25,-1
 67 65 l 1,26,-1
 416 65 l 1,27,28
 419 61 419 61 422 52.5 c 128,-1,29
 425 44 425 44 425 33 c 0,30,31
 425 17 425 17 417 8.5 c 128,-1,32
 409 0 409 0 394 0 c 2,33,-1
 67 0 l 1,25,-1
EndSplineSet
EndChar

StartChar: braceleft
Encoding: 123 123 94
Width: 281
Flags: W
LayerCount: 2
Fore
SplineSet
122 275 m 1,0,1
 155 258 155 258 173.5 223.5 c 128,-1,2
 192 189 192 189 192 136 c 2,3,-1
 192 5 l 2,4,5
 192 -30 192 -30 205.5 -44.5 c 128,-1,6
 219 -59 219 -59 248 -60 c 1,7,8
 250 -66 250 -66 250.5 -71.5 c 128,-1,9
 251 -77 251 -77 251 -83 c 0,10,11
 251 -97 251 -97 242 -106 c 128,-1,12
 233 -115 233 -115 215 -115 c 0,13,14
 173 -115 173 -115 146.5 -85 c 128,-1,15
 120 -55 120 -55 120 5 c 2,16,-1
 120 128 l 2,17,18
 120 181 120 181 101 209.5 c 128,-1,19
 82 238 82 238 44 244 c 1,20,21
 40 249 40 249 38.5 258.5 c 128,-1,22
 37 268 37 268 37 275 c 256,23,24
 37 282 37 282 39 291 c 128,-1,25
 41 300 41 300 44 306 c 1,26,27
 82 312 82 312 101 340.5 c 128,-1,28
 120 369 120 369 120 421 c 2,29,-1
 120 537 l 2,30,31
 120 597 120 597 146.5 626.5 c 128,-1,32
 173 656 173 656 215 656 c 0,33,34
 233 656 233 656 242 647.5 c 128,-1,35
 251 639 251 639 251 624 c 0,36,37
 251 618 251 618 250.5 612.5 c 128,-1,38
 250 607 250 607 248 601 c 1,39,40
 219 601 219 601 205.5 586.5 c 128,-1,41
 192 572 192 572 192 536 c 2,42,-1
 192 414 l 2,43,44
 192 361 192 361 173.5 326.5 c 128,-1,45
 155 292 155 292 122 275 c 1,0,1
EndSplineSet
EndChar

StartChar: bar
Encoding: 124 124 95
Width: 251
Flags: W
LayerCount: 2
Fore
SplineSet
162 641 m 2,0,-1
 162 -180 l 1,1,2
 155 -183 155 -183 146.5 -185 c 128,-1,3
 138 -187 138 -187 127 -187 c 0,4,5
 108 -187 108 -187 98.5 -178 c 128,-1,6
 89 -169 89 -169 89 -147 c 2,7,-1
 89 674 l 1,8,9
 97 677 97 677 105 679 c 128,-1,10
 113 681 113 681 124 681 c 0,11,12
 144 681 144 681 153 672 c 128,-1,13
 162 663 162 663 162 641 c 2,0,-1
EndSplineSet
EndChar

StartChar: braceright
Encoding: 125 125 96
Width: 281
Flags: W
LayerCount: 2
Fore
SplineSet
159 275 m 1,0,1
 126 292 126 292 107.5 326.5 c 128,-1,2
 89 361 89 361 89 414 c 2,3,-1
 89 536 l 2,4,5
 89 572 89 572 75.5 586.5 c 128,-1,6
 62 601 62 601 33 601 c 1,7,8
 32 607 32 607 31 612.5 c 128,-1,9
 30 618 30 618 30 624 c 0,10,11
 30 639 30 639 39 647.5 c 128,-1,12
 48 656 48 656 66 656 c 0,13,14
 108 656 108 656 134.5 626.5 c 128,-1,15
 161 597 161 597 161 537 c 2,16,-1
 161 421 l 2,17,18
 161 369 161 369 180 340.5 c 128,-1,19
 199 312 199 312 237 306 c 1,20,21
 240 300 240 300 242 291 c 128,-1,22
 244 282 244 282 244 275 c 256,23,24
 244 268 244 268 242.5 258.5 c 128,-1,25
 241 249 241 249 237 244 c 1,26,27
 199 238 199 238 180 209.5 c 128,-1,28
 161 181 161 181 161 128 c 2,29,-1
 161 5 l 2,30,31
 161 -55 161 -55 134.5 -85 c 128,-1,32
 108 -115 108 -115 66 -115 c 0,33,34
 48 -115 48 -115 39 -106 c 128,-1,35
 30 -97 30 -97 30 -83 c 0,36,37
 30 -77 30 -77 31 -71.5 c 128,-1,38
 32 -66 32 -66 33 -60 c 1,39,40
 62 -59 62 -59 75.5 -44.5 c 128,-1,41
 89 -30 89 -30 89 5 c 2,42,-1
 89 136 l 2,43,44
 89 189 89 189 107.5 223.5 c 128,-1,45
 126 258 126 258 159 275 c 1,0,1
EndSplineSet
EndChar

StartChar: asciitilde
Encoding: 126 126 97
Width: 448
Flags: W
LayerCount: 2
Fore
SplineSet
312 282 m 0,0,1
 339 282 339 282 350.5 296.5 c 128,-1,2
 362 311 362 311 370 327 c 1,3,4
 392 327 392 327 407.5 315 c 128,-1,5
 423 303 423 303 423 283 c 0,6,7
 423 252 423 252 397 232.5 c 128,-1,8
 371 213 371 213 329 213 c 0,9,10
 289 213 289 213 255 223.5 c 128,-1,11
 221 234 221 234 192 244 c 128,-1,12
 163 254 163 254 136 254 c 256,13,14
 109 254 109 254 97.5 239.5 c 128,-1,15
 86 225 86 225 78 209 c 1,16,17
 56 209 56 209 40.5 221 c 128,-1,18
 25 233 25 233 25 253 c 0,19,20
 25 274 25 274 37 290 c 128,-1,21
 49 306 49 306 70.5 314.5 c 128,-1,22
 92 323 92 323 119 323 c 0,23,24
 160 323 160 323 194 313 c 128,-1,25
 228 303 228 303 257 292.5 c 128,-1,26
 286 282 286 282 312 282 c 0,0,1
EndSplineSet
EndChar

StartChar: exclamdown
Encoding: 161 161 99
Width: 250
Flags: W
LayerCount: 2
Fore
SplineSet
86 -126 m 0,0,1
 86 -96 86 -96 86.5 -47.5 c 128,-1,2
 87 1 87 1 88.5 57.5 c 128,-1,3
 90 114 90 114 92 169.5 c 128,-1,4
 94 225 94 225 96 269 c 1,5,6
 102 274 102 274 110.5 276.5 c 128,-1,7
 119 279 119 279 129 279 c 0,8,9
 143 279 143 279 152 273 c 128,-1,10
 161 267 161 267 162 254 c 0,11,12
 164 225 164 225 166 174 c 128,-1,13
 168 123 168 123 169 62.5 c 128,-1,14
 170 2 170 2 170.5 -56 c 128,-1,15
 171 -114 171 -114 171 -156 c 1,16,17
 150 -169 150 -169 126 -169 c 0,18,19
 107 -169 107 -169 96.5 -158.5 c 128,-1,20
 86 -148 86 -148 86 -126 c 0,0,1
184 411 m 256,21,22
 184 387 184 387 169 371 c 128,-1,23
 154 355 154 355 128 355 c 256,24,25
 102 355 102 355 87 371 c 128,-1,26
 72 387 72 387 72 411 c 256,27,28
 72 435 72 435 87 451 c 128,-1,29
 102 467 102 467 128 467 c 256,30,31
 154 467 154 467 169 451 c 128,-1,32
 184 435 184 435 184 411 c 256,21,22
EndSplineSet
EndChar

StartChar: cent
Encoding: 162 162 100
Width: 843
Flags: W
LayerCount: 2
Fore
SplineSet
556 343 m 1,0,-1
 653 343 l 1,1,2
 655 338 655 338 657 330.5 c 128,-1,3
 659 323 659 323 659 317 c 0,4,5
 659 302 659 302 651 293 c 128,-1,6
 643 284 643 284 626 284 c 2,7,-1
 414 284 l 1,8,9
 411 291 411 291 409 298.5 c 128,-1,10
 407 306 407 306 407 313 c 0,11,12
 407 327 407 327 416 335.5 c 128,-1,13
 425 344 425 344 442 344 c 2,14,-1
 539 344 l 1,15,-1
 556 343 l 1,0,-1
642 343 m 1,16,-1
 549 329 l 1,17,18
 521 340 521 340 498 370.5 c 128,-1,19
 475 401 475 401 475 446 c 0,20,21
 475 485 475 485 494 517 c 128,-1,22
 513 549 513 549 546.5 568 c 128,-1,23
 580 587 580 587 625 587 c 0,24,25
 682 587 682 587 721 557.5 c 128,-1,26
 760 528 760 528 780 478 c 128,-1,27
 800 428 800 428 800 365 c 0,28,29
 800 290 800 290 774.5 222.5 c 128,-1,30
 749 155 749 155 700 103 c 128,-1,31
 651 51 651 51 581.5 21.5 c 128,-1,32
 512 -8 512 -8 423 -8 c 256,33,34
 334 -8 334 -8 263.5 20.5 c 128,-1,35
 193 49 193 49 144 100 c 128,-1,36
 95 151 95 151 69 219 c 128,-1,37
 43 287 43 287 43 366 c 0,38,39
 43 441 43 441 66.5 490 c 128,-1,40
 90 539 90 539 129 563 c 128,-1,41
 168 587 168 587 214 587 c 1,42,43
 214 587 214 587 203.5 576.5 c 128,-1,44
 193 566 193 566 178 550.5 c 128,-1,45
 163 535 163 535 148 519.5 c 128,-1,46
 133 504 133 504 122.5 493.5 c 128,-1,47
 112 483 112 483 112 483 c 257,48,49
 112 483 112 483 112 463.5 c 128,-1,50
 112 444 112 444 112.5 418.5 c 128,-1,51
 113 393 113 393 113 373.5 c 128,-1,52
 113 354 113 354 113 354 c 2,53,54
 115 263 115 263 158 196.5 c 128,-1,55
 201 130 201 130 271 94.5 c 128,-1,56
 341 59 341 59 422 59 c 256,57,58
 503 59 503 59 572 96 c 128,-1,59
 641 133 641 133 683 202.5 c 128,-1,60
 725 272 725 272 725 370 c 0,61,62
 725 448 725 448 698 484.5 c 128,-1,63
 671 521 671 521 627 521 c 0,64,65
 593 521 593 521 571.5 498 c 128,-1,66
 550 475 550 475 550 437 c 0,67,68
 550 397 550 397 575 370 c 128,-1,69
 600 343 600 343 642 343 c 1,16,-1
222 298 m 0,70,71
 198 298 198 298 174.5 305.5 c 128,-1,72
 151 313 151 313 131.5 329 c 128,-1,73
 112 345 112 345 100.5 373 c 128,-1,74
 89 401 89 401 89 441 c 0,75,76
 89 484 89 484 106.5 516.5 c 128,-1,77
 124 549 124 549 153 568 c 128,-1,78
 182 587 182 587 214 587 c 0,79,80
 263 587 263 587 296.5 566 c 128,-1,81
 330 545 330 545 348 512.5 c 128,-1,82
 366 480 366 480 366 443 c 0,83,84
 366 403 366 403 347.5 370 c 128,-1,85
 329 337 329 337 297 317.5 c 128,-1,86
 265 298 265 298 222 298 c 0,70,71
212 364 m 0,87,88
 248 364 248 364 270 386 c 128,-1,89
 292 408 292 408 292 442 c 0,90,91
 292 477 292 477 270 499 c 128,-1,92
 248 521 248 521 212 521 c 0,93,94
 178 521 178 521 155 499 c 128,-1,95
 132 477 132 477 132 442 c 0,96,97
 132 408 132 408 155 386 c 128,-1,98
 178 364 178 364 212 364 c 0,87,88
EndSplineSet
EndChar

StartChar: sterling
Encoding: 163 163 101
Width: 597
Flags: W
AnchorPoint: "Anchor-0" 295 0 basechar 0
LayerCount: 2
Fore
SplineSet
550 167 m 0,0,1
 550 120 550 120 522.5 80 c 128,-1,2
 495 40 495 40 437.5 16 c 128,-1,3
 380 -8 380 -8 291 -8 c 0,4,5
 246 -8 246 -8 202 1.5 c 128,-1,6
 158 11 158 11 122 28 c 128,-1,7
 86 45 86 45 64 66.5 c 128,-1,8
 42 88 42 88 42 111 c 0,9,10
 42 124 42 124 51 135 c 128,-1,11
 60 146 60 146 79 152 c 1,12,13
 113 112 113 112 168.5 86.5 c 128,-1,14
 224 61 224 61 296 61 c 0,15,16
 393 61 393 61 433.5 93 c 128,-1,17
 474 125 474 125 474 168 c 0,18,19
 474 212 474 212 441 234 c 128,-1,20
 408 256 408 256 349 261 c 2,21,-1
 241 270 l 2,22,23
 147 278 147 278 96.5 314 c 128,-1,24
 46 350 46 350 46 422 c 0,25,26
 46 472 46 472 77.5 508.5 c 128,-1,27
 109 545 109 545 163 564.5 c 128,-1,28
 217 584 217 584 284 584 c 0,29,30
 345 584 345 584 396.5 570.5 c 128,-1,31
 448 557 448 557 479.5 536 c 128,-1,32
 511 515 511 515 511 493 c 0,33,34
 511 481 511 481 502.5 471 c 128,-1,35
 494 461 494 461 482 457 c 1,36,37
 452 480 452 480 403.5 500 c 128,-1,38
 355 520 355 520 289 520 c 0,39,40
 202 520 202 520 162 490.5 c 128,-1,41
 122 461 122 461 122 420 c 0,42,43
 122 386 122 386 149 365 c 128,-1,44
 176 344 176 344 250 337 c 2,45,-1
 351 328 l 2,46,47
 414 323 414 323 458.5 303.5 c 128,-1,48
 503 284 503 284 526.5 250 c 128,-1,49
 550 216 550 216 550 167 c 0,0,1
139 715 m 0,50,51
 156 715 156 715 171.5 703.5 c 128,-1,52
 187 692 187 692 212.5 664 c 128,-1,53
 238 636 238 636 283 586 c 1,54,55
 299 610 299 610 321 641 c 128,-1,56
 343 672 343 672 374.5 711 c 128,-1,57
 406 750 406 750 449 797 c 2,58,-1
 480 831 l 1,59,60
 502 830 502 830 515 819 c 128,-1,61
 528 808 528 808 528 791 c 0,62,63
 528 781 528 781 522.5 771.5 c 128,-1,64
 517 762 517 762 503 748 c 0,65,66
 441 679 441 679 404.5 637 c 128,-1,67
 368 595 368 595 346.5 573 c 128,-1,68
 325 551 325 551 311.5 543.5 c 128,-1,69
 298 536 298 536 283 536 c 0,70,71
 266 536 266 536 246.5 547 c 128,-1,72
 227 558 227 558 193 587 c 128,-1,73
 159 616 159 616 100 670 c 1,74,75
 100 687 100 687 110.5 701 c 128,-1,76
 121 715 121 715 139 715 c 0,50,51
EndSplineSet
EndChar

StartChar: currency
Encoding: 164 164 102
Width: 834
Flags: W
AnchorPoint: "Anchor-0" 398 -110 basechar 0
LayerCount: 2
Fore
SplineSet
440 322 m 0,0,1
 440 264 440 264 426.5 210.5 c 128,-1,2
 413 157 413 157 390 122 c 0,3,4
 383 109 383 109 381 105 c 128,-1,5
 379 101 379 101 371 89 c 0,6,7
 337 40 337 40 291.5 16 c 128,-1,8
 246 -8 246 -8 187 -8 c 0,9,10
 117 -8 117 -8 74.5 26.5 c 128,-1,11
 32 61 32 61 32 122 c 0,12,13
 32 166 32 166 52.5 194.5 c 128,-1,14
 73 223 73 223 108.5 237.5 c 128,-1,15
 144 252 144 252 188 252 c 0,16,17
 246 252 246 252 286 226 c 128,-1,18
 326 200 326 200 357 167 c 0,19,20
 368 155 368 155 372 152.5 c 128,-1,21
 376 150 376 150 379.5 148 c 128,-1,22
 383 146 383 146 392 135 c 0,23,24
 427 93 427 93 467.5 76 c 128,-1,25
 508 59 508 59 551 59 c 0,26,27
 622 59 622 59 663 116 c 128,-1,28
 704 173 704 173 704 269 c 0,29,30
 704 347 704 347 676 403 c 128,-1,31
 648 459 648 459 602.5 491.5 c 128,-1,32
 557 524 557 524 505 533 c 1,33,34
 504 538 504 538 504 542 c 128,-1,35
 504 546 504 546 504 549 c 0,36,37
 504 565 504 565 513.5 576 c 128,-1,38
 523 587 523 587 545 587 c 0,39,40
 576 587 576 587 616 566 c 128,-1,41
 656 545 656 545 693.5 504.5 c 128,-1,42
 731 464 731 464 755.5 404.5 c 128,-1,43
 780 345 780 345 780 268 c 0,44,45
 780 182 780 182 752 120 c 128,-1,46
 724 58 724 58 673 25 c 128,-1,47
 622 -8 622 -8 553 -8 c 0,48,49
 482 -8 482 -8 433.5 20 c 128,-1,50
 385 48 385 48 347 89 c 1,51,-1
 330 103 l 1,52,53
 298 142 298 142 266.5 165 c 128,-1,54
 235 188 235 188 189 188 c 0,55,56
 154 188 154 188 130 171.5 c 128,-1,57
 106 155 106 155 106 122 c 0,58,59
 106 92 106 92 129 74 c 128,-1,60
 152 56 152 56 189 56 c 0,61,62
 235 56 235 56 269.5 80.5 c 128,-1,63
 304 105 304 105 326 146 c 0,64,65
 331 154 331 154 331.5 156 c 128,-1,66
 332 158 332 158 333 160 c 128,-1,67
 334 162 334 162 338 170 c 0,68,69
 354 202 354 202 361.5 242 c 128,-1,70
 369 282 369 282 369 322 c 0,71,72
 369 346 369 346 366.5 367 c 128,-1,73
 364 388 364 388 359 408 c 0,74,75
 355 422 355 422 351 429.5 c 128,-1,76
 347 437 347 437 342 448 c 0,77,78
 329 480 329 480 301.5 503.5 c 128,-1,79
 274 527 274 527 236 527 c 0,80,81
 201 527 201 527 182 510 c 128,-1,82
 163 493 163 493 163 467 c 0,83,84
 163 445 163 445 180.5 427 c 128,-1,85
 198 409 198 409 236 409 c 256,86,87
 274 409 274 409 304.5 433.5 c 128,-1,88
 335 458 335 458 346 495 c 1,89,-1
 376 428 l 1,90,91
 364 394 364 394 324.5 369 c 128,-1,92
 285 344 285 344 238 344 c 0,93,94
 199 344 199 344 164.5 357.5 c 128,-1,95
 130 371 130 371 109 398.5 c 128,-1,96
 88 426 88 426 88 468 c 0,97,98
 88 500 88 500 104 527 c 128,-1,99
 120 554 120 554 153 570.5 c 128,-1,100
 186 587 186 587 236 587 c 0,101,102
 287 587 287 587 325.5 565 c 128,-1,103
 364 543 364 543 389.5 505 c 128,-1,104
 415 467 415 467 427.5 420 c 128,-1,105
 440 373 440 373 440 322 c 0,0,1
360 -168 m 256,106,107
 339 -168 339 -168 324 -154.5 c 128,-1,108
 309 -141 309 -141 309 -110 c 0,109,110
 309 -84 309 -84 319.5 -59.5 c 128,-1,111
 330 -35 330 -35 341 -20 c 0,112,113
 351 -7 351 -7 360 -7 c 256,114,115
 369 -7 369 -7 379 -20 c 0,116,117
 390 -35 390 -35 400.5 -59.5 c 128,-1,118
 411 -84 411 -84 411 -110 c 0,119,120
 411 -141 411 -141 396 -154.5 c 128,-1,121
 381 -168 381 -168 360 -168 c 256,106,107
EndSplineSet
EndChar

StartChar: yen
Encoding: 165 165 103
Width: 690
Flags: W
AnchorPoint: "Anchor-0" 345 0 basechar 0
LayerCount: 2
Fore
SplineSet
345 520 m 256,0,1
 288 520 288 520 239 491 c 128,-1,2
 190 462 190 462 160 405 c 128,-1,3
 130 348 130 348 130 263 c 0,4,5
 130 177 130 177 159 117.5 c 128,-1,6
 188 58 188 58 221 28 c 1,7,8
 217 17 217 17 207 6 c 128,-1,9
 197 -5 197 -5 180 -5 c 0,10,11
 153 -5 153 -5 123.5 31 c 128,-1,12
 94 67 94 67 74 127.5 c 128,-1,13
 54 188 54 188 54 263 c 0,14,15
 54 342 54 342 77.5 402 c 128,-1,16
 101 462 101 462 141.5 502 c 128,-1,17
 182 542 182 542 234.5 562.5 c 128,-1,18
 287 583 287 583 345 583 c 256,19,20
 403 583 403 583 455.5 562.5 c 128,-1,21
 508 542 508 542 548.5 502 c 128,-1,22
 589 462 589 462 612.5 402 c 128,-1,23
 636 342 636 342 636 263 c 0,24,25
 636 188 636 188 616 127.5 c 128,-1,26
 596 67 596 67 567.5 31 c 128,-1,27
 539 -5 539 -5 511 -5 c 0,28,29
 495 -5 495 -5 484.5 5 c 128,-1,30
 474 15 474 15 469 28 c 1,31,32
 502 58 502 58 531 117.5 c 128,-1,33
 560 177 560 177 560 263 c 0,34,35
 560 348 560 348 530 405 c 128,-1,36
 500 462 500 462 451 491 c 128,-1,37
 402 520 402 520 345 520 c 256,0,1
198 715 m 0,38,39
 215 715 215 715 230.5 703 c 128,-1,40
 246 691 246 691 271.5 662.5 c 128,-1,41
 297 634 297 634 342 584 c 1,42,43
 359 608 359 608 383 639 c 128,-1,44
 407 670 407 670 440.5 709.5 c 128,-1,45
 474 749 474 749 518 797 c 2,46,-1
 549 831 l 1,47,48
 571 830 571 830 584 819 c 128,-1,49
 597 808 597 808 597 791 c 0,50,51
 597 781 597 781 591.5 771.5 c 128,-1,52
 586 762 586 762 572 748 c 0,53,54
 508 679 508 679 469.5 636.5 c 128,-1,55
 431 594 431 594 409 572 c 128,-1,56
 387 550 387 550 372.5 542 c 128,-1,57
 358 534 358 534 342 534 c 0,58,59
 325 534 325 534 305 545 c 128,-1,60
 285 556 285 556 251.5 585.5 c 128,-1,61
 218 615 218 615 159 670 c 1,62,63
 159 687 159 687 169.5 701 c 128,-1,64
 180 715 180 715 198 715 c 0,38,39
EndSplineSet
EndChar

StartChar: brokenbar
Encoding: 166 166 104
Width: 1149
Flags: W
AnchorPoint: "Anchor-0" 610 -90 basechar 0
LayerCount: 2
Fore
SplineSet
369 -168 m 1,0,-1
 369 -168 l 1,1,2
 348 -168 348 -168 333 -154.5 c 128,-1,3
 318 -141 318 -141 318 -110 c 0,4,5
 318 -84 318 -84 328.5 -59.5 c 128,-1,6
 339 -35 339 -35 350 -20 c 0,7,8
 360 -7 360 -7 369 -7 c 256,9,10
 378 -7 378 -7 388 -20 c 0,11,12
 399 -35 399 -35 409.5 -59.5 c 128,-1,13
 420 -84 420 -84 420 -110 c 0,14,15
 420 -141 420 -141 405 -154.5 c 128,-1,16
 390 -168 390 -168 369 -168 c 1,0,-1
110 713 m 0,17,18
 125 713 125 713 138.5 702 c 128,-1,19
 152 691 152 691 174 663.5 c 128,-1,20
 196 636 196 636 235 586 c 1,21,22
 252 610 252 610 276 640.5 c 128,-1,23
 300 671 300 671 333 710 c 128,-1,24
 366 749 366 749 410 797 c 2,25,-1
 441 831 l 1,26,27
 463 830 463 830 476 819 c 128,-1,28
 489 808 489 808 489 791 c 0,29,30
 489 781 489 781 483.5 771.5 c 128,-1,31
 478 762 478 762 464 748 c 0,32,33
 401 679 401 679 363.5 636 c 128,-1,34
 326 593 326 593 304 570.5 c 128,-1,35
 282 548 282 548 267 539.5 c 128,-1,36
 252 531 252 531 234 531 c 0,37,38
 217 531 217 531 198.5 542.5 c 128,-1,39
 180 554 180 554 151 584.5 c 128,-1,40
 122 615 122 615 71 670 c 1,41,42
 72 687 72 687 82 700 c 128,-1,43
 92 713 92 713 110 713 c 0,17,18
117 161 m 256,44,45
 117 114 117 114 145.5 86 c 128,-1,46
 174 58 174 58 219 58 c 256,47,48
 264 58 264 58 292.5 86 c 128,-1,49
 321 114 321 114 321 161 c 256,50,51
 321 208 321 208 292.5 236.5 c 128,-1,52
 264 265 264 265 219 265 c 256,53,54
 174 265 174 265 145.5 236.5 c 128,-1,55
 117 208 117 208 117 161 c 256,44,45
742 241 m 0,56,57
 742 158 742 158 715 102.5 c 128,-1,58
 688 47 688 47 640 19.5 c 128,-1,59
 592 -8 592 -8 529 -8 c 0,60,61
 463 -8 463 -8 419 23 c 128,-1,62
 375 54 375 54 358 97 c 1,63,-1
 383 107 l 1,64,65
 373 76 373 76 350 49.5 c 128,-1,66
 327 23 327 23 293 7.5 c 128,-1,67
 259 -8 259 -8 215 -8 c 0,68,69
 164 -8 164 -8 125 13.5 c 128,-1,70
 86 35 86 35 64 73 c 128,-1,71
 42 111 42 111 42 161 c 256,72,73
 42 211 42 211 64 249.5 c 128,-1,74
 86 288 86 288 126 309.5 c 128,-1,75
 166 331 166 331 219 331 c 0,76,77
 296 331 296 331 340 289.5 c 128,-1,78
 384 248 384 248 396 182 c 0,79,80
 407 121 407 121 442.5 90 c 128,-1,81
 478 59 478 59 529 59 c 0,82,83
 589 59 589 59 627.5 105 c 128,-1,84
 666 151 666 151 666 242 c 0,85,86
 666 335 666 335 635 395.5 c 128,-1,87
 604 456 604 456 554.5 488.5 c 128,-1,88
 505 521 505 521 448 530 c 1,89,90
 447 535 447 535 446 540 c 128,-1,91
 445 545 445 545 445 549 c 0,92,93
 445 565 445 565 454 576 c 128,-1,94
 463 587 463 587 488 587 c 0,95,96
 518 587 518 587 560.5 566.5 c 128,-1,97
 603 546 603 546 645 504 c 128,-1,98
 687 462 687 462 714.5 396.5 c 128,-1,99
 742 331 742 331 742 241 c 0,56,57
844 59 m 0,100,101
 921 59 921 59 970 114 c 128,-1,102
 1019 169 1019 169 1019 275 c 0,103,104
 1019 356 1019 356 988.5 411 c 128,-1,105
 958 466 958 466 910.5 496 c 128,-1,106
 863 526 863 526 813 533 c 1,107,108
 812 538 812 538 812 542 c 128,-1,109
 812 546 812 546 812 549 c 0,110,111
 812 565 812 565 821.5 576 c 128,-1,112
 831 587 831 587 853 587 c 0,113,114
 883 587 883 587 924 568 c 128,-1,115
 965 549 965 549 1004 510.5 c 128,-1,116
 1043 472 1043 472 1069 413 c 128,-1,117
 1095 354 1095 354 1095 273 c 256,118,119
 1095 192 1095 192 1065.5 128.5 c 128,-1,120
 1036 65 1036 65 982 28.5 c 128,-1,121
 928 -8 928 -8 854 -8 c 0,122,123
 784 -8 784 -8 733 17 c 128,-1,124
 682 42 682 42 648 85 c 1,125,-1
 691 143 l 1,126,127
 715 105 715 105 754.5 82 c 128,-1,128
 794 59 794 59 844 59 c 0,100,101
EndSplineSet
EndChar

StartChar: section
Encoding: 167 167 105
Width: 846
Flags: W
AnchorPoint: "Anchor-0" 448 0 basechar 0
LayerCount: 2
Fore
SplineSet
289 -8 m 0,0,1
 233 -8 233 -8 190 17 c 128,-1,2
 147 42 147 42 123.5 85.5 c 128,-1,3
 100 129 100 129 100 185 c 256,4,5
 100 241 100 241 129.5 284 c 128,-1,6
 159 327 159 327 226 341 c 1,7,-1
 295 312 l 1,8,9
 236 308 236 308 206 270.5 c 128,-1,10
 176 233 176 233 176 181 c 256,11,12
 176 129 176 129 208.5 94 c 128,-1,13
 241 59 241 59 294 59 c 0,14,15
 350 59 350 59 381 90 c 128,-1,16
 412 121 412 121 412 172 c 1,17,-1
 472 172 l 1,18,19
 472 115 472 115 448 74.5 c 128,-1,20
 424 34 424 34 383 13 c 128,-1,21
 342 -8 342 -8 289 -8 c 0,0,1
250 312 m 1,22,-1
 29 312 l 1,23,24
 26 319 26 319 24 326.5 c 128,-1,25
 22 334 22 334 22 342 c 0,26,27
 22 356 22 356 31 364 c 128,-1,28
 40 372 40 372 58 372 c 2,29,-1
 250 372 l 1,30,-1
 250 312 l 1,22,-1
158 372 m 1,31,-1
 323 372 l 1,32,33
 326 367 326 367 328.5 359 c 128,-1,34
 331 351 331 351 331 342 c 0,35,36
 331 332 331 332 328.5 324 c 128,-1,37
 326 316 326 316 323 312 c 1,38,-1
 158 312 l 1,39,-1
 158 372 l 1,31,-1
484 116 m 1,40,-1
 412 116 l 1,41,-1
 412 213 l 1,42,43
 418 218 418 218 427.5 221 c 128,-1,44
 437 224 437 224 448 224 c 256,45,46
 459 224 459 224 468.5 221 c 128,-1,47
 478 218 478 218 484 213 c 1,48,-1
 484 116 l 1,40,-1
796 231 m 0,49,50
 796 153 796 153 770.5 100 c 128,-1,51
 745 47 745 47 701 19.5 c 128,-1,52
 657 -8 657 -8 599 -8 c 0,53,54
 552 -8 552 -8 512 13 c 128,-1,55
 472 34 472 34 448 74.5 c 128,-1,56
 424 115 424 115 424 172 c 1,57,-1
 484 172 l 1,58,59
 484 121 484 121 515.5 90 c 128,-1,60
 547 59 547 59 594 59 c 0,61,62
 649 59 649 59 684.5 102 c 128,-1,63
 720 145 720 145 720 230 c 0,64,65
 720 314 720 314 686.5 379 c 128,-1,66
 653 444 653 444 589 483 c 128,-1,67
 525 522 525 522 433 525 c 0,68,69
 414 526 414 526 392.5 539 c 128,-1,70
 371 552 371 552 336.5 583.5 c 128,-1,71
 302 615 302 615 243 668 c 1,72,73
 243 685 243 685 254 699 c 128,-1,74
 265 713 265 713 283 713 c 0,75,76
 300 713 300 713 316.5 701 c 128,-1,77
 333 689 333 689 360 660.5 c 128,-1,78
 387 632 387 632 435 582 c 1,79,80
 447 600 447 600 467 622 c 128,-1,81
 487 644 487 644 513 671 c 128,-1,82
 539 698 539 698 569.5 729.5 c 128,-1,83
 600 761 600 761 633 797 c 2,84,-1
 664 831 l 1,85,86
 686 830 686 830 699 819 c 128,-1,87
 712 808 712 808 712 791 c 0,88,89
 712 781 712 781 706.5 771.5 c 128,-1,90
 701 762 701 762 687 748 c 0,91,92
 620 678 620 678 573 634.5 c 128,-1,93
 526 591 526 591 500 566 c 1,94,-1
 461 585 l 1,95,96
 526 582 526 582 586 557.5 c 128,-1,97
 646 533 646 533 693.5 488 c 128,-1,98
 741 443 741 443 768.5 378.5 c 128,-1,99
 796 314 796 314 796 231 c 0,49,50
EndSplineSet
EndChar

StartChar: dieresis
Encoding: 168 168 106
Width: 846
Flags: W
AnchorPoint: "Anchor-0" 449 -110 basechar 0
LayerCount: 2
Fore
SplineSet
448 -168 m 256,0,1
 427 -168 427 -168 412 -154.5 c 128,-1,2
 397 -141 397 -141 397 -110 c 0,3,4
 397 -84 397 -84 407.5 -59.5 c 128,-1,5
 418 -35 418 -35 429 -20 c 0,6,7
 439 -7 439 -7 448 -7 c 256,8,9
 457 -7 457 -7 467 -20 c 0,10,11
 478 -35 478 -35 488.5 -59.5 c 128,-1,12
 499 -84 499 -84 499 -110 c 0,13,14
 499 -141 499 -141 484 -154.5 c 128,-1,15
 469 -168 469 -168 448 -168 c 256,0,1
289 -8 m 0,16,17
 233 -8 233 -8 190 17 c 128,-1,18
 147 42 147 42 123.5 85.5 c 128,-1,19
 100 129 100 129 100 185 c 256,20,21
 100 241 100 241 129.5 284 c 128,-1,22
 159 327 159 327 226 341 c 1,23,-1
 295 312 l 1,24,25
 236 308 236 308 206 270.5 c 128,-1,26
 176 233 176 233 176 181 c 256,27,28
 176 129 176 129 208.5 94 c 128,-1,29
 241 59 241 59 294 59 c 0,30,31
 350 59 350 59 381 90 c 128,-1,32
 412 121 412 121 412 172 c 1,33,-1
 472 172 l 1,34,35
 472 115 472 115 448 74.5 c 128,-1,36
 424 34 424 34 383 13 c 128,-1,37
 342 -8 342 -8 289 -8 c 0,16,17
250 312 m 1,38,-1
 29 312 l 1,39,40
 26 319 26 319 24 326.5 c 128,-1,41
 22 334 22 334 22 342 c 0,42,43
 22 356 22 356 31 364 c 128,-1,44
 40 372 40 372 58 372 c 2,45,-1
 250 372 l 1,46,-1
 250 312 l 1,38,-1
158 372 m 1,47,-1
 323 372 l 1,48,49
 326 367 326 367 328.5 359 c 128,-1,50
 331 351 331 351 331 342 c 0,51,52
 331 332 331 332 328.5 324 c 128,-1,53
 326 316 326 316 323 312 c 1,54,-1
 158 312 l 1,55,-1
 158 372 l 1,47,-1
484 116 m 1,56,-1
 412 116 l 1,57,-1
 412 213 l 1,58,59
 418 218 418 218 427.5 221 c 128,-1,60
 437 224 437 224 448 224 c 256,61,62
 459 224 459 224 468.5 221 c 128,-1,63
 478 218 478 218 484 213 c 1,64,-1
 484 116 l 1,56,-1
796 231 m 0,65,66
 796 153 796 153 770.5 100 c 128,-1,67
 745 47 745 47 701 19.5 c 128,-1,68
 657 -8 657 -8 599 -8 c 0,69,70
 552 -8 552 -8 512 13 c 128,-1,71
 472 34 472 34 448 74.5 c 128,-1,72
 424 115 424 115 424 172 c 1,73,-1
 484 172 l 1,74,75
 484 121 484 121 515.5 90 c 128,-1,76
 547 59 547 59 594 59 c 0,77,78
 649 59 649 59 684.5 102 c 128,-1,79
 720 145 720 145 720 230 c 0,80,81
 720 314 720 314 686.5 379 c 128,-1,82
 653 444 653 444 589 483 c 128,-1,83
 525 522 525 522 433 525 c 0,84,85
 414 526 414 526 392.5 539 c 128,-1,86
 371 552 371 552 336.5 583.5 c 128,-1,87
 302 615 302 615 243 668 c 1,88,89
 243 685 243 685 254 699 c 128,-1,90
 265 713 265 713 283 713 c 0,91,92
 300 713 300 713 316.5 701 c 128,-1,93
 333 689 333 689 360 660.5 c 128,-1,94
 387 632 387 632 435 582 c 1,95,96
 447 600 447 600 467 622 c 128,-1,97
 487 644 487 644 513 671 c 128,-1,98
 539 698 539 698 569.5 729.5 c 128,-1,99
 600 761 600 761 633 797 c 2,100,-1
 664 831 l 1,101,102
 686 830 686 830 699 819 c 128,-1,103
 712 808 712 808 712 791 c 0,104,105
 712 781 712 781 706.5 771.5 c 128,-1,106
 701 762 701 762 687 748 c 0,107,108
 620 678 620 678 573 634.5 c 128,-1,109
 526 591 526 591 500 566 c 1,110,-1
 461 585 l 1,111,112
 526 582 526 582 586 557.5 c 128,-1,113
 646 533 646 533 693.5 488 c 128,-1,114
 741 443 741 443 768.5 378.5 c 128,-1,115
 796 314 796 314 796 231 c 0,65,66
EndSplineSet
EndChar

StartChar: copyright
Encoding: 169 169 107
Width: 803
Flags: W
AnchorPoint: "Anchor-0" 404 0 basechar 0
LayerCount: 2
Fore
SplineSet
687 506 m 0,0,1
 687 465 687 465 667.5 433 c 128,-1,2
 648 401 648 401 611.5 383 c 128,-1,3
 575 365 575 365 525 365 c 0,4,5
 466 365 466 365 423.5 385.5 c 128,-1,6
 381 406 381 406 353 432 c 1,7,8
 353 432 353 432 355.5 443 c 128,-1,9
 358 454 358 454 362.5 468 c 128,-1,10
 367 482 367 482 371 491 c 1,11,12
 400 458 400 458 439 443 c 128,-1,13
 478 428 478 428 514 428 c 0,14,15
 561 428 561 428 587.5 451.5 c 128,-1,16
 614 475 614 475 614 512 c 0,17,18
 614 530 614 530 610.5 545 c 128,-1,19
 607 560 607 560 602 569 c 1,20,21
 609 577 609 577 618.5 582 c 128,-1,22
 628 587 628 587 641 587 c 0,23,24
 662 587 662 587 674.5 565.5 c 128,-1,25
 687 544 687 544 687 506 c 0,0,1
442 116 m 1,26,-1
 370 116 l 1,27,-1
 370 213 l 1,28,29
 376 218 376 218 385.5 221 c 128,-1,30
 395 224 395 224 406 224 c 256,31,32
 417 224 417 224 426.5 221 c 128,-1,33
 436 218 436 218 442 213 c 1,34,-1
 442 116 l 1,26,-1
563 -8 m 0,35,36
 513 -8 513 -8 471.5 13.5 c 128,-1,37
 430 35 430 35 405.5 76 c 128,-1,38
 381 117 381 117 381 173 c 1,39,-1
 442 173 l 1,40,41
 442 121 442 121 475 90 c 128,-1,42
 508 59 508 59 559 59 c 0,43,44
 615 59 615 59 645.5 92.5 c 128,-1,45
 676 126 676 126 676 172 c 0,46,47
 676 204 676 204 664.5 231.5 c 128,-1,48
 653 259 653 259 631 278 c 1,49,50
 636 288 636 288 646.5 297.5 c 128,-1,51
 657 307 657 307 673 307 c 0,52,53
 691 307 691 307 709 290 c 128,-1,54
 727 273 727 273 739 242.5 c 128,-1,55
 751 212 751 212 751 169 c 0,56,57
 751 119 751 119 729.5 79 c 128,-1,58
 708 39 708 39 666 15.5 c 128,-1,59
 624 -8 624 -8 563 -8 c 0,35,36
370 173 m 1,60,-1
 432 173 l 1,61,62
 432 122 432 122 409 81 c 128,-1,63
 386 40 386 40 343.5 16 c 128,-1,64
 301 -8 301 -8 241 -8 c 0,65,66
 186 -8 186 -8 143 13 c 128,-1,67
 100 34 100 34 76 70.5 c 128,-1,68
 52 107 52 107 52 155 c 0,69,70
 52 208 52 208 81.5 244 c 128,-1,71
 111 280 111 280 162 307 c 2,72,-1
 217 336 l 2,73,74
 264 361 264 361 288.5 385.5 c 128,-1,75
 313 410 313 410 313 444 c 0,76,77
 313 479 313 479 288.5 501.5 c 128,-1,78
 264 524 264 524 222 524 c 0,79,80
 176 524 176 524 152.5 500.5 c 128,-1,81
 129 477 129 477 129 442 c 0,82,83
 129 423 129 423 135 408 c 128,-1,84
 141 393 141 393 149 385 c 1,85,86
 144 375 144 375 135 368 c 128,-1,87
 126 361 126 361 111 361 c 0,88,89
 90 361 90 361 73 383.5 c 128,-1,90
 56 406 56 406 56 446 c 0,91,92
 56 487 56 487 77.5 519 c 128,-1,93
 99 551 99 551 136.5 569 c 128,-1,94
 174 587 174 587 222 587 c 0,95,96
 268 587 268 587 305 568.5 c 128,-1,97
 342 550 342 550 364.5 517 c 128,-1,98
 387 484 387 484 387 441 c 0,99,100
 387 387 387 387 353.5 351 c 128,-1,101
 320 315 320 315 273 290 c 2,102,-1
 217 261 l 2,103,104
 174 239 174 239 151 214 c 128,-1,105
 128 189 128 189 128 151 c 0,106,107
 128 110 128 110 161 84.5 c 128,-1,108
 194 59 194 59 246 59 c 256,109,110
 298 59 298 59 334 88.5 c 128,-1,111
 370 118 370 118 370 173 c 1,60,-1
EndSplineSet
EndChar

StartChar: ordfeminine
Encoding: 170 170 108
Width: 1372
Flags: W
AnchorPoint: "Anchor-0" 741 -110 basechar 0
LayerCount: 2
Fore
SplineSet
896 -168 m 256,0,1
 875 -168 875 -168 860 -154.5 c 128,-1,2
 845 -141 845 -141 845 -110 c 0,3,4
 845 -84 845 -84 855.5 -59.5 c 128,-1,5
 866 -35 866 -35 877 -20 c 0,6,7
 887 -7 887 -7 896 -7 c 256,8,9
 905 -7 905 -7 915 -20 c 0,10,11
 926 -35 926 -35 936.5 -59.5 c 128,-1,12
 947 -84 947 -84 947 -110 c 0,13,14
 947 -141 947 -141 932 -154.5 c 128,-1,15
 917 -168 917 -168 896 -168 c 256,0,1
1067 59 m 0,16,17
 1144 59 1144 59 1193 114 c 128,-1,18
 1242 169 1242 169 1242 275 c 0,19,20
 1242 356 1242 356 1211.5 411 c 128,-1,21
 1181 466 1181 466 1133.5 496 c 128,-1,22
 1086 526 1086 526 1036 533 c 1,23,24
 1035 538 1035 538 1035 542 c 128,-1,25
 1035 546 1035 546 1035 549 c 0,26,27
 1035 565 1035 565 1044.5 576 c 128,-1,28
 1054 587 1054 587 1076 587 c 0,29,30
 1106 587 1106 587 1147 568 c 128,-1,31
 1188 549 1188 549 1227 510.5 c 128,-1,32
 1266 472 1266 472 1292 413 c 128,-1,33
 1318 354 1318 354 1318 273 c 256,34,35
 1318 192 1318 192 1288.5 128.5 c 128,-1,36
 1259 65 1259 65 1205 28.5 c 128,-1,37
 1151 -8 1151 -8 1077 -8 c 0,38,39
 1007 -8 1007 -8 956 17 c 128,-1,40
 905 42 905 42 871 85 c 1,41,-1
 914 143 l 1,42,43
 938 105 938 105 977.5 82 c 128,-1,44
 1017 59 1017 59 1067 59 c 0,16,17
619 289 m 0,45,46
 619 208 619 208 585.5 140.5 c 128,-1,47
 552 73 552 73 489 32.5 c 128,-1,48
 426 -8 426 -8 337 -8 c 0,49,50
 249 -8 249 -8 185.5 32.5 c 128,-1,51
 122 73 122 73 88 140.5 c 128,-1,52
 54 208 54 208 54 289 c 0,53,54
 54 371 54 371 89 437.5 c 128,-1,55
 124 504 124 504 187.5 543.5 c 128,-1,56
 251 583 251 583 337 583 c 0,57,58
 424 583 424 583 487.5 544 c 128,-1,59
 551 505 551 505 585 438.5 c 128,-1,60
 619 372 619 372 619 289 c 0,45,46
543 289 m 0,61,62
 543 361 543 361 515.5 412.5 c 128,-1,63
 488 464 488 464 441.5 492 c 128,-1,64
 395 520 395 520 337 520 c 0,65,66
 278 520 278 520 231 492 c 128,-1,67
 184 464 184 464 157 412 c 128,-1,68
 130 360 130 360 130 289 c 0,69,70
 130 215 130 215 157 163.5 c 128,-1,71
 184 112 184 112 231 85.5 c 128,-1,72
 278 59 278 59 337 59 c 0,73,74
 427 59 427 59 485 118 c 128,-1,75
 543 177 543 177 543 289 c 0,61,62
190 715 m 0,76,77
 207 715 207 715 222.5 703 c 128,-1,78
 238 691 238 691 263.5 662.5 c 128,-1,79
 289 634 289 634 334 584 c 1,80,81
 351 608 351 608 375 639 c 128,-1,82
 399 670 399 670 432.5 709.5 c 128,-1,83
 466 749 466 749 510 797 c 2,84,-1
 541 831 l 1,85,86
 563 830 563 830 576 819 c 128,-1,87
 589 808 589 808 589 791 c 0,88,89
 589 781 589 781 583.5 771.5 c 128,-1,90
 578 762 578 762 564 748 c 0,91,92
 500 679 500 679 461.5 636.5 c 128,-1,93
 423 594 423 594 401 572 c 128,-1,94
 379 550 379 550 364.5 542 c 128,-1,95
 350 534 350 534 334 534 c 0,96,97
 317 534 317 534 297 545 c 128,-1,98
 277 556 277 556 243.5 585.5 c 128,-1,99
 210 615 210 615 151 670 c 1,100,101
 151 687 151 687 161.5 701 c 128,-1,102
 172 715 172 715 190 715 c 0,76,77
724 59 m 0,103,104
 801 59 801 59 850 114 c 128,-1,105
 899 169 899 169 899 275 c 0,106,107
 899 356 899 356 868.5 411 c 128,-1,108
 838 466 838 466 790.5 496 c 128,-1,109
 743 526 743 526 693 533 c 1,110,111
 692 538 692 538 692 542 c 128,-1,112
 692 546 692 546 692 549 c 0,113,114
 692 565 692 565 701.5 576 c 128,-1,115
 711 587 711 587 733 587 c 0,116,117
 763 587 763 587 804 568 c 128,-1,118
 845 549 845 549 884 510.5 c 128,-1,119
 923 472 923 472 949 413 c 128,-1,120
 975 354 975 354 975 273 c 256,121,122
 975 192 975 192 945.5 128.5 c 128,-1,123
 916 65 916 65 862 28.5 c 128,-1,124
 808 -8 808 -8 734 -8 c 0,125,126
 664 -8 664 -8 613 17 c 128,-1,127
 562 42 562 42 528 85 c 1,128,-1
 571 143 l 1,129,130
 595 105 595 105 634.5 82 c 128,-1,131
 674 59 674 59 724 59 c 0,103,104
EndSplineSet
EndChar

StartChar: guillemotleft
Encoding: 171 171 109
Width: 850
Flags: W
AnchorPoint: "Anchor-0" 429 0 basechar 0
LayerCount: 2
Fore
SplineSet
275 307 m 0,0,1
 243 307 243 307 210.5 320 c 128,-1,2
 178 333 178 333 157 363 c 128,-1,3
 136 393 136 393 136 444 c 0,4,5
 136 485 136 485 153 517.5 c 128,-1,6
 170 550 170 550 199 568.5 c 128,-1,7
 228 587 228 587 262 587 c 0,8,9
 309 587 309 587 343.5 567 c 128,-1,10
 378 547 378 547 396.5 515 c 128,-1,11
 415 483 415 483 415 447 c 0,12,13
 415 388 415 388 377.5 347.5 c 128,-1,14
 340 307 340 307 275 307 c 0,0,1
394 173 m 1,15,-1
 456 173 l 1,16,17
 456 121 456 121 434 80 c 128,-1,18
 412 39 412 39 371 15.5 c 128,-1,19
 330 -8 330 -8 272 -8 c 0,20,21
 208 -8 208 -8 159 25.5 c 128,-1,22
 110 59 110 59 82 124 c 128,-1,23
 54 189 54 189 54 283 c 0,24,25
 54 330 54 330 66.5 382.5 c 128,-1,26
 79 435 79 435 105 481.5 c 128,-1,27
 131 528 131 528 171 557.5 c 128,-1,28
 211 587 211 587 266 587 c 1,29,-1
 192 506 l 1,30,-1
 148 411 l 2,31,32
 140 386 140 386 134 353 c 128,-1,33
 128 320 128 320 128 276 c 0,34,35
 128 168 128 168 169.5 113.5 c 128,-1,36
 211 59 211 59 275 59 c 0,37,38
 324 59 324 59 359 88.5 c 128,-1,39
 394 118 394 118 394 173 c 1,15,-1
265 373 m 0,40,41
 300 373 300 373 320.5 394.5 c 128,-1,42
 341 416 341 416 341 447 c 256,43,44
 341 478 341 478 320 499.5 c 128,-1,45
 299 521 299 521 265 521 c 256,46,47
 231 521 231 521 210 499.5 c 128,-1,48
 189 478 189 478 189 446 c 0,49,50
 189 416 189 416 210 394.5 c 128,-1,51
 231 373 231 373 265 373 c 0,40,41
466 116 m 1,52,-1
 394 116 l 1,53,-1
 394 213 l 1,54,55
 400 218 400 218 409.5 221 c 128,-1,56
 419 224 419 224 430 224 c 256,57,58
 441 224 441 224 450.5 221 c 128,-1,59
 460 218 460 218 466 213 c 1,60,-1
 466 116 l 1,52,-1
588 -8 m 0,61,62
 532 -8 532 -8 490.5 15.5 c 128,-1,63
 449 39 449 39 426.5 80 c 128,-1,64
 404 121 404 121 404 173 c 1,65,-1
 466 173 l 1,66,67
 466 118 466 118 501 88.5 c 128,-1,68
 536 59 536 59 583 59 c 0,69,70
 645 59 645 59 682.5 105.5 c 128,-1,71
 720 152 720 152 720 244 c 0,72,73
 720 333 720 333 692 394 c 128,-1,74
 664 455 664 455 619.5 489.5 c 128,-1,75
 575 524 575 524 523 533 c 1,76,77
 522 538 522 538 522 542 c 128,-1,78
 522 546 522 546 522 549 c 0,79,80
 522 565 522 565 531.5 576 c 128,-1,81
 541 587 541 587 563 587 c 0,82,83
 593 587 593 587 633 565 c 128,-1,84
 673 543 673 543 710 499 c 128,-1,85
 747 455 747 455 771.5 391 c 128,-1,86
 796 327 796 327 796 243 c 256,87,88
 796 159 796 159 769 103.5 c 128,-1,89
 742 48 742 48 695 20 c 128,-1,90
 648 -8 648 -8 588 -8 c 0,61,62
289 536 m 1,91,-1
 235 536 l 1,92,93
 232 554 232 554 230 580.5 c 128,-1,94
 228 607 228 607 227.5 633.5 c 128,-1,95
 227 660 227 660 227 677 c 2,96,-1
 227 726 l 1,97,98
 235 729 235 729 244 731 c 128,-1,99
 253 733 253 733 262 733 c 0,100,101
 297 733 297 733 297 695 c 2,102,-1
 297 667 l 2,103,104
 297 644 297 644 295.5 611 c 128,-1,105
 294 578 294 578 289 536 c 1,91,-1
EndSplineSet
EndChar

StartChar: logicalnot
Encoding: 172 172 110
Width: 690
Flags: W
AnchorPoint: "Anchor-0" 345 0 basechar 0
LayerCount: 2
Fore
SplineSet
636 289 m 0,0,1
 636 208 636 208 601.5 140.5 c 128,-1,2
 567 73 567 73 502 32.5 c 128,-1,3
 437 -8 437 -8 345 -8 c 0,4,5
 255 -8 255 -8 189.5 32.5 c 128,-1,6
 124 73 124 73 89 140.5 c 128,-1,7
 54 208 54 208 54 289 c 0,8,9
 54 371 54 371 90 437.5 c 128,-1,10
 126 504 126 504 191.5 543.5 c 128,-1,11
 257 583 257 583 345 583 c 0,12,13
 435 583 435 583 500 544 c 128,-1,14
 565 505 565 505 600.5 438.5 c 128,-1,15
 636 372 636 372 636 289 c 0,0,1
560 289 m 0,16,17
 560 361 560 361 531.5 412.5 c 128,-1,18
 503 464 503 464 454 492 c 128,-1,19
 405 520 405 520 345 520 c 0,20,21
 284 520 284 520 235 492 c 128,-1,22
 186 464 186 464 158 412 c 128,-1,23
 130 360 130 360 130 289 c 0,24,25
 130 215 130 215 158 163.5 c 128,-1,26
 186 112 186 112 235 85.5 c 128,-1,27
 284 59 284 59 345 59 c 0,28,29
 408 59 408 59 456.5 85.5 c 128,-1,30
 505 112 505 112 532.5 163.5 c 128,-1,31
 560 215 560 215 560 289 c 0,16,17
344 228 m 0,32,33
 320 228 320 228 303 245.5 c 128,-1,34
 286 263 286 263 286 290 c 256,35,36
 286 317 286 317 303 334.5 c 128,-1,37
 320 352 320 352 344 352 c 0,38,39
 370 352 370 352 387 334.5 c 128,-1,40
 404 317 404 317 404 290 c 256,41,42
 404 263 404 263 387 245.5 c 128,-1,43
 370 228 370 228 344 228 c 0,32,33
198 715 m 0,44,45
 215 715 215 715 230.5 703 c 128,-1,46
 246 691 246 691 271.5 662.5 c 128,-1,47
 297 634 297 634 342 584 c 1,48,49
 359 608 359 608 383 639 c 128,-1,50
 407 670 407 670 440.5 709.5 c 128,-1,51
 474 749 474 749 518 797 c 2,52,-1
 549 831 l 1,53,54
 571 830 571 830 584 819 c 128,-1,55
 597 808 597 808 597 791 c 0,56,57
 597 781 597 781 591.5 771.5 c 128,-1,58
 586 762 586 762 572 748 c 0,59,60
 508 679 508 679 469.5 636.5 c 128,-1,61
 431 594 431 594 409 572 c 128,-1,62
 387 550 387 550 372.5 542 c 128,-1,63
 358 534 358 534 342 534 c 0,64,65
 325 534 325 534 305 545 c 128,-1,66
 285 556 285 556 251.5 585.5 c 128,-1,67
 218 615 218 615 159 670 c 1,68,69
 159 687 159 687 169.5 701 c 128,-1,70
 180 715 180 715 198 715 c 0,44,45
EndSplineSet
EndChar

StartChar: uni00AD
Encoding: 173 173 111
Width: 782
Flags: W
AnchorPoint: "Anchor-0" 398 0 basechar 0
LayerCount: 2
Fore
SplineSet
247 -8 m 0,0,1
 161 -8 161 -8 105.5 54 c 128,-1,2
 50 116 50 116 50 230 c 0,3,4
 50 310 50 310 78 375.5 c 128,-1,5
 106 441 106 441 156 487.5 c 128,-1,6
 206 534 206 534 273 559 c 128,-1,7
 340 584 340 584 418 584 c 0,8,9
 469 584 469 584 515.5 571.5 c 128,-1,10
 562 559 562 559 598 540 c 128,-1,11
 634 521 634 521 655 500.5 c 128,-1,12
 676 480 676 480 676 463 c 0,13,14
 676 450 676 450 665.5 441 c 128,-1,15
 655 432 655 432 643 428 c 1,16,17
 611 462 611 462 552.5 491 c 128,-1,18
 494 520 494 520 418 520 c 0,19,20
 363 520 363 520 310.5 501.5 c 128,-1,21
 258 483 258 483 216.5 446 c 128,-1,22
 175 409 175 409 150.5 354.5 c 128,-1,23
 126 300 126 300 126 228 c 0,24,25
 126 145 126 145 161.5 102 c 128,-1,26
 197 59 197 59 252 59 c 0,27,28
 300 59 300 59 331 90 c 128,-1,29
 362 121 362 121 362 171 c 1,30,-1
 422 171 l 1,31,32
 422 115 422 115 398 74.5 c 128,-1,33
 374 34 374 34 334.5 13 c 128,-1,34
 295 -8 295 -8 247 -8 c 0,0,1
434 116 m 1,35,-1
 362 116 l 1,36,-1
 362 213 l 1,37,38
 368 218 368 218 377.5 221 c 128,-1,39
 387 224 387 224 398 224 c 256,40,41
 409 224 409 224 418.5 221 c 128,-1,42
 428 218 428 218 434 213 c 1,43,-1
 434 116 l 1,35,-1
241 715 m 0,44,45
 260 715 260 715 278.5 701 c 128,-1,46
 297 687 297 687 324 658.5 c 128,-1,47
 351 630 351 630 396 584 c 1,48,49
 408 602 408 602 427.5 623.5 c 128,-1,50
 447 645 447 645 472.5 671 c 128,-1,51
 498 697 498 697 528 728.5 c 128,-1,52
 558 760 558 760 592 797 c 2,53,-1
 623 831 l 1,54,55
 645 830 645 830 658 819 c 128,-1,56
 671 808 671 808 671 791 c 0,57,58
 671 781 671 781 665.5 771.5 c 128,-1,59
 660 762 660 762 646 748 c 0,60,61
 580 680 580 680 538 638 c 128,-1,62
 496 596 496 596 470.5 574 c 128,-1,63
 445 552 445 552 428.5 544 c 128,-1,64
 412 536 412 536 396 536 c 0,65,66
 379 536 379 536 356.5 547 c 128,-1,67
 334 558 334 558 297.5 587.5 c 128,-1,68
 261 617 261 617 202 670 c 1,69,70
 202 687 202 687 212.5 701 c 128,-1,71
 223 715 223 715 241 715 c 0,44,45
557 -8 m 0,72,73
 507 -8 507 -8 465 14 c 128,-1,74
 423 36 423 36 398 77 c 128,-1,75
 373 118 373 118 373 176 c 1,76,-1
 434 176 l 1,77,78
 434 124 434 124 467.5 91.5 c 128,-1,79
 501 59 501 59 553 59 c 0,80,81
 608 59 608 59 637 89.5 c 128,-1,82
 666 120 666 120 666 160 c 0,83,84
 666 201 666 201 644 222.5 c 128,-1,85
 622 244 622 244 593 244 c 0,86,87
 579 244 579 244 565.5 240.5 c 128,-1,88
 552 237 552 237 543 232 c 1,89,90
 535 237 535 237 529 245.5 c 128,-1,91
 523 254 523 254 523 265 c 0,92,93
 523 283 523 283 540.5 296 c 128,-1,94
 558 309 558 309 595 309 c 0,95,96
 635 309 635 309 667.5 289.5 c 128,-1,97
 700 270 700 270 720 236.5 c 128,-1,98
 740 203 740 203 740 160 c 0,99,100
 740 104 740 104 714.5 66.5 c 128,-1,101
 689 29 689 29 647.5 10.5 c 128,-1,102
 606 -8 606 -8 557 -8 c 0,72,73
EndSplineSet
EndChar

StartChar: registered
Encoding: 174 174 112
Width: 782
Flags: W
AnchorPoint: "Anchor-0" 398 -110 basechar 0
LayerCount: 2
Fore
SplineSet
400 -168 m 256,0,1
 379 -168 379 -168 364 -154.5 c 128,-1,2
 349 -141 349 -141 349 -110 c 0,3,4
 349 -84 349 -84 359.5 -59.5 c 128,-1,5
 370 -35 370 -35 381 -20 c 0,6,7
 391 -7 391 -7 400 -7 c 256,8,9
 409 -7 409 -7 419 -20 c 0,10,11
 430 -35 430 -35 440.5 -59.5 c 128,-1,12
 451 -84 451 -84 451 -110 c 0,13,14
 451 -141 451 -141 436 -154.5 c 128,-1,15
 421 -168 421 -168 400 -168 c 256,0,1
247 -8 m 0,16,17
 161 -8 161 -8 105.5 54 c 128,-1,18
 50 116 50 116 50 230 c 0,19,20
 50 310 50 310 78 375.5 c 128,-1,21
 106 441 106 441 156 487.5 c 128,-1,22
 206 534 206 534 273 559 c 128,-1,23
 340 584 340 584 418 584 c 0,24,25
 469 584 469 584 515.5 571.5 c 128,-1,26
 562 559 562 559 598 540 c 128,-1,27
 634 521 634 521 655 500.5 c 128,-1,28
 676 480 676 480 676 463 c 0,29,30
 676 450 676 450 665.5 441 c 128,-1,31
 655 432 655 432 643 428 c 1,32,33
 611 462 611 462 552.5 491 c 128,-1,34
 494 520 494 520 418 520 c 0,35,36
 363 520 363 520 310.5 501.5 c 128,-1,37
 258 483 258 483 216.5 446 c 128,-1,38
 175 409 175 409 150.5 354.5 c 128,-1,39
 126 300 126 300 126 228 c 0,40,41
 126 145 126 145 161.5 102 c 128,-1,42
 197 59 197 59 252 59 c 0,43,44
 300 59 300 59 331 90 c 128,-1,45
 362 121 362 121 362 171 c 1,46,-1
 422 171 l 1,47,48
 422 115 422 115 398 74.5 c 128,-1,49
 374 34 374 34 334.5 13 c 128,-1,50
 295 -8 295 -8 247 -8 c 0,16,17
434 116 m 1,51,-1
 362 116 l 1,52,-1
 362 213 l 1,53,54
 368 218 368 218 377.5 221 c 128,-1,55
 387 224 387 224 398 224 c 256,56,57
 409 224 409 224 418.5 221 c 128,-1,58
 428 218 428 218 434 213 c 1,59,-1
 434 116 l 1,51,-1
241 715 m 0,60,61
 260 715 260 715 278.5 701 c 128,-1,62
 297 687 297 687 324 658.5 c 128,-1,63
 351 630 351 630 396 584 c 1,64,65
 408 602 408 602 427.5 623.5 c 128,-1,66
 447 645 447 645 472.5 671 c 128,-1,67
 498 697 498 697 528 728.5 c 128,-1,68
 558 760 558 760 592 797 c 2,69,-1
 623 831 l 1,70,71
 645 830 645 830 658 819 c 128,-1,72
 671 808 671 808 671 791 c 0,73,74
 671 781 671 781 665.5 771.5 c 128,-1,75
 660 762 660 762 646 748 c 0,76,77
 580 680 580 680 538 638 c 128,-1,78
 496 596 496 596 470.5 574 c 128,-1,79
 445 552 445 552 428.5 544 c 128,-1,80
 412 536 412 536 396 536 c 0,81,82
 379 536 379 536 356.5 547 c 128,-1,83
 334 558 334 558 297.5 587.5 c 128,-1,84
 261 617 261 617 202 670 c 1,85,86
 202 687 202 687 212.5 701 c 128,-1,87
 223 715 223 715 241 715 c 0,60,61
557 -8 m 0,88,89
 507 -8 507 -8 465 14 c 128,-1,90
 423 36 423 36 398 77 c 128,-1,91
 373 118 373 118 373 176 c 1,92,-1
 434 176 l 1,93,94
 434 124 434 124 467.5 91.5 c 128,-1,95
 501 59 501 59 553 59 c 0,96,97
 608 59 608 59 637 89.5 c 128,-1,98
 666 120 666 120 666 160 c 0,99,100
 666 201 666 201 644 222.5 c 128,-1,101
 622 244 622 244 593 244 c 0,102,103
 579 244 579 244 565.5 240.5 c 128,-1,104
 552 237 552 237 543 232 c 1,105,106
 535 237 535 237 529 245.5 c 128,-1,107
 523 254 523 254 523 265 c 0,108,109
 523 283 523 283 540.5 296 c 128,-1,110
 558 309 558 309 595 309 c 0,111,112
 635 309 635 309 667.5 289.5 c 128,-1,113
 700 270 700 270 720 236.5 c 128,-1,114
 740 203 740 203 740 160 c 0,115,116
 740 104 740 104 714.5 66.5 c 128,-1,117
 689 29 689 29 647.5 10.5 c 128,-1,118
 606 -8 606 -8 557 -8 c 0,88,89
EndSplineSet
EndChar

StartChar: macron
Encoding: 175 175 113
Width: 746
Flags: W
AnchorPoint: "Anchor-0" 372 0 basechar 0
LayerCount: 2
Fore
SplineSet
203 200 m 0,0,1
 172 200 172 200 142.5 212.5 c 128,-1,2
 113 225 113 225 94 254 c 128,-1,3
 75 283 75 283 75 332 c 0,4,5
 75 368 75 368 91.5 395.5 c 128,-1,6
 108 423 108 423 135 439 c 128,-1,7
 162 455 162 455 193 455 c 0,8,9
 237 455 237 455 267.5 436.5 c 128,-1,10
 298 418 298 418 314 388.5 c 128,-1,11
 330 359 330 359 330 326 c 0,12,13
 330 290 330 290 314 261.5 c 128,-1,14
 298 233 298 233 269.5 216.5 c 128,-1,15
 241 200 241 200 203 200 c 0,0,1
190 258 m 256,16,17
 220 258 220 258 238.5 277.5 c 128,-1,18
 257 297 257 297 257 325 c 256,19,20
 257 353 257 353 238.5 372.5 c 128,-1,21
 220 392 220 392 190 392 c 256,22,23
 160 392 160 392 141.5 373 c 128,-1,24
 123 354 123 354 123 325 c 0,25,26
 123 298 123 298 141.5 278 c 128,-1,27
 160 258 160 258 190 258 c 256,16,17
372 -8 m 0,28,29
 272 -8 272 -8 199.5 32 c 128,-1,30
 127 72 127 72 88 140 c 128,-1,31
 49 208 49 208 49 292 c 0,32,33
 49 371 49 371 91.5 413 c 128,-1,34
 134 455 134 455 193 455 c 1,35,36
 193 455 193 455 183 442.5 c 128,-1,37
 173 430 173 430 159 411 c 128,-1,38
 145 392 145 392 130.5 373 c 128,-1,39
 116 354 116 354 106 341.5 c 128,-1,40
 96 329 96 329 96 329 c 257,41,42
 96 329 96 329 98 322 c 128,-1,43
 100 315 100 315 103.5 304.5 c 128,-1,44
 107 294 107 294 110 283.5 c 128,-1,45
 113 273 113 273 115 266 c 128,-1,46
 117 259 117 259 117 259 c 1,47,48
 122 196 122 196 157.5 151 c 128,-1,49
 193 106 193 106 250 81.5 c 128,-1,50
 307 57 307 57 373 57 c 0,51,52
 440 57 440 57 496.5 81.5 c 128,-1,53
 553 106 553 106 589 151 c 128,-1,54
 625 196 625 196 629 259 c 1,55,56
 629 259 629 259 631.5 266 c 128,-1,57
 634 273 634 273 637.5 283.5 c 128,-1,58
 641 294 641 294 644 304.5 c 128,-1,59
 647 315 647 315 649.5 322 c 128,-1,60
 652 329 652 329 652 329 c 257,61,62
 652 329 652 329 642 341.5 c 128,-1,63
 632 354 632 354 617.5 373 c 128,-1,64
 603 392 603 392 588 411 c 128,-1,65
 573 430 573 430 563 442.5 c 128,-1,66
 553 455 553 455 553 455 c 1,67,68
 613 455 613 455 655 413 c 128,-1,69
 697 371 697 371 697 292 c 0,70,71
 697 208 697 208 658 140 c 128,-1,72
 619 72 619 72 546.5 32 c 128,-1,73
 474 -8 474 -8 372 -8 c 0,28,29
543 200 m 0,74,75
 506 200 506 200 477 216.5 c 128,-1,76
 448 233 448 233 432 261.5 c 128,-1,77
 416 290 416 290 416 326 c 0,78,79
 416 359 416 359 432.5 388.5 c 128,-1,80
 449 418 449 418 479.5 436.5 c 128,-1,81
 510 455 510 455 553 455 c 0,82,83
 582 455 582 455 606.5 438 c 128,-1,84
 631 421 631 421 646 391.5 c 128,-1,85
 661 362 661 362 661 322 c 0,86,87
 661 278 661 278 643.5 251 c 128,-1,88
 626 224 626 224 599 212 c 128,-1,89
 572 200 572 200 543 200 c 0,74,75
556 258 m 256,90,91
 586 258 586 258 604.5 277.5 c 128,-1,92
 623 297 623 297 623 325 c 0,93,94
 623 354 623 354 604.5 373 c 128,-1,95
 586 392 586 392 556 392 c 256,96,97
 526 392 526 392 507.5 372 c 128,-1,98
 489 352 489 352 489 325 c 256,99,100
 489 298 489 298 507.5 278 c 128,-1,101
 526 258 526 258 556 258 c 256,90,91
399 585 m 1,102,-1
 513 585 l 2,103,104
 587 585 587 585 626 556 c 128,-1,105
 665 527 665 527 665 472 c 0,106,107
 665 440 665 440 650 419 c 128,-1,108
 635 398 635 398 613 383 c 1,109,-1
 575 432 l 1,110,111
 580 437 580 437 586 447 c 128,-1,112
 592 457 592 457 592 473 c 0,113,114
 592 498 592 498 573.5 511.5 c 128,-1,115
 555 525 555 525 510 525 c 2,116,-1
 373 525 l 1,117,-1
 399 585 l 1,102,-1
221 713 m 0,118,119
 238 713 238 713 254.5 701 c 128,-1,120
 271 689 271 689 298 660.5 c 128,-1,121
 325 632 325 632 373 582 c 1,122,123
 389 606 389 606 414 636 c 128,-1,124
 439 666 439 666 473 705 c 128,-1,125
 507 744 507 744 548 793 c 2,126,-1
 580 831 l 1,127,128
 602 830 602 830 615 819 c 128,-1,129
 628 808 628 808 628 791 c 0,130,131
 628 781 628 781 621.5 771 c 128,-1,132
 615 761 615 761 603 748 c 0,133,134
 544 685 544 685 505 642 c 128,-1,135
 466 599 466 599 441 573.5 c 128,-1,136
 416 548 416 548 400 536.5 c 128,-1,137
 384 525 384 525 371 525 c 0,138,139
 352 525 352 525 330.5 538.5 c 128,-1,140
 309 552 309 552 274.5 583.5 c 128,-1,141
 240 615 240 615 181 668 c 1,142,143
 181 685 181 685 192 699 c 128,-1,144
 203 713 203 713 221 713 c 0,118,119
EndSplineSet
EndChar

StartChar: degree
Encoding: 176 176 114
Width: 796
Flags: W
AnchorPoint: "Anchor-0" 398 -110 basechar 0
LayerCount: 2
Fore
SplineSet
399 308 m 0,0,1
 377 308 377 308 361.5 323 c 128,-1,2
 346 338 346 338 346 362 c 256,3,4
 346 386 346 386 361.5 401 c 128,-1,5
 377 416 377 416 399 416 c 0,6,7
 422 416 422 416 438 401 c 128,-1,8
 454 386 454 386 454 362 c 256,9,10
 454 338 454 338 438.5 323 c 128,-1,11
 423 308 423 308 399 308 c 0,0,1
398 520 m 256,12,13
 348 520 348 520 299.5 499.5 c 128,-1,14
 251 479 251 479 212 441 c 128,-1,15
 173 403 173 403 149.5 349 c 128,-1,16
 126 295 126 295 126 228 c 0,17,18
 126 145 126 145 161.5 102 c 128,-1,19
 197 59 197 59 252 59 c 0,20,21
 300 59 300 59 331 90 c 128,-1,22
 362 121 362 121 362 171 c 1,23,-1
 422 171 l 1,24,25
 422 115 422 115 398 74.5 c 128,-1,26
 374 34 374 34 334.5 13 c 128,-1,27
 295 -8 295 -8 247 -8 c 0,28,29
 161 -8 161 -8 105.5 54 c 128,-1,30
 50 116 50 116 50 230 c 0,31,32
 50 305 50 305 76.5 369 c 128,-1,33
 103 433 103 433 150.5 481 c 128,-1,34
 198 529 198 529 261.5 556 c 128,-1,35
 325 583 325 583 398 583 c 0,36,37
 468 583 468 583 530.5 556 c 128,-1,38
 593 529 593 529 641.5 481 c 128,-1,39
 690 433 690 433 718 369 c 128,-1,40
 746 305 746 305 746 230 c 0,41,42
 746 116 746 116 690.5 54 c 128,-1,43
 635 -8 635 -8 549 -8 c 0,44,45
 502 -8 502 -8 462 13 c 128,-1,46
 422 34 422 34 398 74.5 c 128,-1,47
 374 115 374 115 374 171 c 1,48,-1
 434 171 l 1,49,50
 434 121 434 121 465.5 90 c 128,-1,51
 497 59 497 59 544 59 c 0,52,53
 599 59 599 59 634.5 102 c 128,-1,54
 670 145 670 145 670 228 c 0,55,56
 670 295 670 295 646.5 349 c 128,-1,57
 623 403 623 403 584 441 c 128,-1,58
 545 479 545 479 496.5 499.5 c 128,-1,59
 448 520 448 520 398 520 c 256,12,13
434 116 m 1,60,-1
 362 116 l 1,61,-1
 362 207 l 1,62,63
 368 212 368 212 377.5 215 c 128,-1,64
 387 218 387 218 398 218 c 256,65,66
 409 218 409 218 418.5 215 c 128,-1,67
 428 212 428 212 434 207 c 1,68,-1
 434 116 l 1,60,-1
241 715 m 0,69,70
 260 715 260 715 278.5 701 c 128,-1,71
 297 687 297 687 324 658.5 c 128,-1,72
 351 630 351 630 396 584 c 1,73,74
 408 602 408 602 427.5 623.5 c 128,-1,75
 447 645 447 645 472.5 671 c 128,-1,76
 498 697 498 697 528 728.5 c 128,-1,77
 558 760 558 760 592 797 c 2,78,-1
 623 831 l 1,79,80
 645 830 645 830 658 819 c 128,-1,81
 671 808 671 808 671 791 c 0,82,83
 671 781 671 781 665.5 771.5 c 128,-1,84
 660 762 660 762 646 748 c 0,85,86
 580 680 580 680 538 638 c 128,-1,87
 496 596 496 596 470.5 574 c 128,-1,88
 445 552 445 552 428.5 544 c 128,-1,89
 412 536 412 536 396 536 c 0,90,91
 379 536 379 536 356.5 547 c 128,-1,92
 334 558 334 558 297.5 587.5 c 128,-1,93
 261 617 261 617 202 670 c 1,94,95
 202 687 202 687 212.5 701 c 128,-1,96
 223 715 223 715 241 715 c 0,69,70
400 -168 m 256,97,98
 379 -168 379 -168 364 -154.5 c 128,-1,99
 349 -141 349 -141 349 -110 c 0,100,101
 349 -84 349 -84 359.5 -59.5 c 128,-1,102
 370 -35 370 -35 381 -20 c 0,103,104
 391 -7 391 -7 400 -7 c 256,105,106
 409 -7 409 -7 419 -20 c 0,107,108
 430 -35 430 -35 440.5 -59.5 c 128,-1,109
 451 -84 451 -84 451 -110 c 0,110,111
 451 -141 451 -141 436 -154.5 c 128,-1,112
 421 -168 421 -168 400 -168 c 256,97,98
EndSplineSet
EndChar

StartChar: plusminus
Encoding: 177 177 115
Width: 796
Flags: W
AnchorPoint: "Anchor-0" 398 0 basechar 0
LayerCount: 2
Fore
SplineSet
398 520 m 256,0,1
 348 520 348 520 299.5 499.5 c 128,-1,2
 251 479 251 479 212 441 c 128,-1,3
 173 403 173 403 149.5 349 c 128,-1,4
 126 295 126 295 126 228 c 0,5,6
 126 145 126 145 161.5 102 c 128,-1,7
 197 59 197 59 252 59 c 0,8,9
 300 59 300 59 331 90 c 128,-1,10
 362 121 362 121 362 171 c 1,11,-1
 422 171 l 1,12,13
 422 115 422 115 398 74.5 c 128,-1,14
 374 34 374 34 334.5 13 c 128,-1,15
 295 -8 295 -8 247 -8 c 0,16,17
 161 -8 161 -8 105.5 54 c 128,-1,18
 50 116 50 116 50 230 c 0,19,20
 50 305 50 305 76.5 369 c 128,-1,21
 103 433 103 433 150.5 481 c 128,-1,22
 198 529 198 529 261.5 556 c 128,-1,23
 325 583 325 583 398 583 c 0,24,25
 468 583 468 583 530.5 556 c 128,-1,26
 593 529 593 529 641.5 481 c 128,-1,27
 690 433 690 433 718 369 c 128,-1,28
 746 305 746 305 746 230 c 0,29,30
 746 116 746 116 690.5 54 c 128,-1,31
 635 -8 635 -8 549 -8 c 0,32,33
 502 -8 502 -8 462 13 c 128,-1,34
 422 34 422 34 398 74.5 c 128,-1,35
 374 115 374 115 374 171 c 1,36,-1
 434 171 l 1,37,38
 434 121 434 121 465.5 90 c 128,-1,39
 497 59 497 59 544 59 c 0,40,41
 599 59 599 59 634.5 102 c 128,-1,42
 670 145 670 145 670 228 c 0,43,44
 670 295 670 295 646.5 349 c 128,-1,45
 623 403 623 403 584 441 c 128,-1,46
 545 479 545 479 496.5 499.5 c 128,-1,47
 448 520 448 520 398 520 c 256,0,1
434 116 m 1,48,-1
 362 116 l 1,49,-1
 362 213 l 1,50,51
 368 218 368 218 377.5 221 c 128,-1,52
 387 224 387 224 398 224 c 256,53,54
 409 224 409 224 418.5 221 c 128,-1,55
 428 218 428 218 434 213 c 1,56,-1
 434 116 l 1,48,-1
241 715 m 0,57,58
 260 715 260 715 278.5 701 c 128,-1,59
 297 687 297 687 324 658.5 c 128,-1,60
 351 630 351 630 396 584 c 1,61,62
 408 602 408 602 427.5 623.5 c 128,-1,63
 447 645 447 645 472.5 671 c 128,-1,64
 498 697 498 697 528 728.5 c 128,-1,65
 558 760 558 760 592 797 c 2,66,-1
 623 831 l 1,67,68
 645 830 645 830 658 819 c 128,-1,69
 671 808 671 808 671 791 c 0,70,71
 671 781 671 781 665.5 771.5 c 128,-1,72
 660 762 660 762 646 748 c 0,73,74
 580 680 580 680 538 638 c 128,-1,75
 496 596 496 596 470.5 574 c 128,-1,76
 445 552 445 552 428.5 544 c 128,-1,77
 412 536 412 536 396 536 c 0,78,79
 379 536 379 536 356.5 547 c 128,-1,80
 334 558 334 558 297.5 587.5 c 128,-1,81
 261 617 261 617 202 670 c 1,82,83
 202 687 202 687 212.5 701 c 128,-1,84
 223 715 223 715 241 715 c 0,57,58
EndSplineSet
EndChar

StartChar: uni00B2
Encoding: 178 178 116
Width: 796
Flags: W
AnchorPoint: "Anchor-0" 398 -110 basechar 0
LayerCount: 2
Fore
SplineSet
400 -168 m 256,0,1
 379 -168 379 -168 364 -154.5 c 128,-1,2
 349 -141 349 -141 349 -110 c 0,3,4
 349 -84 349 -84 359.5 -59.5 c 128,-1,5
 370 -35 370 -35 381 -20 c 0,6,7
 391 -7 391 -7 400 -7 c 256,8,9
 409 -7 409 -7 419 -20 c 0,10,11
 430 -35 430 -35 440.5 -59.5 c 128,-1,12
 451 -84 451 -84 451 -110 c 0,13,14
 451 -141 451 -141 436 -154.5 c 128,-1,15
 421 -168 421 -168 400 -168 c 256,0,1
398 520 m 256,16,17
 348 520 348 520 299.5 499.5 c 128,-1,18
 251 479 251 479 212 441 c 128,-1,19
 173 403 173 403 149.5 349 c 128,-1,20
 126 295 126 295 126 228 c 0,21,22
 126 145 126 145 161.5 102 c 128,-1,23
 197 59 197 59 252 59 c 0,24,25
 300 59 300 59 331 90 c 128,-1,26
 362 121 362 121 362 171 c 1,27,-1
 422 171 l 1,28,29
 422 115 422 115 398 74.5 c 128,-1,30
 374 34 374 34 334.5 13 c 128,-1,31
 295 -8 295 -8 247 -8 c 0,32,33
 161 -8 161 -8 105.5 54 c 128,-1,34
 50 116 50 116 50 230 c 0,35,36
 50 305 50 305 76.5 369 c 128,-1,37
 103 433 103 433 150.5 481 c 128,-1,38
 198 529 198 529 261.5 556 c 128,-1,39
 325 583 325 583 398 583 c 0,40,41
 468 583 468 583 530.5 556 c 128,-1,42
 593 529 593 529 641.5 481 c 128,-1,43
 690 433 690 433 718 369 c 128,-1,44
 746 305 746 305 746 230 c 0,45,46
 746 116 746 116 690.5 54 c 128,-1,47
 635 -8 635 -8 549 -8 c 0,48,49
 502 -8 502 -8 462 13 c 128,-1,50
 422 34 422 34 398 74.5 c 128,-1,51
 374 115 374 115 374 171 c 1,52,-1
 434 171 l 1,53,54
 434 121 434 121 465.5 90 c 128,-1,55
 497 59 497 59 544 59 c 0,56,57
 599 59 599 59 634.5 102 c 128,-1,58
 670 145 670 145 670 228 c 0,59,60
 670 295 670 295 646.5 349 c 128,-1,61
 623 403 623 403 584 441 c 128,-1,62
 545 479 545 479 496.5 499.5 c 128,-1,63
 448 520 448 520 398 520 c 256,16,17
434 116 m 1,64,-1
 362 116 l 1,65,-1
 362 213 l 1,66,67
 368 218 368 218 377.5 221 c 128,-1,68
 387 224 387 224 398 224 c 256,69,70
 409 224 409 224 418.5 221 c 128,-1,71
 428 218 428 218 434 213 c 1,72,-1
 434 116 l 1,64,-1
241 715 m 0,73,74
 260 715 260 715 278.5 701 c 128,-1,75
 297 687 297 687 324 658.5 c 128,-1,76
 351 630 351 630 396 584 c 1,77,78
 408 602 408 602 427.5 623.5 c 128,-1,79
 447 645 447 645 472.5 671 c 128,-1,80
 498 697 498 697 528 728.5 c 128,-1,81
 558 760 558 760 592 797 c 2,82,-1
 623 831 l 1,83,84
 645 830 645 830 658 819 c 128,-1,85
 671 808 671 808 671 791 c 0,86,87
 671 781 671 781 665.5 771.5 c 128,-1,88
 660 762 660 762 646 748 c 0,89,90
 580 680 580 680 538 638 c 128,-1,91
 496 596 496 596 470.5 574 c 128,-1,92
 445 552 445 552 428.5 544 c 128,-1,93
 412 536 412 536 396 536 c 0,94,95
 379 536 379 536 356.5 547 c 128,-1,96
 334 558 334 558 297.5 587.5 c 128,-1,97
 261 617 261 617 202 670 c 1,98,99
 202 687 202 687 212.5 701 c 128,-1,100
 223 715 223 715 241 715 c 0,73,74
EndSplineSet
EndChar

StartChar: uni00B3
Encoding: 179 179 117
Width: 794
Flags: W
AnchorPoint: "Anchor-0" 384 0 basechar 0
LayerCount: 2
Fore
SplineSet
664 232 m 0,0,1
 664 312 664 312 628.5 378.5 c 128,-1,2
 593 445 593 445 518.5 485 c 128,-1,3
 444 525 444 525 326 525 c 2,4,-1
 313 525 l 1,5,-1
 277 549 l 1,6,-1
 332 585 l 1,7,-1
 362 585 l 2,8,9
 474 585 474 585 559 541.5 c 128,-1,10
 644 498 644 498 692 419 c 128,-1,11
 740 340 740 340 740 231 c 0,12,13
 740 152 740 152 715.5 98.5 c 128,-1,14
 691 45 691 45 648.5 18.5 c 128,-1,15
 606 -8 606 -8 552 -8 c 0,16,17
 500 -8 500 -8 465.5 10 c 128,-1,18
 431 28 431 28 405 62.5 c 128,-1,19
 379 97 379 97 352 146 c 2,20,-1
 336 176 l 2,21,22
 314 217 314 217 288 241 c 128,-1,23
 262 265 262 265 217 265 c 0,24,25
 171 265 171 265 144 236 c 128,-1,26
 117 207 117 207 117 160 c 0,27,28
 117 110 117 110 144.5 80.5 c 128,-1,29
 172 51 172 51 212 40 c 1,30,31
 212 21 212 21 203.5 6.5 c 128,-1,32
 195 -8 195 -8 172 -8 c 0,33,34
 145 -8 145 -8 115 12 c 128,-1,35
 85 32 85 32 63.5 69.5 c 128,-1,36
 42 107 42 107 42 159 c 0,37,38
 42 217 42 217 68 255 c 128,-1,39
 94 293 94 293 134.5 312 c 128,-1,40
 175 331 175 331 217 331 c 0,41,42
 286 331 286 331 328.5 296.5 c 128,-1,43
 371 262 371 262 403 201 c 2,44,-1
 420 169 l 2,45,46
 449 115 449 115 476.5 87 c 128,-1,47
 504 59 504 59 550 59 c 0,48,49
 600 59 600 59 632 102.5 c 128,-1,50
 664 146 664 146 664 232 c 0,0,1
163 713 m 0,51,52
 180 713 180 713 196.5 701 c 128,-1,53
 213 689 213 689 240 660.5 c 128,-1,54
 267 632 267 632 315 582 c 1,55,56
 327 600 327 600 347 622 c 128,-1,57
 367 644 367 644 393 671 c 128,-1,58
 419 698 419 698 449.5 729.5 c 128,-1,59
 480 761 480 761 513 797 c 2,60,-1
 544 831 l 1,61,62
 566 830 566 830 579 819 c 128,-1,63
 592 808 592 808 592 791 c 0,64,65
 592 781 592 781 586.5 771.5 c 128,-1,66
 581 762 581 762 567 748 c 0,67,68
 502 685 502 685 459 642 c 128,-1,69
 416 599 416 599 389 573 c 128,-1,70
 362 547 362 547 344.5 536 c 128,-1,71
 327 525 327 525 313 525 c 0,72,73
 294 525 294 525 272.5 538.5 c 128,-1,74
 251 552 251 552 216.5 583.5 c 128,-1,75
 182 615 182 615 123 668 c 1,76,77
 123 685 123 685 134 699 c 128,-1,78
 145 713 145 713 163 713 c 0,51,52
EndSplineSet
EndChar

StartChar: acute
Encoding: 180 180 118
Width: 796
Flags: W
AnchorPoint: "Anchor-0" 384 0 basechar 0
LayerCount: 2
Fore
SplineSet
110 713 m 0,0,1
 125 713 125 713 138.5 702 c 128,-1,2
 152 691 152 691 174 663.5 c 128,-1,3
 196 636 196 636 235 586 c 1,4,5
 252 610 252 610 276 640.5 c 128,-1,6
 300 671 300 671 333 710 c 128,-1,7
 366 749 366 749 410 797 c 2,8,-1
 441 831 l 1,9,10
 463 830 463 830 476 819 c 128,-1,11
 489 808 489 808 489 791 c 0,12,13
 489 781 489 781 483.5 771.5 c 128,-1,14
 478 762 478 762 464 748 c 0,15,16
 401 679 401 679 363.5 636 c 128,-1,17
 326 593 326 593 304 570.5 c 128,-1,18
 282 548 282 548 267 539.5 c 128,-1,19
 252 531 252 531 234 531 c 0,20,21
 217 531 217 531 198.5 542.5 c 128,-1,22
 180 554 180 554 151 584.5 c 128,-1,23
 122 615 122 615 71 670 c 1,24,25
 72 687 72 687 82 700 c 128,-1,26
 92 713 92 713 110 713 c 0,0,1
117 161 m 256,27,28
 117 114 117 114 145.5 86 c 128,-1,29
 174 58 174 58 219 58 c 256,30,31
 264 58 264 58 292.5 86 c 128,-1,32
 321 114 321 114 321 161 c 256,33,34
 321 208 321 208 292.5 236.5 c 128,-1,35
 264 265 264 265 219 265 c 256,36,37
 174 265 174 265 145.5 236.5 c 128,-1,38
 117 208 117 208 117 161 c 256,27,28
742 241 m 0,39,40
 742 158 742 158 715 102.5 c 128,-1,41
 688 47 688 47 640 19.5 c 128,-1,42
 592 -8 592 -8 529 -8 c 0,43,44
 463 -8 463 -8 419 23 c 128,-1,45
 375 54 375 54 358 97 c 1,46,-1
 383 107 l 1,47,48
 373 76 373 76 350 49.5 c 128,-1,49
 327 23 327 23 293 7.5 c 128,-1,50
 259 -8 259 -8 215 -8 c 0,51,52
 164 -8 164 -8 125 13.5 c 128,-1,53
 86 35 86 35 64 73 c 128,-1,54
 42 111 42 111 42 161 c 256,55,56
 42 211 42 211 64 249.5 c 128,-1,57
 86 288 86 288 126 309.5 c 128,-1,58
 166 331 166 331 219 331 c 0,59,60
 296 331 296 331 340 289.5 c 128,-1,61
 384 248 384 248 396 182 c 0,62,63
 407 121 407 121 442.5 90 c 128,-1,64
 478 59 478 59 529 59 c 0,65,66
 589 59 589 59 627.5 105 c 128,-1,67
 666 151 666 151 666 242 c 0,68,69
 666 335 666 335 635 395.5 c 128,-1,70
 604 456 604 456 554.5 488.5 c 128,-1,71
 505 521 505 521 448 530 c 1,72,73
 447 535 447 535 446 540 c 128,-1,74
 445 545 445 545 445 549 c 0,75,76
 445 565 445 565 454 576 c 128,-1,77
 463 587 463 587 488 587 c 0,78,79
 518 587 518 587 560.5 566.5 c 128,-1,80
 603 546 603 546 645 504 c 128,-1,81
 687 462 687 462 714.5 396.5 c 128,-1,82
 742 331 742 331 742 241 c 0,39,40
EndSplineSet
EndChar

StartChar: uni03BC
Encoding: 181 181 119
Width: 796
Flags: W
AnchorPoint: "Anchor-0" 384 -110 basechar 0
LayerCount: 2
Fore
SplineSet
370 -168 m 256,0,1
 349 -168 349 -168 334 -154.5 c 128,-1,2
 319 -141 319 -141 319 -110 c 0,3,4
 319 -84 319 -84 329.5 -59.5 c 128,-1,5
 340 -35 340 -35 351 -20 c 0,6,7
 361 -7 361 -7 370 -7 c 256,8,9
 379 -7 379 -7 389 -20 c 0,10,11
 400 -35 400 -35 410.5 -59.5 c 128,-1,12
 421 -84 421 -84 421 -110 c 0,13,14
 421 -141 421 -141 406 -154.5 c 128,-1,15
 391 -168 391 -168 370 -168 c 256,0,1
110 713 m 0,16,17
 125 713 125 713 138.5 702 c 128,-1,18
 152 691 152 691 174 663.5 c 128,-1,19
 196 636 196 636 235 586 c 1,20,21
 252 610 252 610 276 640.5 c 128,-1,22
 300 671 300 671 333 710 c 128,-1,23
 366 749 366 749 410 797 c 2,24,-1
 441 831 l 1,25,26
 463 830 463 830 476 819 c 128,-1,27
 489 808 489 808 489 791 c 0,28,29
 489 781 489 781 483.5 771.5 c 128,-1,30
 478 762 478 762 464 748 c 0,31,32
 401 679 401 679 363.5 636 c 128,-1,33
 326 593 326 593 304 570.5 c 128,-1,34
 282 548 282 548 267 539.5 c 128,-1,35
 252 531 252 531 234 531 c 0,36,37
 217 531 217 531 198.5 542.5 c 128,-1,38
 180 554 180 554 151 584.5 c 128,-1,39
 122 615 122 615 71 670 c 1,40,41
 72 687 72 687 82 700 c 128,-1,42
 92 713 92 713 110 713 c 0,16,17
117 161 m 256,43,44
 117 114 117 114 145.5 86 c 128,-1,45
 174 58 174 58 219 58 c 256,46,47
 264 58 264 58 292.5 86 c 128,-1,48
 321 114 321 114 321 161 c 256,49,50
 321 208 321 208 292.5 236.5 c 128,-1,51
 264 265 264 265 219 265 c 256,52,53
 174 265 174 265 145.5 236.5 c 128,-1,54
 117 208 117 208 117 161 c 256,43,44
742 241 m 0,55,56
 742 158 742 158 715 102.5 c 128,-1,57
 688 47 688 47 640 19.5 c 128,-1,58
 592 -8 592 -8 529 -8 c 0,59,60
 463 -8 463 -8 419 23 c 128,-1,61
 375 54 375 54 358 97 c 1,62,-1
 383 107 l 1,63,64
 373 76 373 76 350 49.5 c 128,-1,65
 327 23 327 23 293 7.5 c 128,-1,66
 259 -8 259 -8 215 -8 c 0,67,68
 164 -8 164 -8 125 13.5 c 128,-1,69
 86 35 86 35 64 73 c 128,-1,70
 42 111 42 111 42 161 c 256,71,72
 42 211 42 211 64 249.5 c 128,-1,73
 86 288 86 288 126 309.5 c 128,-1,74
 166 331 166 331 219 331 c 0,75,76
 296 331 296 331 340 289.5 c 128,-1,77
 384 248 384 248 396 182 c 0,78,79
 407 121 407 121 442.5 90 c 128,-1,80
 478 59 478 59 529 59 c 0,81,82
 589 59 589 59 627.5 105 c 128,-1,83
 666 151 666 151 666 242 c 0,84,85
 666 335 666 335 635 395.5 c 128,-1,86
 604 456 604 456 554.5 488.5 c 128,-1,87
 505 521 505 521 448 530 c 1,88,89
 447 535 447 535 446 540 c 128,-1,90
 445 545 445 545 445 549 c 0,91,92
 445 565 445 565 454 576 c 128,-1,93
 463 587 463 587 488 587 c 0,94,95
 518 587 518 587 560.5 566.5 c 128,-1,96
 603 546 603 546 645 504 c 128,-1,97
 687 462 687 462 714.5 396.5 c 128,-1,98
 742 331 742 331 742 241 c 0,55,56
EndSplineSet
EndChar

StartChar: paragraph
Encoding: 182 182 120
Width: 826
Flags: W
AnchorPoint: "Anchor-0" 406 0 basechar 0
LayerCount: 2
Fore
SplineSet
564 -8 m 0,0,1
 508 -8 508 -8 466.5 15.5 c 128,-1,2
 425 39 425 39 402.5 80 c 128,-1,3
 380 121 380 121 380 173 c 1,4,-1
 442 173 l 1,5,6
 442 118 442 118 477 88.5 c 128,-1,7
 512 59 512 59 559 59 c 0,8,9
 621 59 621 59 658.5 105.5 c 128,-1,10
 696 152 696 152 696 244 c 0,11,12
 696 333 696 333 668 394 c 128,-1,13
 640 455 640 455 595.5 489.5 c 128,-1,14
 551 524 551 524 499 533 c 1,15,16
 498 538 498 538 498 542 c 128,-1,17
 498 546 498 546 498 549 c 0,18,19
 498 565 498 565 507.5 576 c 128,-1,20
 517 587 517 587 539 587 c 0,21,22
 569 587 569 587 609 565 c 128,-1,23
 649 543 649 543 686 499 c 128,-1,24
 723 455 723 455 747.5 391 c 128,-1,25
 772 327 772 327 772 243 c 256,26,27
 772 159 772 159 745 103.5 c 128,-1,28
 718 48 718 48 671 20 c 128,-1,29
 624 -8 624 -8 564 -8 c 0,0,1
442 116 m 1,30,-1
 370 116 l 1,31,-1
 370 213 l 1,32,33
 376 218 376 218 385.5 221 c 128,-1,34
 395 224 395 224 406 224 c 256,35,36
 417 224 417 224 426.5 221 c 128,-1,37
 436 218 436 218 442 213 c 1,38,-1
 442 116 l 1,30,-1
370 173 m 1,39,-1
 432 173 l 1,40,41
 432 122 432 122 409 81 c 128,-1,42
 386 40 386 40 343.5 16 c 128,-1,43
 301 -8 301 -8 241 -8 c 0,44,45
 186 -8 186 -8 143 13 c 128,-1,46
 100 34 100 34 76 70.5 c 128,-1,47
 52 107 52 107 52 155 c 0,48,49
 52 208 52 208 81.5 244 c 128,-1,50
 111 280 111 280 162 307 c 2,51,-1
 217 336 l 2,52,53
 264 361 264 361 288.5 385.5 c 128,-1,54
 313 410 313 410 313 444 c 0,55,56
 313 479 313 479 288.5 501.5 c 128,-1,57
 264 524 264 524 222 524 c 0,58,59
 176 524 176 524 152.5 500.5 c 128,-1,60
 129 477 129 477 129 442 c 0,61,62
 129 423 129 423 135 408 c 128,-1,63
 141 393 141 393 149 385 c 1,64,65
 144 375 144 375 135 368 c 128,-1,66
 126 361 126 361 111 361 c 0,67,68
 90 361 90 361 73 383.5 c 128,-1,69
 56 406 56 406 56 446 c 0,70,71
 56 487 56 487 77.5 519 c 128,-1,72
 99 551 99 551 136.5 569 c 128,-1,73
 174 587 174 587 222 587 c 0,74,75
 268 587 268 587 305 568.5 c 128,-1,76
 342 550 342 550 364.5 517 c 128,-1,77
 387 484 387 484 387 441 c 0,78,79
 387 387 387 387 353.5 351 c 128,-1,80
 320 315 320 315 273 290 c 2,81,-1
 217 261 l 2,82,83
 174 239 174 239 151 214 c 128,-1,84
 128 189 128 189 128 151 c 0,85,86
 128 110 128 110 161 84.5 c 128,-1,87
 194 59 194 59 246 59 c 256,88,89
 298 59 298 59 334 88.5 c 128,-1,90
 370 118 370 118 370 173 c 1,39,-1
EndSplineSet
EndChar

StartChar: periodcentered
Encoding: 183 183 121
Width: 829
Flags: W
AnchorPoint: "Anchor-0" 404 -110 basechar 0
LayerCount: 2
Fore
SplineSet
442 116 m 1,0,-1
 370 116 l 1,1,-1
 370 213 l 1,2,3
 376 218 376 218 385.5 221 c 128,-1,4
 395 224 395 224 406 224 c 256,5,6
 417 224 417 224 426.5 221 c 128,-1,7
 436 218 436 218 442 213 c 1,8,-1
 442 116 l 1,0,-1
370 173 m 1,9,-1
 432 173 l 1,10,11
 432 122 432 122 409 81 c 128,-1,12
 386 40 386 40 343.5 16 c 128,-1,13
 301 -8 301 -8 241 -8 c 0,14,15
 186 -8 186 -8 143 13 c 128,-1,16
 100 34 100 34 76 70.5 c 128,-1,17
 52 107 52 107 52 155 c 0,18,19
 52 208 52 208 81.5 244 c 128,-1,20
 111 280 111 280 162 307 c 2,21,-1
 217 336 l 2,22,23
 264 361 264 361 288.5 385.5 c 128,-1,24
 313 410 313 410 313 444 c 0,25,26
 313 479 313 479 288.5 501.5 c 128,-1,27
 264 524 264 524 222 524 c 0,28,29
 176 524 176 524 152.5 500.5 c 128,-1,30
 129 477 129 477 129 442 c 0,31,32
 129 423 129 423 135 408 c 128,-1,33
 141 393 141 393 149 385 c 1,34,35
 144 375 144 375 135 368 c 128,-1,36
 126 361 126 361 111 361 c 0,37,38
 90 361 90 361 73 383.5 c 128,-1,39
 56 406 56 406 56 446 c 0,40,41
 56 487 56 487 77.5 519 c 128,-1,42
 99 551 99 551 136.5 569 c 128,-1,43
 174 587 174 587 222 587 c 0,44,45
 268 587 268 587 305 568.5 c 128,-1,46
 342 550 342 550 364.5 517 c 128,-1,47
 387 484 387 484 387 441 c 0,48,49
 387 387 387 387 353.5 351 c 128,-1,50
 320 315 320 315 273 290 c 2,51,-1
 217 261 l 2,52,53
 174 239 174 239 151 214 c 128,-1,54
 128 189 128 189 128 151 c 0,55,56
 128 110 128 110 161 84.5 c 128,-1,57
 194 59 194 59 246 59 c 256,58,59
 298 59 298 59 334 88.5 c 128,-1,60
 370 118 370 118 370 173 c 1,9,-1
574 548 m 1,61,-1
 539 578 l 1,62,63
 569 578 569 578 609 557 c 128,-1,64
 649 536 649 536 686 494.5 c 128,-1,65
 723 453 723 453 747.5 390 c 128,-1,66
 772 327 772 327 772 243 c 256,67,68
 772 159 772 159 745 103.5 c 128,-1,69
 718 48 718 48 671 20 c 128,-1,70
 624 -8 624 -8 564 -8 c 0,71,72
 508 -8 508 -8 466.5 15.5 c 128,-1,73
 425 39 425 39 402.5 80 c 128,-1,74
 380 121 380 121 380 173 c 1,75,-1
 442 173 l 1,76,77
 442 118 442 118 477 88.5 c 128,-1,78
 512 59 512 59 559 59 c 0,79,80
 621 59 621 59 658.5 105.5 c 128,-1,81
 696 152 696 152 696 244 c 0,82,83
 696 332 696 332 670.5 389 c 128,-1,84
 645 446 645 446 604 480 c 128,-1,85
 563 514 563 514 515 531 c 0,86,87
 493 539 493 539 458.5 572.5 c 128,-1,88
 424 606 424 606 356 670 c 1,89,90
 357 687 357 687 367 701 c 128,-1,91
 377 715 377 715 395 715 c 0,92,93
 412 715 412 715 429 701 c 128,-1,94
 446 687 446 687 471 658 c 128,-1,95
 496 629 496 629 535 583 c 1,96,97
 560 618 560 618 606 671 c 128,-1,98
 652 724 652 724 708 793 c 2,99,-1
 739 831 l 1,100,101
 761 830 761 830 774 819 c 128,-1,102
 787 808 787 808 787 791 c 0,103,104
 787 781 787 781 781 769.5 c 128,-1,105
 775 758 775 758 762 743 c 0,106,107
 683 652 683 652 638.5 608 c 128,-1,108
 594 564 594 564 574 548 c 1,61,-1
406 -168 m 256,109,110
 385 -168 385 -168 370 -154.5 c 128,-1,111
 355 -141 355 -141 355 -110 c 0,112,113
 355 -84 355 -84 365.5 -59.5 c 128,-1,114
 376 -35 376 -35 387 -20 c 0,115,116
 397 -7 397 -7 406 -7 c 256,117,118
 415 -7 415 -7 425 -20 c 0,119,120
 436 -35 436 -35 446.5 -59.5 c 128,-1,121
 457 -84 457 -84 457 -110 c 0,122,123
 457 -141 457 -141 442 -154.5 c 128,-1,124
 427 -168 427 -168 406 -168 c 256,109,110
EndSplineSet
Substitution2: "Single Substitution lookup 90 subtable" periodcentered.loclCAT.case
Substitution2: "Single Substitution lookup 89 subtable" periodcentered.loclCAT
EndChar

StartChar: uni00B9
Encoding: 185 185 123
Width: 1372
Flags: W
AnchorPoint: "Anchor-0" 734 0 basechar 0
LayerCount: 2
Fore
SplineSet
899 275 m 0,0,1
 899 351 899 351 873 402 c 128,-1,2
 847 453 847 453 805.5 484.5 c 128,-1,3
 764 516 764 516 718 531 c 0,4,5
 696 539 696 539 661.5 572.5 c 128,-1,6
 627 606 627 606 559 670 c 1,7,8
 560 687 560 687 570 701 c 128,-1,9
 580 715 580 715 598 715 c 0,10,11
 615 715 615 715 632 701 c 128,-1,12
 649 687 649 687 674 658 c 128,-1,13
 699 629 699 629 738 583 c 1,14,15
 763 618 763 618 809 671 c 128,-1,16
 855 724 855 724 911 793 c 2,17,-1
 942 831 l 1,18,19
 964 830 964 830 977 819 c 128,-1,20
 990 808 990 808 990 791 c 0,21,22
 990 781 990 781 984 769.5 c 128,-1,23
 978 758 978 758 965 743 c 0,24,25
 886 652 886 652 841.5 608 c 128,-1,26
 797 564 797 564 777 548 c 1,27,-1
 742 576 l 1,28,29
 772 576 772 576 812 557 c 128,-1,30
 852 538 852 538 889 500.5 c 128,-1,31
 926 463 926 463 950.5 406 c 128,-1,32
 975 349 975 349 975 273 c 0,33,34
 975 192 975 192 945.5 128.5 c 128,-1,35
 916 65 916 65 862 28.5 c 128,-1,36
 808 -8 808 -8 734 -8 c 0,37,38
 656 -8 656 -8 602.5 22.5 c 128,-1,39
 549 53 549 53 515 103 c 1,40,-1
 571 143 l 1,41,42
 595 105 595 105 634.5 82 c 128,-1,43
 674 59 674 59 724 59 c 0,44,45
 801 59 801 59 850 114.5 c 128,-1,46
 899 170 899 170 899 275 c 0,0,1
1067 59 m 0,47,48
 1144 59 1144 59 1193 114 c 128,-1,49
 1242 169 1242 169 1242 275 c 0,50,51
 1242 356 1242 356 1211.5 411 c 128,-1,52
 1181 466 1181 466 1133.5 496 c 128,-1,53
 1086 526 1086 526 1036 533 c 1,54,55
 1035 538 1035 538 1035 542 c 128,-1,56
 1035 546 1035 546 1035 549 c 0,57,58
 1035 565 1035 565 1044.5 576 c 128,-1,59
 1054 587 1054 587 1076 587 c 0,60,61
 1106 587 1106 587 1147 568 c 128,-1,62
 1188 549 1188 549 1227 510.5 c 128,-1,63
 1266 472 1266 472 1292 413 c 128,-1,64
 1318 354 1318 354 1318 273 c 256,65,66
 1318 192 1318 192 1288.5 128.5 c 128,-1,67
 1259 65 1259 65 1205 28.5 c 128,-1,68
 1151 -8 1151 -8 1077 -8 c 0,69,70
 1007 -8 1007 -8 956 17 c 128,-1,71
 905 42 905 42 871 85 c 1,72,-1
 914 143 l 1,73,74
 938 105 938 105 977.5 82 c 128,-1,75
 1017 59 1017 59 1067 59 c 0,47,48
619 289 m 0,76,77
 619 208 619 208 585.5 140.5 c 128,-1,78
 552 73 552 73 489 32.5 c 128,-1,79
 426 -8 426 -8 337 -8 c 0,80,81
 249 -8 249 -8 185.5 32.5 c 128,-1,82
 122 73 122 73 88 140.5 c 128,-1,83
 54 208 54 208 54 289 c 0,84,85
 54 371 54 371 89 438.5 c 128,-1,86
 124 506 124 506 187.5 546.5 c 128,-1,87
 251 587 251 587 337 587 c 0,88,89
 424 587 424 587 487.5 547 c 128,-1,90
 551 507 551 507 585 439.5 c 128,-1,91
 619 372 619 372 619 289 c 0,76,77
543 289 m 0,92,93
 543 361 543 361 515.5 412.5 c 128,-1,94
 488 464 488 464 441.5 492 c 128,-1,95
 395 520 395 520 337 520 c 0,96,97
 278 520 278 520 231 492 c 128,-1,98
 184 464 184 464 157 412 c 128,-1,99
 130 360 130 360 130 289 c 0,100,101
 130 215 130 215 157 163.5 c 128,-1,102
 184 112 184 112 231 85.5 c 128,-1,103
 278 59 278 59 337 59 c 0,104,105
 427 59 427 59 485 118 c 128,-1,106
 543 177 543 177 543 289 c 0,92,93
EndSplineSet
EndChar

StartChar: ordmasculine
Encoding: 186 186 124
Width: 673
Flags: W
AnchorPoint: "Anchor-0" 337 0 basechar 0
LayerCount: 2
Fore
SplineSet
619 289 m 0,0,1
 619 208 619 208 585.5 140.5 c 128,-1,2
 552 73 552 73 489 32.5 c 128,-1,3
 426 -8 426 -8 337 -8 c 0,4,5
 249 -8 249 -8 185.5 32.5 c 128,-1,6
 122 73 122 73 88 140.5 c 128,-1,7
 54 208 54 208 54 289 c 0,8,9
 54 371 54 371 89 437.5 c 128,-1,10
 124 504 124 504 187.5 543.5 c 128,-1,11
 251 583 251 583 337 583 c 0,12,13
 424 583 424 583 487.5 544 c 128,-1,14
 551 505 551 505 585 438.5 c 128,-1,15
 619 372 619 372 619 289 c 0,0,1
543 289 m 0,16,17
 543 361 543 361 515.5 412.5 c 128,-1,18
 488 464 488 464 441.5 492 c 128,-1,19
 395 520 395 520 337 520 c 0,20,21
 278 520 278 520 231 492 c 128,-1,22
 184 464 184 464 157 412 c 128,-1,23
 130 360 130 360 130 289 c 0,24,25
 130 215 130 215 157 163.5 c 128,-1,26
 184 112 184 112 231 85.5 c 128,-1,27
 278 59 278 59 337 59 c 0,28,29
 427 59 427 59 485 118 c 128,-1,30
 543 177 543 177 543 289 c 0,16,17
190 715 m 0,31,32
 207 715 207 715 222.5 703 c 128,-1,33
 238 691 238 691 263.5 662.5 c 128,-1,34
 289 634 289 634 334 584 c 1,35,36
 351 608 351 608 375 639 c 128,-1,37
 399 670 399 670 432.5 709.5 c 128,-1,38
 466 749 466 749 510 797 c 2,39,-1
 541 831 l 1,40,41
 563 830 563 830 576 819 c 128,-1,42
 589 808 589 808 589 791 c 0,43,44
 589 781 589 781 583.5 771.5 c 128,-1,45
 578 762 578 762 564 748 c 0,46,47
 500 679 500 679 461.5 636.5 c 128,-1,48
 423 594 423 594 401 572 c 128,-1,49
 379 550 379 550 364.5 542 c 128,-1,50
 350 534 350 534 334 534 c 0,51,52
 317 534 317 534 297 545 c 128,-1,53
 277 556 277 556 243.5 585.5 c 128,-1,54
 210 615 210 615 151 670 c 1,55,56
 151 687 151 687 161.5 701 c 128,-1,57
 172 715 172 715 190 715 c 0,31,32
EndSplineSet
EndChar

StartChar: guillemotright
Encoding: 187 187 125
Width: 908
Flags: W
AnchorPoint: "Anchor-0" 450 0 basechar 0
LayerCount: 2
Fore
SplineSet
487 116 m 1,0,-1
 415 116 l 1,1,-1
 415 210 l 1,2,3
 421 215 421 215 430.5 218 c 128,-1,4
 440 221 440 221 451 221 c 256,5,6
 462 221 462 221 471.5 218 c 128,-1,7
 481 215 481 215 487 210 c 1,8,-1
 487 116 l 1,0,-1
589 360 m 1,9,-1
 699 360 l 1,10,11
 701 355 701 355 703 347.5 c 128,-1,12
 705 340 705 340 705 334 c 0,13,14
 705 318 705 318 697 309.5 c 128,-1,15
 689 301 689 301 671 301 c 2,16,-1
 455 301 l 1,17,18
 452 308 452 308 450 315.5 c 128,-1,19
 448 323 448 323 448 331 c 0,20,21
 448 345 448 345 457 353 c 128,-1,22
 466 361 466 361 484 361 c 2,23,-1
 572 361 l 1,24,-1
 589 360 l 1,9,-1
617 -8 m 0,25,26
 526 -8 526 -8 475.5 44 c 128,-1,27
 425 96 425 96 425 178 c 1,28,-1
 487 178 l 1,29,30
 487 123 487 123 525 90.5 c 128,-1,31
 563 58 563 58 615 58 c 0,32,33
 663 58 663 58 700 86.5 c 128,-1,34
 737 115 737 115 758 170.5 c 128,-1,35
 779 226 779 226 779 305 c 0,36,37
 779 417 779 417 748 469 c 128,-1,38
 717 521 717 521 663 521 c 0,39,40
 626 521 626 521 603 498.5 c 128,-1,41
 580 476 580 476 580 443 c 0,42,43
 580 409 580 409 603 384.5 c 128,-1,44
 626 360 626 360 669 360 c 1,45,-1
 574 347 l 1,46,47
 545 356 545 356 525.5 384 c 128,-1,48
 506 412 506 412 506 451 c 0,49,50
 506 488 506 488 525.5 518.5 c 128,-1,51
 545 549 545 549 579 568 c 128,-1,52
 613 587 613 587 658 587 c 0,53,54
 724 587 724 587 767.5 549.5 c 128,-1,55
 811 512 811 512 832.5 447 c 128,-1,56
 854 382 854 382 854 300 c 0,57,58
 854 215 854 215 829 145 c 128,-1,59
 804 75 804 75 751.5 33.5 c 128,-1,60
 699 -8 699 -8 617 -8 c 0,25,26
265 299 m 0,61,62
 232 299 232 299 200 312.5 c 128,-1,63
 168 326 168 326 146.5 357 c 128,-1,64
 125 388 125 388 125 440 c 0,65,66
 125 481 125 481 143 514 c 128,-1,67
 161 547 161 547 191 567 c 128,-1,68
 221 587 221 587 255 587 c 0,69,70
 302 587 302 587 336 566 c 128,-1,71
 370 545 370 545 388.5 512 c 128,-1,72
 407 479 407 479 407 443 c 0,73,74
 407 403 407 403 389.5 370.5 c 128,-1,75
 372 338 372 338 340.5 318.5 c 128,-1,76
 309 299 309 299 265 299 c 0,61,62
415 178 m 1,77,-1
 477 178 l 1,78,79
 477 126 477 126 454 84 c 128,-1,80
 431 42 431 42 387.5 17 c 128,-1,81
 344 -8 344 -8 283 -8 c 0,82,83
 182 -8 182 -8 118 66 c 128,-1,84
 54 140 54 140 54 285 c 0,85,86
 54 344 54 344 67.5 398 c 128,-1,87
 81 452 81 452 107 494.5 c 128,-1,88
 133 537 133 537 170 562 c 128,-1,89
 207 587 207 587 255 587 c 1,90,-1
 180 506 l 1,91,-1
 143 407 l 2,92,93
 136 384 136 384 132 355.5 c 128,-1,94
 128 327 128 327 128 286 c 0,95,96
 128 173 128 173 172 116 c 128,-1,97
 216 59 216 59 286 59 c 0,98,99
 340 59 340 59 377.5 91 c 128,-1,100
 415 123 415 123 415 178 c 1,77,-1
255 365 m 0,101,102
 290 365 290 365 311.5 388 c 128,-1,103
 333 411 333 411 333 443 c 256,104,105
 333 475 333 475 311 498 c 128,-1,106
 289 521 289 521 255 521 c 256,107,108
 221 521 221 521 199 498.5 c 128,-1,109
 177 476 177 476 177 442 c 0,110,111
 177 410 177 410 199 387.5 c 128,-1,112
 221 365 221 365 255 365 c 0,101,102
EndSplineSet
EndChar

StartChar: questiondown
Encoding: 191 191 126
Width: 796
Flags: W
AnchorPoint: "Anchor-0" 384 0 basechar 0
LayerCount: 2
Fore
SplineSet
358 97 m 1,0,-1
 383 107 l 1,1,2
 373 76 373 76 350 49.5 c 128,-1,3
 327 23 327 23 293 7.5 c 128,-1,4
 259 -8 259 -8 215 -8 c 0,5,6
 164 -8 164 -8 125 13.5 c 128,-1,7
 86 35 86 35 64 73 c 128,-1,8
 42 111 42 111 42 161 c 256,9,10
 42 211 42 211 64 249.5 c 128,-1,11
 86 288 86 288 126 309.5 c 128,-1,12
 166 331 166 331 219 331 c 0,13,14
 296 331 296 331 340 289.5 c 128,-1,15
 384 248 384 248 396 182 c 0,16,17
 407 121 407 121 442.5 90 c 128,-1,18
 478 59 478 59 529 59 c 0,19,20
 589 59 589 59 627.5 105 c 128,-1,21
 666 151 666 151 666 242 c 0,22,23
 666 320 666 320 630.5 384 c 128,-1,24
 595 448 595 448 520.5 486.5 c 128,-1,25
 446 525 446 525 328 525 c 2,26,-1
 315 525 l 1,27,-1
 279 549 l 1,28,-1
 334 585 l 1,29,-1
 364 585 l 2,30,31
 476 585 476 585 561 543 c 128,-1,32
 646 501 646 501 694 424 c 128,-1,33
 742 347 742 347 742 241 c 0,34,35
 742 158 742 158 715 102.5 c 128,-1,36
 688 47 688 47 640 19.5 c 128,-1,37
 592 -8 592 -8 529 -8 c 0,38,39
 463 -8 463 -8 419 23 c 128,-1,40
 375 54 375 54 358 97 c 1,0,-1
117 161 m 256,41,42
 117 114 117 114 145.5 86 c 128,-1,43
 174 58 174 58 219 58 c 256,44,45
 264 58 264 58 292.5 86 c 128,-1,46
 321 114 321 114 321 161 c 256,47,48
 321 208 321 208 292.5 236.5 c 128,-1,49
 264 265 264 265 219 265 c 256,50,51
 174 265 174 265 145.5 236.5 c 128,-1,52
 117 208 117 208 117 161 c 256,41,42
165 713 m 0,53,54
 182 713 182 713 198.5 701 c 128,-1,55
 215 689 215 689 242 660.5 c 128,-1,56
 269 632 269 632 317 582 c 1,57,58
 329 600 329 600 349 622 c 128,-1,59
 369 644 369 644 395 671 c 128,-1,60
 421 698 421 698 451.5 729.5 c 128,-1,61
 482 761 482 761 515 797 c 2,62,-1
 546 831 l 1,63,64
 568 830 568 830 581 819 c 128,-1,65
 594 808 594 808 594 791 c 0,66,67
 594 781 594 781 588.5 771.5 c 128,-1,68
 583 762 583 762 569 748 c 0,69,70
 504 685 504 685 461 642 c 128,-1,71
 418 599 418 599 391 573 c 128,-1,72
 364 547 364 547 346.5 536 c 128,-1,73
 329 525 329 525 315 525 c 0,74,75
 296 525 296 525 274.5 538.5 c 128,-1,76
 253 552 253 552 218.5 583.5 c 128,-1,77
 184 615 184 615 125 668 c 1,78,79
 125 685 125 685 136 699 c 128,-1,80
 147 713 147 713 165 713 c 0,53,54
EndSplineSet
EndChar

StartChar: Agrave
Encoding: 192 192 127
Width: 643
Flags: W
AnchorPoint: "Anchor-0" 364 0 basechar 0
LayerCount: 2
Fore
SplineSet
609 442 m 0,0,1
 609 396 609 396 580 362 c 128,-1,2
 551 328 551 328 499 308 c 1,3,-1
 472 301 l 2,4,5
 357 273 357 273 312 238 c 128,-1,6
 267 203 267 203 267 153 c 0,7,8
 267 121 267 121 283.5 99.5 c 128,-1,9
 300 78 300 78 326 68 c 128,-1,10
 352 58 352 58 380 58 c 0,11,12
 426 58 426 58 461.5 84.5 c 128,-1,13
 497 111 497 111 497 169 c 0,14,15
 497 219 497 219 478 252.5 c 128,-1,16
 459 286 459 286 427 307 c 0,17,18
 424 309 424 309 420 312.5 c 128,-1,19
 416 316 416 316 412.5 319.5 c 128,-1,20
 409 323 409 323 405 325 c 0,21,22
 377 339 377 339 343.5 344 c 128,-1,23
 310 349 310 349 275 349 c 0,24,25
 208 349 208 349 154.5 321.5 c 128,-1,26
 101 294 101 294 72 253 c 1,27,28
 60 254 60 254 50 259 c 128,-1,29
 40 264 40 264 34.5 272.5 c 128,-1,30
 29 281 29 281 29 291 c 0,31,32
 29 309 29 309 46.5 330 c 128,-1,33
 64 351 64 351 96 369.5 c 128,-1,34
 128 388 128 388 172.5 399.5 c 128,-1,35
 217 411 217 411 270 411 c 0,36,37
 308 411 308 411 343.5 404.5 c 128,-1,38
 379 398 379 398 411.5 384 c 128,-1,39
 444 370 444 370 472 348 c 0,40,41
 475 346 475 346 478.5 342 c 128,-1,42
 482 338 482 338 486 334.5 c 128,-1,43
 490 331 490 331 492 329 c 0,44,45
 516 309 516 309 534 285 c 128,-1,46
 552 261 552 261 562 231.5 c 128,-1,47
 572 202 572 202 572 167 c 0,48,49
 572 118 572 118 551.5 78.5 c 128,-1,50
 531 39 531 39 488.5 15.5 c 128,-1,51
 446 -8 446 -8 380 -8 c 0,52,53
 320 -8 320 -8 278 15 c 128,-1,54
 236 38 236 38 214 75 c 128,-1,55
 192 112 192 112 192 153 c 0,56,57
 192 224 192 224 248 269.5 c 128,-1,58
 304 315 304 315 402 336 c 1,59,-1
 444 351 l 2,60,61
 485 367 485 367 509.5 387.5 c 128,-1,62
 534 408 534 408 534 439 c 0,63,64
 534 475 534 475 504 500 c 128,-1,65
 474 525 474 525 394 525 c 2,66,-1
 315 525 l 1,67,-1
 319 578 l 1,68,69
 333 580 333 580 348.5 582 c 128,-1,70
 364 584 364 584 380 585 c 128,-1,71
 396 586 396 586 409 586 c 0,72,73
 500 586 500 586 554.5 549.5 c 128,-1,74
 609 513 609 513 609 442 c 0,0,1
165 713 m 0,75,76
 182 713 182 713 198.5 701 c 128,-1,77
 215 689 215 689 242 660.5 c 128,-1,78
 269 632 269 632 317 582 c 1,79,80
 329 600 329 600 349 622 c 128,-1,81
 369 644 369 644 395 671 c 128,-1,82
 421 698 421 698 451.5 729.5 c 128,-1,83
 482 761 482 761 515 797 c 2,84,-1
 546 831 l 1,85,86
 568 830 568 830 581 819 c 128,-1,87
 594 808 594 808 594 791 c 0,88,89
 594 781 594 781 588.5 771.5 c 128,-1,90
 583 762 583 762 569 748 c 0,91,92
 504 685 504 685 461 642 c 128,-1,93
 418 599 418 599 391 573 c 128,-1,94
 364 547 364 547 346.5 536 c 128,-1,95
 329 525 329 525 315 525 c 0,96,97
 296 525 296 525 274.5 538.5 c 128,-1,98
 253 552 253 552 218.5 583.5 c 128,-1,99
 184 615 184 615 125 668 c 1,100,101
 125 685 125 685 136 699 c 128,-1,102
 147 713 147 713 165 713 c 0,75,76
EndSplineSet
EndChar

StartChar: Aacute
Encoding: 193 193 128
Width: 824
Flags: W
AnchorPoint: "Anchor-0" 384 0 basechar 0
LayerCount: 2
Fore
SplineSet
117 161 m 256,0,1
 117 114 117 114 145.5 86 c 128,-1,2
 174 58 174 58 219 58 c 256,3,4
 264 58 264 58 292.5 86 c 128,-1,5
 321 114 321 114 321 161 c 256,6,7
 321 208 321 208 292.5 236.5 c 128,-1,8
 264 265 264 265 219 265 c 256,9,10
 174 265 174 265 145.5 236.5 c 128,-1,11
 117 208 117 208 117 161 c 256,0,1
654 127 m 1,12,-1
 720 156 l 1,13,14
 717 141 717 141 717 128 c 0,15,16
 717 76 717 76 744.5 47 c 128,-1,17
 772 18 772 18 828 18 c 1,18,19
 830 11 830 11 831 5 c 128,-1,20
 832 -1 832 -1 832 -6 c 0,21,22
 832 -22 832 -22 821.5 -32 c 128,-1,23
 811 -42 811 -42 788 -42 c 0,24,25
 764 -42 764 -42 740.5 -32.5 c 128,-1,26
 717 -23 717 -23 697 -3 c 128,-1,27
 677 17 677 17 665.5 49 c 128,-1,28
 654 81 654 81 654 127 c 1,12,-1
742 241 m 0,29,30
 742 189 742 189 730.5 146.5 c 128,-1,31
 719 104 719 104 698 74 c 0,32,33
 695 70 695 70 689 66 c 128,-1,34
 683 62 683 62 680 58 c 0,35,36
 652 25 652 25 614.5 8.5 c 128,-1,37
 577 -8 577 -8 529 -8 c 0,38,39
 463 -8 463 -8 419 23 c 128,-1,40
 375 54 375 54 358 97 c 1,41,-1
 383 107 l 1,42,43
 373 76 373 76 350 49.5 c 128,-1,44
 327 23 327 23 293 7.5 c 128,-1,45
 259 -8 259 -8 215 -8 c 0,46,47
 164 -8 164 -8 125 13.5 c 128,-1,48
 86 35 86 35 64 73 c 128,-1,49
 42 111 42 111 42 161 c 256,50,51
 42 211 42 211 64 249.5 c 128,-1,52
 86 288 86 288 126 309.5 c 128,-1,53
 166 331 166 331 219 331 c 0,54,55
 296 331 296 331 340 289.5 c 128,-1,56
 384 248 384 248 396 182 c 0,57,58
 407 121 407 121 442.5 90 c 128,-1,59
 478 59 478 59 529 59 c 0,60,61
 589 59 589 59 627.5 105 c 128,-1,62
 666 151 666 151 666 242 c 0,63,64
 666 335 666 335 635 395.5 c 128,-1,65
 604 456 604 456 554.5 488.5 c 128,-1,66
 505 521 505 521 448 530 c 1,67,68
 447 535 447 535 446 540 c 128,-1,69
 445 545 445 545 445 549 c 0,70,71
 445 565 445 565 454 576 c 128,-1,72
 463 587 463 587 488 587 c 0,73,74
 518 587 518 587 560.5 566.5 c 128,-1,75
 603 546 603 546 645 504 c 128,-1,76
 687 462 687 462 714.5 396.5 c 128,-1,77
 742 331 742 331 742 241 c 0,29,30
110 713 m 0,78,79
 125 713 125 713 138.5 702 c 128,-1,80
 152 691 152 691 174 663.5 c 128,-1,81
 196 636 196 636 235 586 c 1,82,83
 252 610 252 610 276 640.5 c 128,-1,84
 300 671 300 671 333 710 c 128,-1,85
 366 749 366 749 410 797 c 2,86,-1
 441 831 l 1,87,88
 463 830 463 830 476 819 c 128,-1,89
 489 808 489 808 489 791 c 0,90,91
 489 781 489 781 483.5 771.5 c 128,-1,92
 478 762 478 762 464 748 c 0,93,94
 401 679 401 679 363.5 636 c 128,-1,95
 326 593 326 593 304 570.5 c 128,-1,96
 282 548 282 548 267 539.5 c 128,-1,97
 252 531 252 531 234 531 c 0,98,99
 217 531 217 531 198.5 542.5 c 128,-1,100
 180 554 180 554 151 584.5 c 128,-1,101
 122 615 122 615 71 670 c 1,102,103
 72 687 72 687 82 700 c 128,-1,104
 92 713 92 713 110 713 c 0,78,79
EndSplineSet
EndChar

StartChar: Acircumflex
Encoding: 194 194 129
Width: 794
Flags: W
AnchorPoint: "Anchor-0" 384 0 basechar 0
LayerCount: 2
Fore
SplineSet
740 241 m 0,0,1
 740 159 740 159 715.5 103.5 c 128,-1,2
 691 48 691 48 648.5 20 c 128,-1,3
 606 -8 606 -8 552 -8 c 0,4,5
 500 -8 500 -8 465.5 10 c 128,-1,6
 431 28 431 28 405 62.5 c 128,-1,7
 379 97 379 97 352 146 c 2,8,-1
 336 176 l 2,9,10
 314 217 314 217 288 241 c 128,-1,11
 262 265 262 265 217 265 c 0,12,13
 171 265 171 265 144 236 c 128,-1,14
 117 207 117 207 117 160 c 0,15,16
 117 110 117 110 144.5 80.5 c 128,-1,17
 172 51 172 51 212 40 c 1,18,19
 212 21 212 21 203.5 6.5 c 128,-1,20
 195 -8 195 -8 172 -8 c 0,21,22
 145 -8 145 -8 115 12 c 128,-1,23
 85 32 85 32 63.5 69.5 c 128,-1,24
 42 107 42 107 42 159 c 0,25,26
 42 217 42 217 68 255 c 128,-1,27
 94 293 94 293 134.5 312 c 128,-1,28
 175 331 175 331 217 331 c 0,29,30
 286 331 286 331 328.5 296.5 c 128,-1,31
 371 262 371 262 403 201 c 2,32,-1
 420 169 l 2,33,34
 449 115 449 115 476.5 87 c 128,-1,35
 504 59 504 59 550 59 c 0,36,37
 600 59 600 59 632 105 c 128,-1,38
 664 151 664 151 664 242 c 0,39,40
 664 335 664 335 633 395.5 c 128,-1,41
 602 456 602 456 552.5 488.5 c 128,-1,42
 503 521 503 521 446 530 c 1,43,44
 445 535 445 535 444 540 c 128,-1,45
 443 545 443 545 443 549 c 0,46,47
 443 565 443 565 452 576 c 128,-1,48
 461 587 461 587 486 587 c 0,49,50
 516 587 516 587 558.5 566.5 c 128,-1,51
 601 546 601 546 643 504 c 128,-1,52
 685 462 685 462 712.5 396.5 c 128,-1,53
 740 331 740 331 740 241 c 0,0,1
110 713 m 0,54,55
 125 713 125 713 138.5 702 c 128,-1,56
 152 691 152 691 174 663.5 c 128,-1,57
 196 636 196 636 235 586 c 1,58,59
 252 610 252 610 276 640.5 c 128,-1,60
 300 671 300 671 333 710 c 128,-1,61
 366 749 366 749 410 797 c 2,62,-1
 441 831 l 1,63,64
 463 830 463 830 476 819 c 128,-1,65
 489 808 489 808 489 791 c 0,66,67
 489 781 489 781 483.5 771.5 c 128,-1,68
 478 762 478 762 464 748 c 0,69,70
 401 679 401 679 363.5 636 c 128,-1,71
 326 593 326 593 304 570.5 c 128,-1,72
 282 548 282 548 267 539.5 c 128,-1,73
 252 531 252 531 234 531 c 0,74,75
 217 531 217 531 198.5 542.5 c 128,-1,76
 180 554 180 554 151 584.5 c 128,-1,77
 122 615 122 615 71 670 c 1,78,79
 72 687 72 687 82 700 c 128,-1,80
 92 713 92 713 110 713 c 0,54,55
EndSplineSet
EndChar

StartChar: Atilde
Encoding: 195 195 130
Width: 1184
Flags: W
AnchorPoint: "Anchor-0" 384 0 basechar 0
LayerCount: 2
Fore
SplineSet
117 161 m 256,0,1
 117 114 117 114 145.5 86 c 128,-1,2
 174 58 174 58 219 58 c 256,3,4
 264 58 264 58 292.5 86 c 128,-1,5
 321 114 321 114 321 161 c 256,6,7
 321 208 321 208 292.5 236.5 c 128,-1,8
 264 265 264 265 219 265 c 256,9,10
 174 265 174 265 145.5 236.5 c 128,-1,11
 117 208 117 208 117 161 c 256,0,1
911 314 m 256,12,13
 911 276 911 276 934.5 255.5 c 128,-1,14
 958 235 958 235 990 235 c 256,15,16
 1022 235 1022 235 1045.5 255 c 128,-1,17
 1069 275 1069 275 1069 314 c 0,18,19
 1069 352 1069 352 1045.5 373 c 128,-1,20
 1022 394 1022 394 990 394 c 256,21,22
 958 394 958 394 934.5 373 c 128,-1,23
 911 352 911 352 911 314 c 256,12,13
889 527 m 2,24,-1
 525 527 l 1,25,-1
 488 587 l 1,26,-1
 895 587 l 2,27,28
 975 587 975 587 1030 557.5 c 128,-1,29
 1085 528 1085 528 1113.5 473 c 128,-1,30
 1142 418 1142 418 1142 343 c 0,31,32
 1142 258 1142 258 1099 215 c 128,-1,33
 1056 172 1056 172 988 172 c 0,34,35
 946 172 946 172 912 189.5 c 128,-1,36
 878 207 878 207 858.5 238 c 128,-1,37
 839 269 839 269 839 311 c 0,38,39
 839 352 839 352 856.5 383.5 c 128,-1,40
 874 415 874 415 905.5 432.5 c 128,-1,41
 937 450 937 450 978 450 c 0,42,43
 1015 450 1015 450 1039.5 434 c 128,-1,44
 1064 418 1064 418 1074 403 c 1,45,-1
 1072 397 l 1,46,47
 1058 463 1058 463 1012 495 c 128,-1,48
 966 527 966 527 889 527 c 2,24,-1
742 241 m 0,49,50
 742 158 742 158 715 102.5 c 128,-1,51
 688 47 688 47 640 19.5 c 128,-1,52
 592 -8 592 -8 529 -8 c 0,53,54
 463 -8 463 -8 419 23 c 128,-1,55
 375 54 375 54 358 97 c 1,56,-1
 383 107 l 1,57,58
 373 76 373 76 350 49.5 c 128,-1,59
 327 23 327 23 293 7.5 c 128,-1,60
 259 -8 259 -8 215 -8 c 0,61,62
 164 -8 164 -8 125 13.5 c 128,-1,63
 86 35 86 35 64 73 c 128,-1,64
 42 111 42 111 42 161 c 256,65,66
 42 211 42 211 64 249.5 c 128,-1,67
 86 288 86 288 126 309.5 c 128,-1,68
 166 331 166 331 219 331 c 0,69,70
 296 331 296 331 340 289.5 c 128,-1,71
 384 248 384 248 396 182 c 0,72,73
 407 121 407 121 442.5 90 c 128,-1,74
 478 59 478 59 529 59 c 0,75,76
 589 59 589 59 627.5 105 c 128,-1,77
 666 151 666 151 666 242 c 0,78,79
 666 335 666 335 635 395.5 c 128,-1,80
 604 456 604 456 554.5 488.5 c 128,-1,81
 505 521 505 521 448 530 c 1,82,83
 447 535 447 535 446 540 c 128,-1,84
 445 545 445 545 445 549 c 0,85,86
 445 565 445 565 454 576 c 128,-1,87
 463 587 463 587 488 587 c 0,88,89
 518 587 518 587 560.5 566.5 c 128,-1,90
 603 546 603 546 645 504 c 128,-1,91
 687 462 687 462 714.5 396.5 c 128,-1,92
 742 331 742 331 742 241 c 0,49,50
110 713 m 0,93,94
 125 713 125 713 138.5 702 c 128,-1,95
 152 691 152 691 174 663.5 c 128,-1,96
 196 636 196 636 235 586 c 1,97,98
 252 610 252 610 276 640.5 c 128,-1,99
 300 671 300 671 333 710 c 128,-1,100
 366 749 366 749 410 797 c 2,101,-1
 441 831 l 1,102,103
 463 830 463 830 476 819 c 128,-1,104
 489 808 489 808 489 791 c 0,105,106
 489 781 489 781 483.5 771.5 c 128,-1,107
 478 762 478 762 464 748 c 0,108,109
 401 679 401 679 363.5 636 c 128,-1,110
 326 593 326 593 304 570.5 c 128,-1,111
 282 548 282 548 267 539.5 c 128,-1,112
 252 531 252 531 234 531 c 0,113,114
 217 531 217 531 198.5 542.5 c 128,-1,115
 180 554 180 554 151 584.5 c 128,-1,116
 122 615 122 615 71 670 c 1,117,118
 72 687 72 687 82 700 c 128,-1,119
 92 713 92 713 110 713 c 0,93,94
EndSplineSet
EndChar

StartChar: Adieresis
Encoding: 196 196 131
Width: 592
Flags: W
LayerCount: 2
Fore
SplineSet
436 266 m 2,0,-1
 58 266 l 1,1,2
 55 273 55 273 53 280.5 c 128,-1,3
 51 288 51 288 51 298 c 0,4,5
 51 315 51 315 60.5 323.5 c 128,-1,6
 70 332 70 332 86 332 c 2,7,-1
 464 332 l 1,8,9
 467 326 467 326 469 318 c 128,-1,10
 471 310 471 310 471 301 c 0,11,12
 471 285 471 285 462 275.5 c 128,-1,13
 453 266 453 266 436 266 c 2,0,-1
210 135 m 1,14,-1
 210 135 l 1,15,16
 210 158 210 158 224.5 173 c 128,-1,17
 239 188 239 188 263 188 c 256,18,19
 287 188 287 188 301.5 173 c 128,-1,20
 316 158 316 158 316 135 c 0,21,22
 316 113 316 113 301.5 97.5 c 128,-1,23
 287 82 287 82 263 82 c 256,24,25
 239 82 239 82 224.5 97.5 c 128,-1,26
 210 113 210 113 210 135 c 1,14,-1
210 459 m 1,27,-1
 210 459 l 1,28,29
 210 482 210 482 224.5 497 c 128,-1,30
 239 512 239 512 263 512 c 256,31,32
 287 512 287 512 301.5 497 c 128,-1,33
 316 482 316 482 316 459 c 256,34,35
 316 436 316 436 301.5 421 c 128,-1,36
 287 406 287 406 263 406 c 256,37,38
 239 406 239 406 224.5 421 c 128,-1,39
 210 436 210 436 210 459 c 1,27,-1
EndSplineSet
EndChar

StartChar: Aring
Encoding: 197 197 132
Width: 592
Flags: W
LayerCount: 2
Fore
SplineSet
481 462 m 1,0,-1
 481 396 l 1,1,-1
 55 396 l 1,2,3
 52 401 52 401 48.5 410 c 128,-1,4
 45 419 45 419 45 429 c 0,5,6
 45 446 45 446 53.5 454 c 128,-1,7
 62 462 62 462 76 462 c 2,8,-1
 481 462 l 1,0,-1
116 396 m 1,9,-1
 116 462 l 1,10,-1
 571 462 l 1,11,12
 574 458 574 458 577 449 c 128,-1,13
 580 440 580 440 580 430 c 0,14,15
 580 413 580 413 572 404.5 c 128,-1,16
 564 396 564 396 548 396 c 2,17,-1
 116 396 l 1,9,-1
135 418 m 1,18,-1
 215 418 l 1,19,-1
 215 1 l 1,20,21
 211 0 211 0 201 -2.5 c 128,-1,22
 191 -5 191 -5 180 -5 c 0,23,24
 158 -5 158 -5 146.5 4.5 c 128,-1,25
 135 14 135 14 135 31 c 2,26,-1
 135 418 l 1,18,-1
407 418 m 1,27,-1
 488 418 l 1,28,-1
 488 89 l 2,29,30
 488 67 488 67 499.5 58.5 c 128,-1,31
 511 50 511 50 530 50 c 1,32,33
 532 45 532 45 532 40.5 c 128,-1,34
 532 36 532 36 532 32 c 0,35,36
 532 17 532 17 520.5 5 c 128,-1,37
 509 -7 509 -7 483 -7 c 0,38,39
 450 -7 450 -7 428.5 15 c 128,-1,40
 407 37 407 37 407 83 c 2,41,-1
 407 418 l 1,27,-1
EndSplineSet
EndChar

StartChar: AE
Encoding: 198 198 133
Width: 694
Flags: W
LayerCount: 2
Fore
SplineSet
199 257 m 1,0,-1
 260 181 l 1,1,2
 260 164 260 164 250 152 c 128,-1,3
 240 140 240 140 220 140 c 0,4,5
 209 140 209 140 197.5 146 c 128,-1,6
 186 152 186 152 173 161 c 2,7,-1
 51 253 l 2,8,9
 46 260 46 260 42.5 268.5 c 128,-1,10
 39 277 39 277 39 289 c 0,11,12
 39 303 39 303 44 312.5 c 128,-1,13
 49 322 49 322 56 329 c 2,14,-1
 213 449 l 1,15,16
 233 443 233 443 243 432 c 128,-1,17
 253 421 253 421 253 409 c 256,18,19
 253 397 253 397 248 387.5 c 128,-1,20
 243 378 243 378 232 364 c 2,21,-1
 199 322 l 1,22,-1
 645 322 l 1,23,24
 649 318 649 318 652 309.5 c 128,-1,25
 655 301 655 301 655 290 c 0,26,27
 655 274 655 274 646.5 265.5 c 128,-1,28
 638 257 638 257 624 257 c 2,29,-1
 199 257 l 1,0,-1
EndSplineSet
EndChar

StartChar: Ccedilla
Encoding: 199 199 134
Width: 588
Flags: W
LayerCount: 2
Fore
SplineSet
163 445 m 1,0,-1
 88 385 l 1,1,2
 68 385 68 385 53.5 395 c 128,-1,3
 39 405 39 405 39 423 c 0,4,5
 39 434 39 434 44.5 444 c 128,-1,6
 50 454 50 454 59 466 c 2,7,-1
 160 591 l 2,8,9
 166 596 166 596 174.5 599 c 128,-1,10
 183 602 183 602 196 602 c 256,11,12
 209 602 209 602 219 598 c 128,-1,13
 229 594 229 594 236 586 c 2,14,-1
 355 429 l 1,15,16
 350 410 350 410 339.5 399.5 c 128,-1,17
 329 389 329 389 316 389 c 0,18,19
 304 389 304 389 294 394 c 128,-1,20
 284 399 284 399 272 408 c 2,21,-1
 229 445 l 1,22,-1
 229 -8 l 1,23,24
 225 -9 225 -9 217.5 -11 c 128,-1,25
 210 -13 210 -13 200 -13 c 0,26,27
 183 -13 183 -13 173 -6 c 128,-1,28
 163 1 163 1 163 16 c 2,29,-1
 163 445 l 1,0,-1
EndSplineSet
EndChar

StartChar: Egrave
Encoding: 200 200 135
Width: 694
Flags: W
LayerCount: 2
Fore
SplineSet
495 331 m 1,0,-1
 434 407 l 1,1,2
 434 424 434 424 444.5 436.5 c 128,-1,3
 455 449 455 449 475 449 c 0,4,5
 486 449 486 449 497 443 c 128,-1,6
 508 437 508 437 521 427 c 2,7,-1
 644 335 l 2,8,9
 649 329 649 329 652 320 c 128,-1,10
 655 311 655 311 655 299 c 0,11,12
 655 286 655 286 650.5 276 c 128,-1,13
 646 266 646 266 638 259 c 2,14,-1
 481 140 l 1,15,16
 462 145 462 145 451.5 156 c 128,-1,17
 441 167 441 167 441 179 c 256,18,19
 441 191 441 191 446.5 201 c 128,-1,20
 452 211 452 211 462 224 c 2,21,-1
 495 266 l 1,22,-1
 49 266 l 1,23,24
 46 271 46 271 42.5 279.5 c 128,-1,25
 39 288 39 288 39 298 c 0,26,27
 39 315 39 315 47.5 323 c 128,-1,28
 56 331 56 331 70 331 c 2,29,-1
 495 331 l 1,0,-1
EndSplineSet
EndChar

StartChar: Eacute
Encoding: 201 201 136
Width: 393
Flags: W
LayerCount: 2
Fore
SplineSet
230 141 m 1,0,-1
 305 201 l 1,1,2
 325 201 325 201 339.5 191 c 128,-1,3
 354 181 354 181 354 163 c 256,4,5
 354 145 354 145 334 120 c 2,6,-1
 234 -5 l 2,7,8
 227 -9 227 -9 218.5 -12.5 c 128,-1,9
 210 -16 210 -16 198 -16 c 0,10,11
 185 -16 185 -16 175 -11.5 c 128,-1,12
 165 -7 165 -7 158 0 c 2,13,-1
 38 157 l 1,14,15
 44 177 44 177 54.5 186.5 c 128,-1,16
 65 196 65 196 78 196 c 0,17,18
 89 196 89 196 99.5 191.5 c 128,-1,19
 110 187 110 187 121 178 c 2,20,-1
 165 141 l 1,21,-1
 165 594 l 1,22,23
 170 596 170 596 177 597.5 c 128,-1,24
 184 599 184 599 194 599 c 0,25,26
 211 599 211 599 220.5 592 c 128,-1,27
 230 585 230 585 230 570 c 2,28,-1
 230 141 l 1,0,-1
EndSplineSet
EndChar

StartChar: Ecircumflex
Encoding: 202 202 137
Width: 592
Flags: W
LayerCount: 2
Fore
SplineSet
592 44 m 0,0,1
 592 34 592 34 587 23 c 128,-1,2
 582 12 582 12 572.5 5 c 128,-1,3
 563 -2 563 -2 549 -2 c 2,4,-1
 66 -2 l 2,5,6
 56 1 56 1 47.5 11 c 128,-1,7
 39 21 39 21 39 37 c 0,8,9
 39 45 39 45 42.5 55 c 128,-1,10
 46 65 46 65 53 83 c 0,11,12
 74 138 74 138 100.5 203 c 128,-1,13
 127 268 127 268 155.5 337 c 128,-1,14
 184 406 184 406 212 473 c 128,-1,15
 240 540 240 540 265 597 c 1,16,17
 288 607 288 607 320 607 c 0,18,19
 334 607 334 607 350 603 c 128,-1,20
 366 599 366 599 373 585 c 0,21,22
 398 525 398 525 427 455.5 c 128,-1,23
 456 386 456 386 485.5 313.5 c 128,-1,24
 515 241 515 241 542.5 172 c 128,-1,25
 570 103 570 103 592 44 c 0,0,1
129 64 m 1,26,-1
 504 64 l 1,27,-1
 317 539 l 1,28,-1
 129 64 l 1,26,-1
EndSplineSet
EndChar

StartChar: Edieresis
Encoding: 203 203 138
Width: 511
Flags: W
LayerCount: 2
Fore
SplineSet
144 540 m 1,0,-1
 338 243 l 2,1,2
 340 239 340 239 341.5 232 c 128,-1,3
 343 225 343 225 343 217 c 0,4,5
 343 210 343 210 341.5 203.5 c 128,-1,6
 340 197 340 197 338 192 c 2,7,-1
 144 -115 l 1,8,-1
 452 -115 l 1,9,10
 456 -120 456 -120 458.5 -128.5 c 128,-1,11
 461 -137 461 -137 461 -147 c 0,12,13
 461 -166 461 -166 452 -174 c 128,-1,14
 443 -182 443 -182 430 -182 c 2,15,-1
 87 -182 l 2,16,17
 71 -182 71 -182 60 -169.5 c 128,-1,18
 49 -157 49 -157 49 -141 c 0,19,20
 49 -129 49 -129 51 -121.5 c 128,-1,21
 53 -114 53 -114 57 -107 c 2,22,-1
 262 217 l 1,23,-1
 57 532 l 2,24,25
 53 539 53 539 51 547 c 128,-1,26
 49 555 49 555 49 566 c 0,27,28
 49 583 49 583 60 595.5 c 128,-1,29
 71 608 71 608 87 608 c 2,30,-1
 452 608 l 1,31,32
 456 603 456 603 458.5 594 c 128,-1,33
 461 585 461 585 461 576 c 0,34,35
 461 557 461 557 452 548.5 c 128,-1,36
 443 540 443 540 430 540 c 2,37,-1
 144 540 l 1,0,-1
EndSplineSet
EndChar

StartChar: Igrave
Encoding: 204 204 139
Width: 262
Flags: W
LayerCount: 2
Fore
SplineSet
109 153 m 1,0,-1
 52 135 l 1,1,2
 41 140 41 140 34 150.5 c 128,-1,3
 27 161 27 161 27 171 c 0,4,5
 27 184 27 184 33 191 c 128,-1,6
 39 198 39 198 51 202 c 2,7,-1
 122 225 l 2,8,9
 133 228 133 228 138 228 c 0,10,11
 149 228 149 228 156 223 c 128,-1,12
 163 218 163 218 169 204 c 2,13,-1
 268 -15 l 1,14,-1
 430 669 l 1,15,16
 436 671 436 671 442.5 672.5 c 128,-1,17
 449 674 449 674 456 674 c 0,18,19
 474 674 474 674 486 665.5 c 128,-1,20
 498 657 498 657 498 639 c 0,21,22
 498 629 498 629 495 615 c 128,-1,23
 492 601 492 601 487 584 c 2,24,-1
 317 -104 l 1,25,26
 311 -109 311 -109 299.5 -113.5 c 128,-1,27
 288 -118 288 -118 275 -118 c 0,28,29
 259 -118 259 -118 247 -113 c 128,-1,30
 235 -108 235 -108 230 -99 c 2,31,-1
 109 153 l 1,0,-1
EndSplineSet
EndChar

StartChar: Iacute
Encoding: 205 205 140
Width: 262
Flags: W
LayerCount: 2
Fore
SplineSet
434 267 m 2,0,-1
 418 245 l 2,1,2
 377 183 377 183 326 153 c 128,-1,3
 275 123 275 123 210 123 c 0,4,5
 166 123 166 123 129 140.5 c 128,-1,6
 92 158 92 158 70.5 191.5 c 128,-1,7
 49 225 49 225 49 273 c 0,8,9
 49 322 49 322 71 355.5 c 128,-1,10
 93 389 93 389 130.5 406.5 c 128,-1,11
 168 424 168 424 212 424 c 0,12,13
 275 424 275 424 324 391 c 128,-1,14
 373 358 373 358 414 301 c 1,15,-1
 432 279 l 2,16,17
 456 244 456 244 492 216 c 128,-1,18
 528 188 528 188 576 188 c 0,19,20
 620 188 620 188 645 212 c 128,-1,21
 670 236 670 236 670 272 c 0,22,23
 670 310 670 310 643 334.5 c 128,-1,24
 616 359 616 359 572 359 c 0,25,26
 529 359 529 359 495.5 331.5 c 128,-1,27
 462 304 462 304 434 267 c 2,0,-1
746 273 m 0,28,29
 746 224 746 224 724 190.5 c 128,-1,30
 702 157 702 157 665.5 140 c 128,-1,31
 629 123 629 123 585 123 c 0,32,33
 520 123 520 123 469.5 152.5 c 128,-1,34
 419 182 419 182 378 245 c 1,35,-1
 363 263 l 2,36,37
 333 304 333 304 297 331.5 c 128,-1,38
 261 359 261 359 219 359 c 256,39,40
 177 359 177 359 151.5 336.5 c 128,-1,41
 126 314 126 314 126 273 c 0,42,43
 126 233 126 233 152 210.5 c 128,-1,44
 178 188 178 188 218 188 c 0,45,46
 262 188 262 188 299 213.5 c 128,-1,47
 336 239 336 239 362 279 c 1,48,-1
 381 302 l 1,49,50
 424 364 424 364 472.5 394 c 128,-1,51
 521 424 521 424 581 424 c 0,52,53
 630 424 630 424 667 405 c 128,-1,54
 704 386 704 386 725 352.5 c 128,-1,55
 746 319 746 319 746 273 c 0,28,29
EndSplineSet
EndChar

StartChar: Icircumflex
Encoding: 206 206 141
Width: 262
Flags: W
LayerCount: 2
Fore
SplineSet
241 205 m 1,0,-1
 163 201 l 1,1,-1
 163 525 l 2,2,3
 163 589 163 589 186 626.5 c 128,-1,4
 209 664 209 664 246 681 c 128,-1,5
 283 698 283 698 325 698 c 0,6,7
 354 698 354 698 367 688.5 c 128,-1,8
 380 679 380 679 380 661 c 0,9,10
 380 653 380 653 377.5 645 c 128,-1,11
 375 637 375 637 372 633 c 1,12,-1
 339 633 l 2,13,14
 293 633 293 633 267 608 c 128,-1,15
 241 583 241 583 241 526 c 2,16,-1
 241 205 l 1,0,-1
163 285 m 1,17,-1
 241 289 l 1,18,-1
 241 -35 l 2,19,20
 241 -97 241 -97 219.5 -135.5 c 128,-1,21
 198 -174 198 -174 161.5 -191 c 128,-1,22
 125 -208 125 -208 80 -208 c 0,23,24
 49 -208 49 -208 37 -197.5 c 128,-1,25
 25 -187 25 -187 25 -170 c 0,26,27
 25 -162 25 -162 27.5 -154.5 c 128,-1,28
 30 -147 30 -147 33 -143 c 1,29,-1
 66 -143 l 2,30,31
 112 -143 112 -143 137.5 -118 c 128,-1,32
 163 -93 163 -93 163 -36 c 2,33,-1
 163 285 l 1,17,-1
EndSplineSet
EndChar

